<?xml version="1.0" encoding="UTF-8" standalone="no"?>
<svg
   width="2500"
   height="2500"
   viewBox="0 0 192.756 192.756"
   version="1.1"
   id="svg5"
   sodipodi:docname="siena-saints-4.svg"
   inkscape:version="1.3 (0e150ed6c4, 2023-07-21)"
   xmlns:inkscape="http://www.inkscape.org/namespaces/inkscape"
   xmlns:sodipodi="http://sodipodi.sourceforge.net/DTD/sodipodi-0.dtd"
   xmlns="http://www.w3.org/2000/svg"
   xmlns:svg="http://www.w3.org/2000/svg">
  <defs
     id="defs5" />
  <sodipodi:namedview
     id="namedview5"
     pagecolor="#ffffff"
     bordercolor="#000000"
     borderopacity="0.25"
     inkscape:showpageshadow="2"
     inkscape:pageopacity="0.0"
     inkscape:pagecheckerboard="0"
     inkscape:deskcolor="#d1d1d1"
     showgrid="false"
     inkscape:zoom="0.2564"
     inkscape:cx="659.12637"
     inkscape:cy="337.36349"
     inkscape:window-width="1600"
     inkscape:window-height="837"
     inkscape:window-x="1592"
     inkscape:window-y="-8"
     inkscape:window-maximized="1"
     inkscape:current-layer="g5"
     showguides="true">
    <sodipodi:guide
       position="16.76466,181.72365"
       orientation="0,-1"
       id="guide6"
       inkscape:locked="false" />
    <sodipodi:guide
       position="68.840601,160.06336"
       orientation="0,-1"
       id="guide7"
       inkscape:locked="false" />
    <sodipodi:guide
       position="58.687277,161.87076"
       orientation="0,-1"
       id="guide10"
       inkscape:locked="false" />
    <sodipodi:guide
       position="60.069405,180.10421"
       orientation="0,-1"
       id="guide11"
       inkscape:locked="false" />
    <sodipodi:guide
       position="-137.72582,99.836181"
       orientation="0,-1"
       id="guide12"
       inkscape:locked="false" />
    <sodipodi:guide
       position="58.638721,160.95577"
       orientation="0,-1"
       id="guide13"
       inkscape:locked="false" />
    <sodipodi:guide
       position="28.905882,161.63237"
       orientation="0,-1"
       id="guide14"
       inkscape:locked="false" />
    <sodipodi:guide
       position="50.979256,178.40313"
       orientation="0,-1"
       id="guide15"
       inkscape:locked="false" />
    <sodipodi:guide
       position="46.779714,166.01714"
       orientation="0,-1"
       id="guide16"
       inkscape:locked="false" />
  </sodipodi:namedview>
  <g
     fill-rule="evenodd"
     clip-rule="evenodd"
     id="g5">
    <g
       id="g10"
       transform="translate(35.183233,43.527973)"
       inkscape:label="O">
      <path
         d="M 68.561592,11.631779 H 58.092154 l -6.110108,21.675255 11.961857,-0.02658 6.189846,-21.648675 z"
         id="path2-8"
         style="stroke-width:0.530456"
         sodipodi:nodetypes="cccccc" />
      <path
         fill="#e8c157"
         d="m 64.282814,12.182456 h -5.617818 l -5.770445,20.263116 10.311411,-0.104009 5.983091,-20.211111 z m -3.70093,-2.177322 H 54.964066 L 49.193621,30.26825 59.505032,30.164241 65.488123,9.9531296 Z m 0,0 H 54.964066 L 49.193621,30.26825 59.505032,30.164241 65.488123,9.9531296 Z m 0,0 H 54.964066 L 49.193621,30.26825 59.505032,30.164241 65.488123,9.9531296 Z m 0,0 H 54.964066 L 49.193621,30.26825 59.505032,30.164241 65.488123,9.9531296 Z"
         id="path3-8"
         style="stroke-width:0.453049"
         sodipodi:nodetypes="cccccc" />
      <path
         fill="#3e8978"
         d="M 61.824547,31.744273 67.739661,13.246922 H 60.181386 L 54.266273,31.744273 Z"
         id="path4-3"
         style="stroke-width:0.563442"
         sodipodi:nodetypes="ccccc" />
      <path
         d="m 67.362524,13.446715 -5.724294,18.006991 -6.888823,-0.0046 5.662396,-18.002431 z"
         fill="#ffffff"
         id="path5-5"
         style="stroke-width:0.41184"
         sodipodi:nodetypes="ccccc" />
      <path
         fill="#3e8978"
         d="m 60.724881,30.321485 4.900722,-15.254666 -4.86224,-0.05316 -4.52861,15.254668 z"
         id="path4-3-9"
         style="stroke-width:0.441131"
         sodipodi:nodetypes="ccccc" />
      <path
         fill="#e8c157"
         d="m 61.029948,15.26387 -4.528626,14.864736 3.991824,0.05626 4.785727,-14.908438 c -0.119279,0.0059 -4.248925,-0.01256 -4.248925,-0.01256 z m 0.626914,-0.653114 h -2.167781 l -2.226676,9.751268 3.978926,-0.05006 2.308731,-9.726242 z m 0,0 h -2.167781 l -2.226676,9.751268 3.978926,-0.05006 2.308731,-9.726242 z m 0,0 h -2.167781 l -2.226676,9.751268 3.978926,-0.05006 2.308731,-9.726242 z m 0,0 h -2.167781 l -2.226676,9.751268 3.978926,-0.05006 2.308731,-9.726242 z"
         id="path3-8-1"
         style="stroke-width:0.19523"
         sodipodi:nodetypes="ccccccccccccccccccccccccccccc" />
      <path
         d="m 62.945135,19.435829 -2.256199,0.310545 -2.22477,6.65838 2.096468,-0.300894 2.444057,-6.659483 z"
         id="path2-8-1"
         style="stroke-width:0.0888021"
         sodipodi:nodetypes="cccccc" />
    </g>
    <g
       id="g9"
       transform="matrix(0.47788235,0,0,0.47788235,112.43022,201.59837)"
       inkscape:label="T">
      <path
         d="m -53.125319,-305.89998 h -14.750818 l -8.739877,44.94688 h 16.965917 l 8.739877,-44.94688 z"
         id="path2-9"
         sodipodi:nodetypes="cccccc"
         style="stroke-width:0.903381" />
      <path
         d="m -46.909047,-290.30297 7.35118,-16.04223 -41.036492,0.12124 2.89202,3.84148 1.710439,11.97442 z"
         id="path2-9-2"
         sodipodi:nodetypes="cccccc"
         style="stroke-width:0.792458" />
      <path
         fill="#e8c157"
         d="m -55.705753,-303.19038 h -10.806819 l -7.930389,40.35792 h 12.984347 l 7.930389,-40.35792 z"
         id="path3-6"
         sodipodi:nodetypes="cccccc"
         style="stroke-width:0.883398" />
      <path
         fill="#e8c157"
         d="m -42.500446,-305.06102 -34.493226,0.0314 1.638854,2.27574 1.795006,10.08925 24.732255,-0.0761 z"
         id="path3-6-2"
         sodipodi:nodetypes="cccccc"
         style="stroke-width:0.723942" />
      <path
         fill="#3e8978"
         d="m -62.879495,-264.20947 7.162631,-37.37738 h -9.152351 l -7.162631,37.37738 z"
         id="path4-19"
         sodipodi:nodetypes="ccccc"
         style="stroke-width:0.88136" />
      <path
         fill="#3e8978"
         d="m -71.445769,-294.25633 20.169123,0.0788 4.856751,-8.67699 -26.092443,-0.0236 z"
         id="path4-19-7"
         sodipodi:nodetypes="ccccc"
         style="stroke-width:0.752158" />
      <path
         d="m -56.428292,-300.99117 -6.936747,36.19863 h -7.929001 l 6.936746,-36.19863 z"
         fill="#ffffff"
         id="path5-72"
         sodipodi:nodetypes="ccccc"
         style="stroke-width:0.880253" />
      <path
         d="m -51.686373,-294.63293 -19.277819,-0.0969 -1.12116,-7.71307 24.793372,0.0302 z"
         fill="#ffffff"
         id="path5-72-2"
         sodipodi:nodetypes="ccccc"
         style="stroke-width:0.731656" />
    </g>
    <g
       id="g8"
       transform="matrix(0.42317513,0,0,0.42317513,39.087354,65.932299)"
       inkscape:label="N">
      <path
         d="m 39.572658,4.049954 2.191,-12.048 1.01,-5.562 2.193,-12.047 z m 29.05,-29.657 -1.658,9.123 -1.105,-9.123 h -17.506 l -9.355,51.454 h 16.361 c 0,0 1.152,-6.33 1.959,-10.775 l 1.307,10.775 h 17.006 l 8.69414,-51.403245 z"
         id="path2-0"
         sodipodi:nodetypes="cccccccccccccccc" />
      <path
         fill="#e8c157"
         d="m 80.242658,-23.628046 h -9.967 l -3.701,20.359 -2.469,-20.359 h -14.1 l -8.637,47.495 h 12.34 l 4.002,-22.013 2.668,22.013 h 13.6 l 8.635,-47.495 z m -42.323,25.698 1.473,-8.089 z m 46.819,-25.698 -3.176,47.495 z"
         id="path3-3"
         sodipodi:nodetypes="cccccccccccccccccc" />
      <path
         fill="#3e8978"
         d="m 71.925658,-21.649046 -5.744,31.597 -3.83,-31.597 h -10.695 l -7.914,43.538 h 8.314 l 6.045,-33.25 4.031,33.25 h 10.194 l 7.916,-43.538 z m -32.453,4.131 0.75,-4.131 -3.953,21.741 0.752,-4.132 z"
         id="path4-5"
         sodipodi:nodetypes="cccccccccccccccc" />
      <path
         d="m 79.451658,-20.989046 c -0.268,1.481 -7.486,41.181 -7.676,42.218 h -9.059 l -3.959,-32.669 -1.305,-0.039 -5.947,32.708 h -6.975 l 7.676,-42.218 h 9.561 l 3.76,31.017 1.305,0.039 5.646,-31.056 z m -40.02,0 c -0.154,0.859 -0.395,2.171 -0.512,2.812 l -2.689,14.797 z"
         fill="#ffffff"
         id="path5-71"
         sodipodi:nodetypes="ccccccccccccccccc" />
    </g>
    <g
       id="g6"
       inkscape:label="A"
       transform="matrix(0.94724504,0,0,0.95371222,-58.687689,16.6344)">
      <path
         d="m 119.94053,40.435425 -16.43677,0.0867 6.86091,3.731823 c -0.46793,1.350015 -6.5901,19.045964 -6.5901,19.045964 h 7.92767 l 1.14027,-4.103814 h 0.65768 l -0.18931,4.103814 h 7.50907 V 40.435425 Z"
         id="path2-7"
         sodipodi:nodetypes="ccccccccccc"
         style="stroke-width:0.444376" />
      <path
         fill="#e8c157"
         d="m 119.06066,41.314845 h -12.64117 l 5.02857,2.495617 c -0.46704,1.347349 -6.4399,18.610031 -6.4399,18.610031 h 6.02529 c 0,0 0.8852,-3.188399 1.14027,-4.103814 h 2.24721 c -0.0502,1.10783 -0.1893,4.103814 -0.1893,4.103814 h 5.70934 V 41.314845 Z m -4.19135,7.297546 c -0.0863,1.864449 -0.16305,3.531795 -0.21814,4.724219 -0.0326,0.705779 -0.0576,1.245179 -0.0725,1.560594 h -1.45445 c 0.3044,-1.098053 0.94252,-3.395478 1.74507,-6.284813 z"
         id="path3-7"
         sodipodi:nodetypes="ccccccccccccsccc"
         style="stroke-width:0.444376" />
      <path
         fill="#3e8978"
         d="m 110.1687,42.194266 2.3623,1.172709 -6.28792,18.174542 h 4.12159 l 1.13938,-4.103814 h 3.83807 l -0.19019,4.103814 h 3.90829 V 42.194266 Z m 1.7975,13.581914 3.20351,-11.530229 h 0.7821 L 115.419,55.77618 Z"
         id="path4-1"
         sodipodi:nodetypes="ccccccccccccccc"
         style="stroke-width:0.444376" />
      <path
         d="m 118.76827,42.487554 v 18.760675 h -3.30839 c 0.0236,-0.525253 0.18931,-4.103814 0.18931,-4.103814 h -4.36644 c 0,0 -1.03273,3.71854 -1.14027,4.103814 h -3.48658 c 0.25685,-0.745219 6.23771,-18.029232 6.23771,-18.029232 l -1.47444,-0.731443 z m -2.81646,1.465553 h -1.00429 l -3.3666,12.116362 h 4.11848 l 0.55992,-12.116362 z"
         fill="#ffffff"
         id="path5-8"
         sodipodi:nodetypes="cccccccccccccccc"
         style="stroke-width:0.444376" />
    </g>
    <g
       id="g7"
       inkscape:label="S"
       transform="translate(21.65122,44.204574)">
      <path
         d="M 23.662603,11.65783 19.829111,32.742649 Z M 20.07293,22.890718 c 0.0039,-0.698015 -0.191129,-1.382698 -0.562218,-1.973911 h 1.009697 l 0.83964,-4.822291 c 0.08155,-0.485179 0.119246,-0.887993 0.119246,-1.272367 0,-0.996175 -0.267587,-1.818194 -0.795793,-2.442289 -1.00601,-1.189999 -2.613167,-1.350223 -4.053134,-1.350223 H 2.0270376 l 6.9408539,3.341754 c -0.048525,0.15558 -0.089011,0.313554 -0.1212949,0.473296 l -0.7630103,4.195738 c -0.053731,0.289526 -0.081433,0.583281 -0.082776,0.877748 0,0.665483 0.1610436,1.258845 0.4614123,1.777216 H 7.6008654 l -0.8507033,4.677229 c -0.1716978,0.946182 -0.2552929,1.731321 -0.2552929,2.400901 0,1.188772 0.2733232,2.094796 0.8367708,2.769294 1.0010925,1.199836 2.5709597,1.199836 3.086873,1.199836 h 4.092473 c 2.583253,0 4.05969,-1.213359 4.513726,-3.708919 l 0.978145,-5.380002 c 0.04672,-0.256932 0.07007,-0.513864 0.07007,-0.76301 z"
         id="path2-1"
         style="stroke-width:0.40978"
         sodipodi:nodetypes="cccscccscsccccccccscssccss" />
      <path
         fill="#e8c157"
         d="M 9.1338524,11.840592 H 5.58065 c 0,0 3.8183301,1.838681 4.4034959,2.11979 -0.158976,0.326299 -0.2732407,0.672539 -0.3397076,1.029367 l -0.7630104,4.196148 c -0.046305,0.255702 -0.069663,0.499931 -0.069663,0.732276 0,1.129764 0.5507444,1.976779 1.6428081,2.522606 l 0.129901,0.06516 H 8.2782318 l -0.7294084,4.011747 c -0.1606338,0.884305 -0.24218,1.627646 -0.24218,2.255838 0,1.014206 0.2130856,1.727633 0.6482719,2.249283 0.6794153,0.814233 1.7321401,0.908482 2.4644167,0.908482 h 4.092473 c 2.186996,0 3.333151,-0.938396 3.715476,-3.043026 l 0.978144,-5.379592 c 0.03934,-0.215135 0.05737,-0.421664 0.05737,-0.618358 0,-1.312525 -0.813414,-2.205026 -1.657151,-2.62669 l -0.329463,-0.158175 h 2.563584 l 0.722442,-4.150252 c 0.05655,-0.3352 0.107362,-0.72695 0.107362,-1.133451 0,-0.663434 -0.135637,-1.364978 -0.604015,-1.919 -0.792105,-0.936346 -2.18044,-1.062558 -3.433957,-1.062558 H 9.1338524 Z"
         id="path3-0"
         style="stroke-width:0.40978"
         sodipodi:nodetypes="cccccccsccccscssccsccccscscc" />
      <path
         fill="#3e8978"
         d="M 25.016106,13.279737 21.772287,31.120739 Z M 9.1338524,12.651135 h 7.4965156 c 2.638573,0 3.544597,0.713837 3.131539,3.169648 -0.208169,1.235487 -0.604836,3.473705 -0.604836,3.473705 h -4.155169 l 0.555662,-3.055319 c 0.129081,-0.710559 -0.113099,-0.949461 -0.380686,-0.949461 -0.267586,0 -0.551564,0.128671 -0.665073,0.751537 l -0.44584,2.454172 c -0.113919,0.625325 -0.189319,0.886764 0.61385,1.269089 0.803169,0.382735 1.950553,0.918317 2.562354,1.224013 0.611802,0.306106 1.407595,1.038792 1.164595,2.374675 l -0.978145,5.380002 c -0.304466,1.674361 -1.0978,2.377134 -2.917633,2.377134 h -4.092473 c -1.9661247,0 -2.7254471,-0.864226 -2.0726675,-4.457587 l 0.6085233,-3.346264 h 4.2346662 l -0.777352,4.275235 c -0.116788,0.641306 0.163912,0.93143 0.431908,0.93143 0.267996,0 0.495424,-0.08441 0.640896,-0.884305 0.145472,-0.800301 0.553203,-3.042207 0.660565,-3.635978 0.108182,-0.593362 -0.03975,-0.681055 -0.766288,-1.02527 -0.72654,-0.344625 -1.797705,-0.879388 -2.562765,-1.262122 C 10.05094,21.332734 9.4247962,20.72503 9.6784501,19.330549 L 10.44146,15.134811 c 0.115968,-0.638437 0.451168,-1.259663 0.757274,-1.48914 z"
         id="path4-0"
         style="stroke-width:0.40978"
         sodipodi:nodetypes="ccccsccccsccccccssccccscccscccc" />
      <path
         d="m 16.630368,12.921999 c 1.406365,0 2.211173,0.209398 2.60825,0.679416 0.233164,0.275782 0.348313,0.66999 0.348313,1.211719 0,0.28029 -0.03114,0.599918 -0.0922,0.963393 l -0.565496,3.248326 h -3.603196 l 0.497473,-2.736511 c 0.0251,-0.133526 0.03841,-0.269003 0.03975,-0.404862 0,-0.270045 -0.06393,-0.483131 -0.191368,-0.635569 -0.122286,-0.146552 -0.304163,-0.230113 -0.495014,-0.227428 -0.343805,0 -0.784319,0.168829 -0.93061,0.973227 l -0.456085,2.510722 c -0.122525,0.667532 -0.147111,1.066658 0.773664,1.505122 l 0.770796,0.365114 1.787051,0.856441 c 0.385193,0.192596 1.256386,0.78145 1.019533,2.084551 l -0.976916,5.373445 c -0.286846,1.576833 -1.0056,2.16077 -2.652916,2.16077 h -4.092472 c -0.829805,0 -1.3342442,-0.160634 -1.6342031,-0.520011 -0.2647179,-0.31758 -0.3966671,-0.827756 -0.3966671,-1.561672 0,-0.554432 0.07499,-1.235486 0.2245595,-2.057505 l 0.567955,-3.123753 h 3.6855617 l -0.719164,3.956016 c -0.02053,0.109604 -0.03123,0.220824 -0.03196,0.332332 0,0.332741 0.108182,0.542958 0.213086,0.668761 0.132359,0.158585 0.320448,0.249146 0.516732,0.249146 0.501161,0 0.76383,-0.320448 0.906843,-1.106406 l 0.660975,-3.635568 c 0.02213,-0.122525 0.03319,-0.230297 0.03319,-0.325775 0,-0.542139 -0.347084,-0.707281 -0.94987,-0.992488 -0.728179,-0.345034 -1.828849,-0.895369 -2.557028,-1.259254 -0.551973,-0.276191 -1.046168,-0.660975 -1.046168,-1.548558 0,-0.164322 0.016801,-0.345445 0.053271,-0.546237 l 0.763011,-4.195737 c 0.109411,-0.602377 0.418385,-1.144926 0.653189,-1.321131 l 0.356099,-0.266767 -1.398989,-0.673269 z"
         fill="#ffffff"
         id="path5-7"
         style="stroke-width:0.40978"
         sodipodi:nodetypes="ccscsccccccccccccccsscsccccccsccsccscccccs" />
    </g>
    <g
       id="g19"
       inkscape:label="S"
       transform="matrix(1.019586,0,0,1.019586,96.030415,43.891351)"
       inkscape:export-filename="g19.svg"
       inkscape:export-xdpi="96"
       inkscape:export-ydpi="96">
      <path
         d="M 23.662603,11.65783 19.829111,32.742649 Z M 20.07293,22.890718 c 0.0039,-0.698015 -0.191129,-1.382698 -0.562218,-1.973911 h 1.009697 l 0.83964,-4.822291 c 0.08155,-0.485179 0.119246,-0.887993 0.119246,-1.272367 0,-0.996175 -0.267587,-1.818194 -0.795793,-2.442289 -1.00601,-1.189999 -2.613167,-1.350223 -4.053134,-1.350223 H 2.0270376 l 6.9408539,3.341754 c -0.048525,0.15558 -0.089011,0.313554 -0.1212949,0.473296 l -0.7630103,4.195738 c -0.053731,0.289526 -0.081433,0.583281 -0.082776,0.877748 0,0.665483 0.1610436,1.258845 0.4614123,1.777216 H 7.6008654 l -0.8507033,4.677229 c -0.1716978,0.946182 -0.2552929,1.731321 -0.2552929,2.400901 0,1.188772 0.2733232,2.094796 0.8367708,2.769294 1.0010925,1.199836 2.5709597,1.199836 3.086873,1.199836 h 4.092473 c 2.583253,0 4.05969,-1.213359 4.513726,-3.708919 l 0.978145,-5.380002 c 0.04672,-0.256932 0.07007,-0.513864 0.07007,-0.76301 z"
         id="path16"
         style="stroke-width:0.40978"
         sodipodi:nodetypes="cccscccscsccccccccscssccss" />
      <path
         fill="#e8c157"
         d="M 9.1338524,11.840592 H 5.58065 c 0,0 3.8183301,1.838681 4.4034959,2.11979 -0.158976,0.326299 -0.2732407,0.672539 -0.3397076,1.029367 l -0.7630104,4.196148 c -0.046305,0.255702 -0.069663,0.499931 -0.069663,0.732276 0,1.129764 0.5507444,1.976779 1.6428081,2.522606 l 0.129901,0.06516 H 8.2782318 l -0.7294084,4.011747 c -0.1606338,0.884305 -0.24218,1.627646 -0.24218,2.255838 0,1.014206 0.2130856,1.727633 0.6482719,2.249283 0.6794153,0.814233 1.7321401,0.908482 2.4644167,0.908482 h 4.092473 c 2.186996,0 3.333151,-0.938396 3.715476,-3.043026 l 0.978144,-5.379592 c 0.03934,-0.215135 0.05737,-0.421664 0.05737,-0.618358 0,-1.312525 -0.813414,-2.205026 -1.657151,-2.62669 l -0.329463,-0.158175 h 2.563584 l 0.722442,-4.150252 c 0.05655,-0.3352 0.107362,-0.72695 0.107362,-1.133451 0,-0.663434 -0.135637,-1.364978 -0.604015,-1.919 -0.792105,-0.936346 -2.18044,-1.062558 -3.433957,-1.062558 H 9.1338524 Z"
         id="path17"
         style="stroke-width:0.40978"
         sodipodi:nodetypes="cccccccsccccscssccsccccscscc" />
      <path
         fill="#3e8978"
         d="M 25.016106,13.279737 21.772287,31.120739 Z M 9.1338524,12.651135 h 7.4965156 c 2.638573,0 3.544597,0.713837 3.131539,3.169648 -0.208169,1.235487 -0.604836,3.473705 -0.604836,3.473705 h -4.155169 l 0.555662,-3.055319 c 0.129081,-0.710559 -0.113099,-0.949461 -0.380686,-0.949461 -0.267586,0 -0.551564,0.128671 -0.665073,0.751537 l -0.44584,2.454172 c -0.113919,0.625325 -0.189319,0.886764 0.61385,1.269089 0.803169,0.382735 1.950553,0.918317 2.562354,1.224013 0.611802,0.306106 1.407595,1.038792 1.164595,2.374675 l -0.978145,5.380002 c -0.304466,1.674361 -1.0978,2.377134 -2.917633,2.377134 h -4.092473 c -1.9661247,0 -2.7254471,-0.864226 -2.0726675,-4.457587 l 0.6085233,-3.346264 h 4.2346662 l -0.777352,4.275235 c -0.116788,0.641306 0.163912,0.93143 0.431908,0.93143 0.267996,0 0.495424,-0.08441 0.640896,-0.884305 0.145472,-0.800301 0.553203,-3.042207 0.660565,-3.635978 0.108182,-0.593362 -0.03975,-0.681055 -0.766288,-1.02527 -0.72654,-0.344625 -1.797705,-0.879388 -2.562765,-1.262122 C 10.05094,21.332734 9.4247962,20.72503 9.6784501,19.330549 L 10.44146,15.134811 c 0.115968,-0.638437 0.451168,-1.259663 0.757274,-1.48914 z"
         id="path18"
         style="stroke-width:0.40978"
         sodipodi:nodetypes="ccccsccccsccccccssccccscccscccc" />
      <path
         d="m 16.630368,12.921999 c 1.406365,0 2.211173,0.209398 2.60825,0.679416 0.233164,0.275782 0.348313,0.66999 0.348313,1.211719 0,0.28029 -0.03114,0.599918 -0.0922,0.963393 l -0.565496,3.248326 h -3.603196 l 0.497473,-2.736511 c 0.0251,-0.133526 0.03841,-0.269003 0.03975,-0.404862 0,-0.270045 -0.06393,-0.483131 -0.191368,-0.635569 -0.122286,-0.146552 -0.304163,-0.230113 -0.495014,-0.227428 -0.343805,0 -0.784319,0.168829 -0.93061,0.973227 l -0.456085,2.510722 c -0.122525,0.667532 -0.147111,1.066658 0.773664,1.505122 l 0.770796,0.365114 1.787051,0.856441 c 0.385193,0.192596 1.256386,0.78145 1.019533,2.084551 l -0.976916,5.373445 c -0.286846,1.576833 -1.0056,2.16077 -2.652916,2.16077 h -4.092472 c -0.829805,0 -1.3342442,-0.160634 -1.6342031,-0.520011 -0.2647179,-0.31758 -0.3966671,-0.827756 -0.3966671,-1.561672 0,-0.554432 0.07499,-1.235486 0.2245595,-2.057505 l 0.567955,-3.123753 h 3.6855617 l -0.719164,3.956016 c -0.02053,0.109604 -0.03123,0.220824 -0.03196,0.332332 0,0.332741 0.108182,0.542958 0.213086,0.668761 0.132359,0.158585 0.320448,0.249146 0.516732,0.249146 0.501161,0 0.76383,-0.320448 0.906843,-1.106406 l 0.660975,-3.635568 c 0.02213,-0.122525 0.03319,-0.230297 0.03319,-0.325775 0,-0.542139 -0.347084,-0.707281 -0.94987,-0.992488 -0.728179,-0.345034 -1.828849,-0.895369 -2.557028,-1.259254 -0.551973,-0.276191 -1.046168,-0.660975 -1.046168,-1.548558 0,-0.164322 0.016801,-0.345445 0.053271,-0.546237 l 0.763011,-4.195737 c 0.109411,-0.602377 0.418385,-1.144926 0.653189,-1.321131 l 0.356099,-0.266767 -1.398989,-0.673269 z"
         fill="#ffffff"
         id="path19"
         style="stroke-width:0.40978"
         sodipodi:nodetypes="ccscsccccccccccccccsscsccccccsccsccscccccs" />
    </g>
  </g>
</svg>
