<?xml version="1.0" encoding="UTF-8" standalone="no"?>
<!-- Created with Inkscape (http://www.inkscape.org/) -->

<svg
   version="1.1"
   id="svg1"
   width="659.99994"
   height="578.66199"
   viewBox="0 0 659.99994 578.66199"
   sodipodi:docname="logo bruno.svg"
   inkscape:version="1.3 (0e150ed6c4, 2023-07-21)"
   inkscape:export-filename="..\..\Users\Peter\Desktop\g19-alternate.svg"
   inkscape:export-xdpi="96"
   inkscape:export-ydpi="96"
   xmlns:inkscape="http://www.inkscape.org/namespaces/inkscape"
   xmlns:sodipodi="http://sodipodi.sourceforge.net/DTD/sodipodi-0.dtd"
   xmlns="http://www.w3.org/2000/svg"
   xmlns:svg="http://www.w3.org/2000/svg">
  <defs
     id="defs1" />
  <sodipodi:namedview
     id="namedview1"
     pagecolor="#ffffff"
     bordercolor="#000000"
     borderopacity="0.25"
     inkscape:showpageshadow="2"
     inkscape:pageopacity="0.0"
     inkscape:pagecheckerboard="0"
     inkscape:deskcolor="#d1d1d1"
     inkscape:zoom="6.8167328"
     inkscape:cx="217.47955"
     inkscape:cy="342.90621"
     inkscape:window-width="1920"
     inkscape:window-height="1009"
     inkscape:window-x="-8"
     inkscape:window-y="-8"
     inkscape:window-maximized="1"
     inkscape:current-layer="g1" />
  <g
     inkscape:groupmode="layer"
     inkscape:label="Image"
     id="g1"
     transform="translate(-82.666664,-65.939811)">
    <path
       style="display:none;fill:#fdfdfd"
       d="M 44.811809,335.67364 0,0 H 410.66666 821.33331 V 337.33334 674.66669 H 410.66666 0 Z M 445.59297,643.35529 C 1011.238,492.74893 311.8954,483.16842 126.06666,523.76157 243.49761,554.43874 308.0606,653.19758 445.59297,643.35529 Z m 9.74035,-39.99954 c 594.10428,-107.43818 -690.54472,-80.54736 -80,0.54347 5.86667,0.77919 12.46667,1.67096 14.66667,1.98172 9.06748,1.28078 53.86097,-0.45052 65.33333,-2.52519 z M 124.64542,393.6662 c 0.9041,2.16762 -0.59934,2.33333 -21.16944,2.33333 H 81.333331 v 10 10 C 1542.5511,325.9538 60.432475,145.48877 124.64542,393.6662 Z"
       id="path9"
       sodipodi:nodetypes="cccccccccssssssssscccs" />
    <path
       d="m 392.77822,378.45278 c -2.53054,-4.01061 2.65761,-14.45684 11.52903,-23.21387 8.87142,-8.75703 13.05556,-18.95653 9.29805,-22.66557 -3.75746,-3.70907 -0.21011,-6.74376 7.88287,-6.74376 8.0931,0 11.80938,-2.86782 8.2585,-6.37283 -26.44587,-26.10485 17.69682,-68.86359 68.85192,-66.69332 29.26459,1.24155 50.90759,5.93396 48.09566,10.4276 -2.81194,4.49365 -0.47426,8.17024 5.19522,8.17024 9.49507,0 28.97973,60.16127 25.57917,78.97906 -0.81191,4.49366 3.33403,8.17024 9.21334,8.17024 5.87926,0 8.3121,6.12773 5.40618,13.61714 -5.62236,14.49072 -190.45684,20.35646 -199.30994,6.32507 z m 28.45423,0.49913 c -2.53054,-4.01061 2.65761,-14.45684 11.52903,-23.21387 8.87142,-8.75703 13.05556,-18.95653 9.29806,-22.66557 -3.75747,-3.70907 -0.21012,-6.74376 7.88286,-6.74376 8.0931,0 11.80938,-2.86783 8.2585,-6.37284 -26.44587,-26.10484 42.48876,-83.97346 93.64386,-81.80319 29.26459,1.24155 26.11566,21.04384 23.30372,25.53747 -2.81194,4.49366 -0.47426,8.17024 5.19522,8.17024 9.49507,0 28.97973,60.16128 25.57917,78.97907 -0.81191,4.49366 3.33403,8.17024 9.21334,8.17024 5.87926,0 8.3121,6.12772 5.40618,13.61714 -5.62236,14.49072 -190.45684,20.35646 -199.30994,6.32507 z"
       style="display:inline;fill:#959595;stroke-width:8.22343"
       id="path1"
       sodipodi:nodetypes="sssscssscssssssscsssssss" />
    <path
       d="m 207.82422,400.09861 c -4.99166,-4.26311 5.24232,-15.36703 22.74178,-24.6754 17.49948,-9.30836 25.75296,-20.15001 18.34104,-24.09257 -7.41186,-3.94259 -0.41448,-7.16834 15.54947,-7.16834 15.9642,0 23.29479,-3.04838 16.29044,-6.77406 -52.16625,-27.74839 34.90816,-73.19917 135.81502,-70.89227 57.72635,1.31972 100.41864,6.30756 94.8719,11.08411 -5.54674,4.77657 -0.93551,8.68463 10.24792,8.68463 18.72967,0 57.16446,63.94897 50.45663,83.95151 -1.60155,4.77658 6.5766,8.68464 18.17392,8.68464 11.59722,0 16.39618,6.51352 10.66405,14.47446 -11.09049,15.40304 -375.68885,21.63809 -393.15217,6.72329 z m 56.12786,0.53055 c -4.99164,-4.26311 5.24232,-15.36702 22.74181,-24.67539 17.49945,-9.30837 25.75295,-20.15001 18.34102,-24.09258 -7.41184,-3.94258 -0.41447,-7.16833 15.54947,-7.16833 15.9642,0 23.29482,-3.04839 16.29045,-6.77407 -52.16624,-27.74839 34.90815,-73.19917 135.81503,-70.89226 57.72635,1.31971 100.41861,6.30756 94.87188,11.0841 -5.54674,4.77657 -10.32415,-55.86242 0.85927,-55.86242 18.72965,0 89.43796,90.35459 82.73015,110.35713 -1.60157,4.77657 -16.30828,46.82607 -4.71096,46.82607 11.59726,0 16.39618,6.51352 10.66408,14.47447 -11.09049,15.40303 -375.68885,21.63808 -393.1522,6.72328 z"
       style="display:inline;fill:#959595;stroke-width:11.9077"
       id="path1-4"
       sodipodi:nodetypes="sssscssscscssssscssscsss" />
    <path
       d="m 280.45881,241.85485 c -3.71574,-3.58704 3.90235,-12.93001 16.92881,-20.76219 13.02647,-7.83218 19.1703,-16.95448 13.65292,-20.2718 -5.51732,-3.31734 -0.30853,-6.03153 11.57491,-6.03153 11.88361,0 17.34046,-2.56495 12.12648,-5.69978 -23.05327,-13.86079 -59.45377,-47.64093 -28.97917,-60.4767 20.85843,-8.78548 99.5572,0.0383 130.07879,0.82704 42.97104,1.11043 74.75083,5.30726 70.62189,9.32631 -4.12895,4.01907 -0.69639,7.30736 7.62847,7.30736 13.94222,0 42.55277,53.80748 37.55952,70.63787 -1.19219,4.01907 4.89556,7.30736 13.52851,7.30736 8.63289,0 12.20519,5.48056 7.93824,12.179 -8.25567,12.96031 -279.6598,18.20656 -292.65937,5.65706 z"
       style="display:inline;fill:#959595;stroke-width:9.42394"
       id="path1-1"
       sodipodi:nodetypes="sssscsssscsss" />
    <path
       style="display:inline;fill:#cfcfcf"
       d="m 206.91143,356.33334 0.4219,-3.66666 8.79486,-2.59769 69.20669,0.52531 c 4.94362,-3.6236 22.39638,0.03 12.84259,10.73071 -2.09301,2.34427 -18.22292,1.41005 -23.59945,1.41005 l -28.21781,-2.09468 c -8.69582,2.89962 -12.05442,1.27101 -27.2222,0.22876 l -12.64847,-0.86913 z m 269.62824,-25.31746 c -1.03016,-1.03016 -1.87302,-2.39566 -1.87302,-3.03444 0,-0.63879 -2.55,-1.34593 -5.66666,-1.57143 -7.10767,-0.51426 -9.01797,-8.04714 -3.5238,-13.89541 4.06661,-4.32871 8.25835,-1.28421 8.47031,6.15208 0.0313,1.1 0.71873,2 1.52751,2 1.52883,0 8.52598,7.66535 8.52598,9.34018 0,0.52538 -1.18004,-0.46123 -2.62231,-2.19247 -3.02339,-3.62915 -3.65744,-1.75892 -0.79107,2.33339 2.34996,3.35504 -0.86942,4.04562 -4.04694,0.8681 z m -130.22302,-2.01587 c -0.79048,-2.05023 -2.92688,-2.33333 -17.60815,-2.33333 -18.49065,0 -18.45207,0.0215 -12.35534,-6.88988 l 4.3135,-4.88987 15.10505,-0.61207 c 16.39385,-0.6643 18.62224,0.2697 14.87613,6.2351 -0.97515,1.55286 -2.14618,4.62338 -2.60228,6.82338 -0.65337,3.15151 -1.02011,3.50505 -1.72891,1.66667 z m 119.03709,-89.82018 c -0.0112,-0.81776 -1.67042,-1.45244 -3.68708,-1.4104 -2.01667,0.042 -6.23684,-0.3492 -9.37816,-0.86942 -3.61204,-0.59817 -6.79776,-0.36707 -8.66667,0.6287 -2.76848,1.47508 -2.82882,1.41864 -0.95517,-0.89338 1.84014,-2.27069 1.78686,-2.38261 -0.66667,-1.40036 -3.83243,1.53428 -8.7978,2.512 -5.7155,1.12542 1.25648,-0.56523 1.85648,-1.67871 1.33334,-2.4744 -1.46546,-2.22894 -11.3456,-4.28157 -14.32987,-2.97708 -2.49484,1.09055 -2.48729,1.12117 0.15647,0.63474 1.62257,-0.29855 2.77778,0.19171 2.77778,1.17884 0,0.96655 -0.90367,1.37098 -2.11111,0.94481 -4.16222,-1.46909 -4.4785,-2.10153 -1.97976,-3.95874 2.33316,-1.73414 2.21637,-1.81563 -1.46468,-1.02196 -3.18183,0.68603 -3.59092,0.54832 -2,-0.67322 1.61389,-1.23919 -15.56511,-1.31377 -12.23414,-1.03792 l -8.01903,5.76936 8.44055,-54.74481 19.1026,1.59616 c 4.82377,-1.85962 -1.4135,5.47791 7.12367,5.15591 6.20947,2.08249 19.10253,12.92997 26.84311,20.37358 6.9235,6.65787 19.22628,20.89046 19.25683,27.9763 0.0197,4.57228 -10.63549,2.65855 -12.51359,5.56471 -0.71088,1.1 -1.30169,1.33093 -1.31292,0.51316 z m -75.01001,-17.35901 c -28.68988,-15.24028 -55.98709,-31.09245 -57.63107,-30.4616 -1.85198,0.71068 -20.74943,-3.71351 -18.7284,-16.70637 0.31369,-2.01667 -5.96362,-4.84026 -1.46397,-4.84026 0.63477,0 -3.67145,-2.68349 -4.05873,-5.06682 -0.38727,-2.38334 -15.426,-24.52098 0.0277,-21.92526 1.55074,0.26047 15.71331,8.26835 17.44591,7.60754 1.94087,-0.74025 3.07117,-1.11968 3.07117,0.10147 0,0.98564 -1.8007,-2.06315 -2.99129,-2.43837 -1.7861,-0.56289 1.70774,0.13256 3.34598,1.2926 1.06498,0.75413 -1.26267,-9.92072 3.12401,-0.006 1.05005,2.37338 7.07911,-0.02 9.09939,0.2404 1.02689,0.13234 1.71964,-0.0635 2.6325,0.40937 2.88972,1.49698 3.19042,-2.79585 6.09847,-0.89043 1.74491,1.14331 7.12066,1.60898 9.79454,2.1106 2.67387,0.50162 6.1427,-0.32517 6.93578,-0.0635 1.59092,0.52483 21.50798,1.27343 43.56685,20.35372 l 12.54188,4.73644 c 3.46426,2.14103 -21.31266,47.95459 -24.98879,51.63072 -0.20429,0.20428 -2.93932,-2.73921 -8.40873,-5.64459 z M 221.29255,184.04941 c -0.0978,-0.51659 -1.00888,-0.22515 -1.47222,-0.49244 -1.10119,-0.63525 -2.05981,-1.52833 -0.7579,-3.0411 0.62144,-0.72209 1.05936,-2.54089 1.93508,-3.30806 1.6403,-1.43697 7.47558,-28.5629 10.88973,-28.93083 0.0729,-0.008 5.01512,0.90311 5.60875,-1.56101 0.48908,-2.0301 -4.84238,-6.85396 -5.30125,-9.54811 -0.41898,-2.46 3.54242,-3.43896 4.33257,-3.89414 2.37757,-1.36964 8.71699,-3.50775 10.73783,-2.33056 2.32323,1.35334 39.39839,-3.16892 40.61439,-1.4309 1.10157,1.57449 15.36267,2.9381 16.23761,4.38628 28.65532,47.42964 -73.96688,28.35738 -48.86665,14.00075 6.51041,-3.72377 -19.51247,25.88473 -18.49795,24.64619 1.45705,-1.77877 1.12558,-8.24726 1.78024,-10.65823 1.55022,-5.70919 2.65588,-7.54452 3.13194,-6.36469 1.23193,3.05315 4.32386,-3.07275 13.30482,-0.0588 l 15.43671,-0.37639 3.7276,6.80771 c -1.27822,10.93106 -5.62679,34.49352 -7.90033,6.1065 -0.36762,-4.59016 -0.12775,-7.68152 0.56294,-7.25465 0.93259,0.57638 51.61952,-9.19969 63.11236,25.88658 6.33695,19.34595 -22.77738,93.33751 -23.28357,93.63846 -0.88886,0.52846 -32.33141,-12.35073 -57.08849,-40.79885 -10.43198,-11.98729 -28.20822,-55.23347 -28.24421,-55.42367 z"
       id="path8"
       sodipodi:nodetypes="ccccsccsccssssssssssssscsssssssssssssssssssccccssssscsssssssssssssssccscccsssssssssssssssccssssscc" />
    <path
       style="display:inline;fill:#afafaf"
       d="m 227.80461,523.66197 c 0.55265,-0.55259 84.07269,-0.85256 185.60009,-0.6666 l 184.59529,0.33812 -185.6001,0.6666 c -102.08004,0.36662 -185.14792,0.21447 -184.59528,-0.33812 z M 526.66665,316.40001 c 0,-1.76296 0.35556,-1.91111 1.6,-0.66667 1.9408,1.9408 7.26095,2.10969 8.4,0.26667 0.45323,-0.73333 0.18864,-1.33333 -0.58797,-1.33333 -2.75204,0 -1.86121,-65.34514 0.92131,-67.58072 2.08097,-1.67193 1.72045,-1.82822 -3.33334,-1.44508 -3.11666,0.23628 -5.66666,-0.0363 -5.66666,-0.60564 0,-2.95851 10.76531,-0.94938 11.97604,2.23509 1.07934,2.83888 1.05707,65.17094 -0.0249,69.72968 -0.66127,2.78616 -13.28446,2.21602 -13.28446,-0.6 z m -237.28405,-22.02753 -11.22186,-8.627 c -0.8133,0 -52.86061,9.54843 -54.43064,8.13003 -0.45972,-0.41532 -14.21586,6.65197 -19.55572,4.27982 -3.76857,-1.67413 0.70452,-11.87864 -0.75748,-15.94239 -1.44963,-4.02933 2.34042,-15.67225 2.9931,-19.43411 1.2309,-7.0945 3.44203,-28.9219 8.37323,-32.15732 7.21529,-4.73405 17.74346,11.75773 18.8474,19.28273 0.80888,5.51373 -10.86813,-16.32535 -10.45615,-17.39897 l 4.49715,-8.41402 c 0.55585,0.11187 8.35091,-2.09099 9.62967,-1.24847 4.20416,2.76992 4.16567,11.11704 4.16567,11.84734 0,0.95243 4.10684,2.02407 8.14018,4.80193 4.03333,2.77786 8.72696,6.28442 8.72696,6.89586 15.33911,6.88957 26.93296,20.93251 38.53145,29.99189 1.40639,0 0.52914,1.68378 -0.27204,3.28688 -1.95974,3.92131 18.99309,-54.70126 34.2117,-15.13839 0.6174,1.60503 -18.16137,29.67212 -17.63463,30.05728 10.65886,7.79395 -25.86131,3.14155 -23.78799,-0.21309 z m 7.35676,-21.1162 c -1.16111,-1.16111 -3.36503,-3.30107 -3.78407,-3.24869 -0.0327,-0.0659 -12.2462,-7.96687 -13.08558,-7.96687 -2.62022,-7.76768 -12.34057,-9.96375 -19.22113,-23.26926 l 3.08963,-5.83786 c 0.0309,-0.0583 29.59512,17.98717 29.59512,21.23595 0,0.84379 1.05,1.45083 2.33333,1.34898 1.28333,-0.10186 2.21667,0.46481 2.07407,1.25926 -0.14259,0.79444 0.45741,1.50098 1.33334,1.57008 0.87592,0.0691 3.09259,0.52116 4.92592,1.00455 2.70263,0.71261 2.95491,0.58554 1.33334,-0.67159 -1.77778,-1.37823 -1.77778,-1.48448 0,-0.95631 1.1,0.3268 3.2,-0.36473 4.66666,-1.53674 1.46667,-1.17201 0.56667,0.19639 -2,3.04089 -2.56666,2.84449 -3.80207,4.67547 -2.74535,4.06884 1.50063,-0.86147 -1.19994,4.79718 -4.66079,9.76599 -0.15202,0.21825 -2.69338,1.3539 -3.85449,0.19278 z m 155.94035,-16.17072 c -5.13333,-3.3493 -7.86708,-6.61079 -8.40585,-7.42706 l -45.22914,-22.97141 c 3.76961,0.0215 59.86895,-2.05148 80.76727,8.1977 l 6.92674,21.68061 -6.2118,12.42392 c -0.50058,-0.0511 -22.71389,-8.55446 -27.84722,-11.90376 z M 276.37979,221.74732 c 0,-0.73333 -2.03564,-0.81988 -3.17892,-0.81988 -1.14328,0 -4.12119,-0.85972 -3.74881,-1.46225 0.37238,-0.60252 -2.91709,-1.79644 -4.44119,-3.10142 -2.75248,-2.35675 4.06062,-6.05073 16.43105,-18.47281 l 12.45403,-12.50603 4.22565,3.06061 c 2.26103,1.63765 2.78732,3.11515 3.36025,3.36112 0.57292,0.24597 1.65606,1.43606 1.24155,2.10676 -0.41452,0.6707 0.71979,1.51285 1.62427,1.51285 0.91262,0 0.70811,5.57267 -1.00837,7.39978 -1.7011,1.81073 -4.55921,4.80904 -5.18595,4.4217 -0.62674,-0.38735 -1.13952,0.17094 -1.13952,1.24063 0,2.04213 -16.11866,14.88568 -18.23457,14.88568 -0.67424,0 -2.39947,-0.8934 -2.39947,-1.62674 z m -16.3798,-44.29798 7.33334,-0.78267 0.40961,-7.19038 c 0.3778,-6.63193 -1.57983,-12.95849 -2.05556,-6.64303 -0.11606,1.54082 -0.40134,2.99181 -0.63393,3.2244 -0.37385,0.37385 -19.61268,0.95569 -23.05346,0.69722 -0.73333,-0.0551 -1.44349,-2.23788 -1.57813,-4.85064 -0.21797,-4.22971 -0.007,-4.55793 1.92261,-2.99402 1.19208,0.96605 1.76379,1.08244 1.27048,0.25865 -0.64608,-1.07889 2.5454,-1.3547 11.41072,-0.98616 8.37254,0.34806 11.45505,0.10886 9.64099,-0.74815 -2.38244,-1.12552 -2.2861,-1.23896 0.90388,-1.06432 1.96379,0.10751 3.27838,0.66819 2.92131,1.24595 -0.35708,0.57777 -0.1019,1.05048 0.56706,1.05048 1.15097,0 0.84731,10.50403 -0.49145,17 -0.56118,2.72298 -1.32388,2.97993 -8.25954,2.78267 l -7.64126,-0.21733 z m -9.78134,-31.01852 c -0.42555,-1.6273 -0.11396,-3.75368 0.6924,-4.72529 1.13917,-1.37261 0.97805,-1.57928 -0.72246,-0.92673 -1.21697,0.46699 -2.1886,0.18458 -2.1886,-0.63614 0,-0.8118 -0.0199,-1.92599 -0.0442,-2.47599 -0.0243,-0.55 2.22571,-1.41494 5,-1.92209 3.13542,-0.57316 1.54815,-0.70984 -4.19464,-0.3612 -6.41146,0.38924 -8.81334,0.13542 -7.84853,-0.82939 1.61704,-1.61703 46.93062,-3.46242 45.42416,-1.84988 -0.54807,0.58666 -3.39807,0.97256 -6.33333,0.85754 -2.93526,-0.11501 -5.33684,0.38656 -5.33684,1.11462 0,0.72805 -1.95,1.33292 -4.33333,1.34415 -3.08707,0.0145 -3.78827,0.3654 -2.43812,1.21994 1.44546,0.91486 0.71074,1.69444 -3.09595,3.28498 -2.74515,1.147 -4.61259,2.69802 -4.14987,3.44672 0.46272,0.7487 0.0559,1.45267 -0.90404,1.56436 -0.95995,0.1117 -2.41404,0.27074 -3.23131,0.35343 -0.81727,0.0827 -2.39399,0.90395 -3.50381,1.82502 -1.68439,1.39791 -2.14572,1.18571 -2.79158,-1.28405 z"
       id="path7"
       sodipodi:nodetypes="sscsssssssssssssccssssssccsssssssscssscsssssssssssssscccccsssssscsssssssssccssssscsssssssscccssssssssssssssssscc" />
    <path
       style="display:inline;fill:#959595"
       d="m 164.29991,389.60894 c -7.82866,-50.82821 10.09389,-115.28443 33.38565,-163.36696 l 21.3182,-44.00841 c 1.44338,10.01981 18.80652,22.68725 16.87812,33.75534 -2.65203,15.22133 -25.57694,29.50984 -29.35112,48.72344 -3.83877,19.54244 -1.90241,29.77775 -1.277,33.94829 27.98306,7.17525 45.43724,-6.66929 11.92605,-0.1015 l 0.2934,4.42548 0.88018,5.30567 c 20.05211,-6.89255 2.34787,-1.73389 0.83387,0 -6.12272,7.01197 2.83849,4.0749 4.71888,3.57603 3.36901,-0.8938 -8.73101,16.51561 -8.73101,20.85564 v 32.98775 c 23.65108,-4.1743 15.12966,13.58718 22.69448,20.38077 0,0.66132 7.75651,6.03648 9.89824,7.39183 3.83763,2.42856 -12.62309,6.5388 -45.51375,6.09222 -22.87693,-0.31061 -35.15158,-2.78326 -36.14766,-1.78726 z m 495.26742,6.84731 c -0.4824,-0.4824 -8.72126,-0.7543 -18.30856,-0.60422 -23.55171,0.36868 -23.03305,0.60975 -19.12625,-8.88976 1.72563,-4.19591 3.16093,-8.82893 3.18957,-10.29559 0.0765,-3.91731 1.58368,-5.67457 5.76781,-6.72472 9.47959,-2.37922 10.79383,-31.27528 1.42246,-31.27528 -1.1017,0 -1.63651,-0.59313 -1.18848,-1.31806 0.46712,-0.75582 -0.0681,-0.97935 -1.25465,-0.52402 -1.4185,0.54433 -2.06925,0.005 -2.06925,-1.71589 0,-3.72366 -6.82047,-16.94889 -11.35445,-22.01683 -2.17742,-2.43386 -3.79857,-4.9198 -3.60255,-5.52431 0.19603,-0.60451 -0.24084,-0.72999 -0.9708,-0.27884 -3.01522,1.8635 -9.29305,-3.25273 -10.78363,-8.78832 -0.89376,-3.31915 -3.91088,-8.08478 -7.6477,-12.07974 -5.36984,-5.7408 -5.96392,-6.93051 -4.5729,-9.15788 0.99903,-1.59971 1.5987,-8.25001 1.5987,-17.72954 0,-19.02618 -2.10888,-22.17082 -16,-23.85829 -1.89265,-0.22992 -3.17498,-1.15442 -2.96696,-2.13905 0.2015,-0.95376 -0.26078,-1.34652 -1.0273,-0.87278 -0.76651,0.47373 -3.21029,-0.66727 -5.43063,-2.53556 -2.22033,-1.86828 -6.98609,-4.44432 -10.59057,-5.72452 -6.02043,-2.13826 -6.47773,-2.60189 -5.6209,-5.69867 5.57201,-20.13852 -16.03976,-25.93382 -24.57435,-6.58972 l -2.35122,5.32916 -20.46743,-0.27986 c -21.08156,-0.28826 -26.3163,-1.86709 -23.36793,-7.04791 0.45366,-0.79716 0.36906,-1.03981 -0.18798,-0.53922 -0.55705,0.50058 -3.87873,-2.49942 -7.38152,-6.66667 -11.05105,-13.14739 -9.58212,-12.08769 -64.0332,-46.19398 -20.37916,-12.76481 -23.72902,-13.75391 -54.66667,-16.14131 -28.13627,-2.17122 -36,-3.73485 -36,-7.15827 0,-1.18612 -0.87465,-3.40532 -1.94367,-4.93156 -2.35063,-3.356 -1.53959,-3.82186 18.61034,-10.6899 54.6132,-18.614724 124.93108,-16.28382 175.33333,5.81198 16.19467,7.09957 31.84286,15.56845 31.07172,16.81618 -0.45401,0.73461 -0.14301,0.90547 0.6999,0.38451 3.44034,-2.12624 35.72989,22.75273 53.04002,40.86713 52.21176,54.63762 76.67138,128.10911 68.11352,204.59848 l -1.07483,9.60675 9.7415,0.46166 9.7415,0.46166 -9.44445,0.26493 c -5.19444,0.14571 -9.83914,-0.12977 -10.32154,-0.61217 z m -217.70265,-2.01541 c -0.30573,-0.49088 0.32108,-1.76945 1.3929,-2.84127 1.07181,-1.07182 1.57733,-2.32019 1.12336,-2.77416 -0.45397,-0.45397 -0.0254,-0.8254 0.95238,-0.8254 0.97778,0 1.42677,-0.35101 0.99776,-0.78001 -3.1951,-3.19511 2.13807,-8.42858 8.31846,-8.16295 3.53565,0.15196 6.15049,0.72629 5.81076,1.27629 -0.33973,0.55 -0.0573,1 0.62767,1 1.14716,0 3.50123,7.36346 3.09039,9.66667 -0.0981,0.55 0.4028,1 1.11312,1 0.71031,0 1.00424,0.75 0.65316,1.66667 -0.67928,1.7736 -23.01036,2.49154 -24.07996,0.77416 z m 67.98437,-3.89392 c 3.03278,-5.58806 9.42113,-7.12514 15.68358,-3.77358 2.91045,1.55763 28.11927,2.0112 30.48594,0.54852 0.79335,-0.49031 2.2945,-0.56452 3.3359,-0.1649 1.0414,0.39962 2.26608,0.12366 2.72152,-0.61326 0.5393,-0.8726 1.47821,-0.80028 2.69239,0.2074 1.02537,0.85099 2.71283,1.22164 3.74991,0.82367 1.71681,-0.6588 3.41741,2.49957 3.45962,6.42524 0.009,0.84731 -11.82532,1.40718 -32.46606,1.53591 l -32.4804,0.20257 z M 311.99999,376.00001 c 0,-3.85185 0.55556,-5.33333 2,-5.33333 1.1,0 2,0.60172 2,1.33716 0,0.79957 1.74215,0.61453 4.33334,-0.46027 2.9808,-1.2364 4.2414,-2.59013 4.03879,-4.33716 -0.162,-1.39685 0.0392,-1.78599 0.44721,-0.86476 0.40797,0.92124 1.29051,1.33583 1.96121,0.92131 1.70379,-1.053 1.52805,1.22845 -0.23006,2.98656 -1.04379,1.04379 -0.98613,1.7359 0.20601,2.47268 1.11735,0.69056 1.31755,0.47632 0.61587,-0.65902 -0.78057,-1.263 -0.25305,-1.43254 2.11687,-0.68035 2.57934,0.81865 2.89152,0.66191 1.70729,-0.85716 -3.91565,-5.02277 -3.30495,-7.13008 0.92448,-3.19008 2.36028,2.19877 3.8106,3.09775 3.22293,1.99775 -0.86831,-1.62532 -0.7321,-1.68776 0.72712,-0.33333 0.98759,0.91667 3.40996,1.66667 5.38307,1.66667 3.1132,0 3.66011,0.62231 4.13702,4.70742 0.7296,6.24951 1.56479,5.95924 -17.1467,5.95924 h -16.44445 z m -90.99313,-0.26209 1.02858,-2.68466 c 0.83622,-2.1826 2.83469,-3.39069 2.37973,-4.12683 -0.47899,-0.77502 -0.15462,-0.92277 0.77055,-0.35098 0.87877,0.54311 2.34189,0.36989 3.2514,-0.38494 1.84961,-1.53504 5.60755,-1.31079 7.19095,0.42912 0.57134,0.62782 0.1961,0.65247 -0.83409,0.0548 -1.26966,-0.7366 -1.562,-0.58376 -0.90787,0.47465 0.53065,0.8586 1.59044,1.17444 2.35509,0.70186 0.76465,-0.47258 1.81728,-0.16831 2.33919,0.67615 0.52191,0.84447 2.27085,1.78997 3.88654,2.10112 1.6157,0.31116 2.61181,0.0386 2.21359,-0.60577 -0.39821,-0.64432 -0.11424,-1.54837 0.63106,-2.00899 0.83287,-0.51474 1.35508,1.24814 1.35508,4.57454 v 5.41202 h -14.66667 -14.66666 c 0.64113,-18.18622 4.42864,-9.88489 3.67353,-4.26209 z M 214.6163,333.1294 c -1.19188,-33.76683 103.1735,-24.86621 83.45748,-7.72384 l -25.51573,19.83251 -46.13258,4.81683 -11.21035,0.0398 z m 93.65034,0.38129 0.40002,-6.17735 18.2598,-0.40325 18.2598,-0.40325 0.88858,4.73658 c 0.48873,2.60513 1.33862,4.73659 1.88864,4.73659 0.55003,0 0.71543,-1.48891 0.36756,-3.3087 -1.0104,-5.28554 0.79842,-10.01313 4.34739,-11.36244 1.79884,-0.68392 3.08042,-2.0127 2.84795,-2.95284 -0.23247,-0.94015 -0.17101,-1.25935 0.13658,-0.70935 0.30759,0.55 1.55925,1.03803 2.78148,1.08451 1.4346,0.0546 1.05217,0.5514 -1.07902,1.4018 -2.75072,1.09762 -2.97307,1.54919 -1.33333,2.70793 1.58437,1.11962 1.4764,1.23025 -0.55402,0.56768 -2.2362,-0.72973 -2.31173,-0.56392 -0.66667,1.4635 1.59137,1.96125 1.58597,2.12413 -0.038,1.14513 -1.41979,-0.85591 -1.68034,-0.58648 -1.04185,1.07739 0.46827,1.2203 0.28907,2.21872 -0.39824,2.21872 -0.6873,0 -0.8665,0.99843 -0.39823,2.21873 0.62219,1.62139 0.37043,1.92147 -0.9351,1.11461 -1.30553,-0.80687 -1.55728,-0.50679 -0.9351,1.1146 0.4689,1.22194 0.20711,2.21873 -0.58273,2.21873 -0.78878,0 -1.14915,0.75 -0.80083,1.66667 0.48852,1.2856 -4.21932,1.70721 -20.5907,1.84401 l -21.22401,0.17734 z m 1.59395,-12.29565 c -1.81311,6.38264 -50.44393,-5.08938 -56.8606,-4.72229 -6.8246,0.39042 -11.66666,0.14998 -11.66666,-0.57932 l 3.34322,-20.95485 2.36972,-13.32191 20.25744,0.88019 c 9.13761,0.39703 20.11219,7.04005 20.86464,6.2876 -1.65305,9.20883 -0.56739,9.08687 7.83164,13.49527 0,-2.95969 30.22483,-1.63557 23.74489,5.52469 29.36869,-17.85918 -9.88429,13.39062 -9.88429,13.39062 z m 152.80607,-16.23739 c 0,-6.19901 -4.49348,-10.151 -7.96732,-7.00722 -2.01909,1.82725 -17.69253,-1.77104 -14.59728,-6.50432 2.43531,-3.72409 21.24025,-10.37617 18.9202,-4.69284 -0.20126,0.493 -10.67524,-5.71341 -10.77578,-6.98885 -0.11426,-1.44958 4.50615,-0.48919 5.96469,-0.37343 1.28334,0.10185 -2.0676,-0.53686 -2.0676,-1.59866 0,-1.13445 3.17089,-2.41317 12.96317,2.99438 1.09447,0.6044 -1.27568,0.22336 -0.66667,-1.36369 0.49129,-1.28028 -8.63292,-4.92918 -8.62169,-5.4192 17.15048,2.35726 -5.59559,-12.22611 -14.20112,-24.57838 7.92883,-1.75346 36.77896,13.53359 43.91159,12.47449 l -1.50757,10.90419 c -0.91079,-0.5629 -5.97237,12.07433 -5.45207,13.71364 0.9391,2.95883 -8.69248,20.6817 -10.65158,19.47091 -0.67454,-0.41689 -2.83419,-4.01634 -3.36484,-3.15773 -0.60256,0.97497 -0.38685,1.20389 0.57454,0.60972 2.26045,-1.39703 1.87793,1.26516 -0.46065,3.20602 -1.6875,1.40049 -2,1.13657 -2,-1.68903 z M 442.862,291.01231 c -8.12086,1.54842 -14.40081,-5.60854 -22.76593,-12.04397 -1.34383,-0.83053 0.81897,3.40764 -3.98948,0.83426 5.45016,-9.43965 -12.15319,-10.10553 -11.52227,-19.4024 0.39509,-1.02962 0.17648,-1.53713 -0.48582,-1.1278 -0.6623,0.40932 -1.45709,0.29048 -1.7662,-0.26408 -0.30911,-0.55457 -0.39092,-0.28887 -0.18179,0.59045 0.22452,0.94402 -0.45436,1.2785 -1.65769,0.81674 -1.29628,-0.49743 -5.68793,14.67192 -10.07314,18.83846 -12.29055,11.67768 -23.9173,16.69212 -15.04464,7.07647 1.17993,-4.01363 -3.68312,-1.52329 -6.19137,-3.85096 -1.76343,-1.63648 28.50925,-27.72316 30.57851,-30.98605 -8.71373,-62.77485 7.68927,-1.67864 13.98193,-20.01584 0.53639,-1.56308 5.28186,0.53455 20.92245,9.24832 14.14834,7.88239 17.39053,10.10286 16.60572,11.37271 -0.40932,0.66229 0.28536,0.80909 1.54375,0.3262 1.67518,-0.64283 1.99566,-0.405 1.19657,0.88795 -0.72846,1.17868 -0.57648,1.44769 0.45704,0.80894 0.85165,-0.52635 3.3789,0.3464 5.61611,1.93944 21.91275,15.60323 -11.18083,37.9443 -11.3835,37.89981 0.1828,-3.82006 -2.183,-1.62564 -5.84025,-2.94865 z M 367.94133,239.8558 c -8.69369,12.51675 -29.04697,-8.66253 -32.65072,-13.65208 l -8.36223,-11.57787 -0.29253,-7.25993 c -0.13945,-3.46061 -4.35787,-6.00353 -4.12697,-7.33667 0.23089,-1.33315 -1.47916,-7.54825 -2.37368,-10.29337 l -3.23359,-9.92324 45.76505,22.50582 c 12.21947,6.00915 26.2989,13.69368 31.55312,16.54988 l 19.6201,12.28226 c -0.28141,7.01356 -12.68948,13.80069 -22.60011,21.76948 -0.74641,0.2488 -15.21281,-24.70557 -23.29844,-13.06428 z m -51.88301,8.22181 c -0.59204,-0.3372 -2.54294,-0.77777 -2.20469,-4.51267 0.33825,-3.7349 -0.30408,-16.85463 1.48224,-23.69433 l -2.47014,-13.82295 -0.22184,-7.26898 c -0.17517,-5.73969 -6.67814,-7.8362 -7.48151,-7.33969 -0.95122,0.58788 -0.92288,-0.0618 0.0848,-1.94475 1.78211,-3.32989 3.41273,-3.80387 2.19824,-0.63898 -0.67954,1.77087 -0.47703,1.88749 1.06102,0.61102 1.47493,-1.22408 2.05572,-1.19164 2.59193,0.14474 0.52883,1.31798 0.71578,1.33105 0.79633,0.0557 0.0579,-0.91666 1.15526,-1.65748 2.4386,-1.64625 1.99406,0.0174 2.04253,0.20835 0.33333,1.31292 -1.1,0.71087 -1.4,1.2925 -0.66667,1.2925 2.95889,0 5.02012,-2.46355 4.31555,-5.15786 -0.45033,-1.72205 -0.20783,-2.48009 0.62811,-1.96345 0.84733,0.52368 0.18333,4.00458 2.63041,8.31234 2.22165,3.9109 -0.0946,9.89648 0.61472,12.23366 2.53351,8.3477 5.45451,50.88033 3.01301,47.80433 -2.08398,-2.62555 -1.80942,-0.71334 -0.92879,2.24042 0.5924,1.98697 -3.77541,-3.48935 -8.21465,-6.01772 z M 276.58701,160.824 c -0.48186,-1.91986 -1.30967,-3.49066 -1.83959,-3.49066 -0.52991,0 -1.71655,-1.40712 -2.63696,-3.12692 -1.46369,-2.73493 -2.76118,-3.16214 -10.35002,-3.40782 -5.81305,-0.18818 -8.3894,0.18373 -7.80648,1.12693 0.56609,0.91595 -1.13724,1.33326 -4.87528,1.19443 -4.41828,-0.1641 -4.81121,-0.33262 -1.7011,-0.72959 2.57531,-0.32871 4.51247,-1.583 5.33333,-3.45328 0.709,-1.6154 2.18908,-2.9957 3.28908,-3.06733 4.7022,-0.30623 5.44549,-0.60961 4.6494,-1.8977 -0.46272,-0.7487 1.40472,-2.29972 4.14987,-3.44672 3.80669,-1.59054 4.54141,-2.37012 3.09595,-3.28498 -1.35015,-0.85454 -0.64895,-1.20539 2.43812,-1.21994 2.38333,-0.0112 4.33333,-0.63921 4.33333,-1.39552 0,-0.7563 2.1,-1.23367 4.66667,-1.06081 2.56666,0.17285 4.66666,0.82706 4.66666,1.45379 0,0.62672 0.55163,0.79858 1.22584,0.38189 6.62295,-4.09321 0.44186,19.92524 -7.31491,28.42423 -0.2463,0.26987 -0.84206,-1.08013 -1.32391,-3 z m 128.40431,107.14148 c -12.06774,-7.43416 -26.23245,-16.15214 -31.47714,-19.3733 -2.24923,-3.8343 -29.37902,16.05488 -14.37598,-7.10196 1.53346,-3.10545 10.60532,-11.13796 10.83622,-12.4711 0.23089,-1.33315 2.06735,-4.11677 4.08102,-6.18584 l 3.66121,-3.76193 22,11.35679 c 12.1,6.24623 26.2989,13.69368 31.55312,16.54988 M 310.56259,172.66811 c -0.48186,-1.91986 -1.30967,-3.49066 -1.83959,-3.49066 -0.52991,0 -1.71655,-1.40712 -2.63696,-3.12692 -1.46369,-2.73493 -2.76118,-3.16214 -10.35002,-3.40782 -5.81305,-0.18818 -8.3894,0.18373 -7.80648,1.12693 0.56609,0.91595 -1.13724,1.33326 -4.87528,1.19443 -4.41828,-0.1641 -4.81121,-0.33262 -1.7011,-0.72959 2.57531,-0.32871 4.51247,-1.583 5.33333,-3.45328 0.709,-1.6154 2.18908,-2.9957 3.28908,-3.06733 4.7022,-0.30623 5.44549,-0.60961 4.6494,-1.8977 -0.46272,-0.7487 1.40472,-2.29972 4.14987,-3.44672 3.80669,-1.59054 4.54141,-2.37012 3.09595,-3.28498 -1.35015,-0.85454 -0.64895,-1.20543 2.43812,-1.21994 1.46772,-0.007 -0.96409,2.91604 -2.21275,3.47865 -5.07783,2.28788 3.88915,-0.0345 1.11826,2.16733 -2.85181,2.26619 -7.36698,6.71742 0.41243,2.31324 2.23862,-1.26736 1.29261,0.0936 1.29261,0.7203 0,0.62672 1.57852,1.82546 2.25273,1.40877"
       id="path6"
       sodipodi:nodetypes="cscssscccsssccssccssssssssssssssssssssssscsssssssssssssscccssssssssssssssssssssssscssssssssssssssssssscscsssssssssssssccccsccccsccccssssssssssssssssssssccsscccssssssssssssssssccsssssssssssssssssssssssssscssscssscsccssssscsscssssssssssssssssssssssssssssssssscccsscsccssssssssssssssssc"
       inkscape:transform-center-x="11.735827"
       inkscape:transform-center-y="18.777324" />
    <path
       style="display:inline;fill:#616161"
       d="m 246.66666,374.58799 c 6.44893,2.87925 -14.94081,1.77684 -19.00362,1.86096 -4.4528,-3.44325 -7.29872,-4.71615 -11.58966,-0.98523 l 0.0495,-3.24292 c 0.0249,-1.63056 -0.35114,-5.99094 -0.32832,-7.40321 0.0605,-3.74336 0.77239,-2.15091 17.01478,-2.15091 h 15.19068 v 8.66666 c 0,4.76667 -0.3,8.66667 -0.66666,8.66667 -0.36667,0 -0.66667,-2.43541 -0.66667,-5.41202 z m 98.66666,0.0787 c 0,-3.49207 -0.47407,-4 -3.73333,-4 -2.05333,0 -4.54135,-0.75 -5.52894,-1.66667 -1.45922,-1.35443 -1.59543,-1.29199 -0.72712,0.33333 0.58767,1.1 -0.9171,0.2 -3.34394,-2 -2.42684,-2.2 -4.02308,-3.31287 -3.54721,-2.47304 0.47588,0.83982 0.007,1.85612 -1.04097,2.25843 -1.04841,0.40231 -2.2275,0.0152 -2.62021,-0.86029 -0.39271,-0.87547 -0.58148,-0.44888 -0.41948,0.94797 0.20261,1.74703 -1.05799,3.10076 -4.03879,4.33716 -2.59119,1.0748 -4.33334,1.25984 -4.33334,0.46027 0,-0.73544 -0.9,-1.33716 -2,-1.33716 -1.65079,0 -2,-2.44445 -2,-14 v -14 h 17.33334 17.33333 v 18 c 0,9.9 -0.3,18 -0.66667,18 -0.36667,0 -0.66667,-1.8 -0.66667,-4 z m 221.6,2.4 c -0.88,-0.88 -1.6696,-3.13 -1.75467,-5 -0.1028,-2.2598 -0.35915,-2.61751 -0.76443,-1.06667 -1.09411,4.18674 -2.89848,2.46018 -3.81481,-3.65029 -1.39527,-9.30437 6.35034,-14.53328 12.46724,-8.41638 2.59055,2.59055 1.82869,4.35359 -0.83832,1.93999 -3.28808,-2.97567 -3.75058,-2.82884 -5.32621,1.691 -1.4767,4.23608 1.74163,7.32743 3.97085,3.81417 0.84936,-1.33859 1.09063,-1.29287 1.1066,0.20968 0.0148,1.39619 0.59169,1.21392 2.10998,-0.66666 1.95971,-2.42733 2.05002,-2.23277 1.45319,3.13078 -0.936,8.41173 -4.70426,11.91954 -8.60942,8.01438 z m -321.41393,-70.4 c -0.0402,-0.36667 0.69566,-3.96667 1.63522,-8 l 1.7083,-7.33334 13.70224,-0.38145 c 13.13321,-0.36561 13.84267,-0.24103 17.08369,3 l 3.38146,3.38145 h -16.66756 -16.66756 l -2.05135,5 c -1.12825,2.75 -2.08424,4.7 -2.12444,4.33334 z m 102.4806,-3.90921 c -5.60791,-0.82833 -26.67727,-11.27004 -26.65788,-13.21131 0.0235,-2.34809 5.09522,-8.32924 5.92473,-6.98706 3.80328,6.15384 15.96692,8.06777 26.30604,4.13921 3.81416,-1.44926 7.20579,-2.36407 7.53695,-2.03291 0.72864,0.72864 -15.78351,8.6654 -18.03115,8.66689 -0.87339,5.8e-4 -1.99845,0.66521 -2.50014,1.47696 -0.63161,1.02197 0.33221,1.2026 3.13367,0.5873 3.13908,-0.68946 6.09004,0.16037 13.16681,3.79184 l 9.12097,4.68046 -6,-0.11257 c -3.3,-0.0619 -8.7,-0.51138 -12,-0.99881 z m 225.69212,-24.38143 c 0.47194,-1.25985 0.34061,-2.61044 -0.29185,-3.00133 -0.63246,-0.39088 -0.83628,-1.91009 -0.45293,-3.37603 0.38336,-1.46594 0.12159,-2.66534 -0.58171,-2.66534 -0.70329,0 -1.33219,-4.05 -1.39756,-9 -0.0851,-6.44451 0.19609,-8.05352 0.9903,-5.66667 1.06901,3.21273 1.11395,3.18057 1.24205,-0.88888 0.0731,-2.32223 -0.58675,-4.46211 -1.46634,-4.75531 -1.00031,-0.33344 -0.75063,-0.85873 0.66666,-1.4026 2.29951,-0.8824 2.52638,1.08098 2.85572,24.71346 0.0595,4.27234 0.75001,4.53941 3.44721,1.33333 5.69535,-6.76985 0.58096,-30.39071 -6.03085,-27.85352 -0.98201,0.37683 -2.10877,-0.15737 -2.50391,-1.1871 -0.61503,-1.60273 -1.37923,-1.59615 -5.3088,0.0457 -4.30525,1.79885 -4.55017,1.76436 -3.94356,-0.55533 0.45576,-1.74283 1.46198,-2.26012 3.40694,-1.7515 1.67527,0.43809 2.43204,0.19088 1.92535,-0.62896 -0.51114,-0.82704 0.43592,-1.10784 2.44263,-0.72423 1.83186,0.35018 2.89882,1.23915 2.41902,2.01549 -0.56714,0.91765 0.80926,1.11833 4.05626,0.59142 3.45002,-0.55987 4.8059,-0.32387 4.54968,0.7919 -0.20075,0.8742 0.23092,1.58945 0.95928,1.58945 0.72836,0 1.12429,-0.6 0.87984,-1.33334 -0.24444,-0.73333 -0.008,-0.89684 0.52553,-0.36335 1.34209,1.34208 1.50761,29.02638 0.17356,29.02839 -0.59328,9e-4 -0.69868,0.6165 -0.23423,1.368 0.46446,0.7515 0.34987,1.28045 -0.25464,1.17544 -2.9302,-0.50902 -4.50688,0.26898 -3.6307,1.79153 0.52752,0.91666 0.46814,1.22187 -0.13196,0.67823 -0.6001,-0.54364 -2.00863,-0.24364 -3.13008,0.66667 -1.70578,1.38463 -1.89876,1.28077 -1.18091,-0.63554 z"
       id="path5"
       sodipodi:nodetypes="sccssscsssssssssscsssssscccssssssssssssssssscsscccssssssssssscssssssssssssssssssssssssssssssssss" />
    <path
       style="display:inline;fill:#c80304"
       d="m 378.03198,601.28633 c -9.51574,-1.42071 -20.91574,-3.72272 -25.33333,-5.11559 -4.4176,-1.39287 -10.13199,-2.90434 -12.69866,-3.35881 -2.56667,-0.45448 -6.20666,-1.63043 -8.08887,-2.61322 -1.88221,-0.98279 -5.18221,-2.22581 -7.33333,-2.76228 -4.0256,-1.00393 -6.20894,-1.89972 -19.90851,-8.16814 -10.05343,-4.60007 -34.43812,-19.58906 -40.83791,-25.10259 -2.6594,-2.29113 -6.2594,-5.23669 -8,-6.54569 -8.97719,-6.75125 -19.68699,-16.48448 -19.75463,-17.95333 -0.0422,-0.91666 -0.67675,-1.66666 -1.41008,-1.66666 -0.73333,0 -1.3334,-0.45 -1.33348,-1 -8e-5,-0.55 80.39981,-1 178.66643,-1 98.26661,0 178.66667,0.17111 178.6668,0.38024 10e-4,2.01092 -6.24737,8.58275 -15.17167,15.95636 -5.95545,4.92063 -11.12809,9.25788 -11.49475,9.63833 -2.46398,2.55662 -12.09797,9.3584 -13.25515,9.3584 -0.77634,0 -1.41152,0.48115 -1.41152,1.06921 0,0.58807 -3.89494,3.13807 -8.65542,5.66667 -4.76048,2.5286 -8.66048,5.04745 -8.66666,5.59745 -0.006,0.55 -0.88996,1 -1.96394,1 -1.07398,0 -4.7241,1.54726 -8.11137,3.43836 -3.38727,1.89109 -9.25856,4.55294 -13.04731,5.91522 -22.4309,8.06523 -33.04436,11.72202 -36.41456,12.54637 -28.51951,6.97587 -66.58799,8.87833 -94.44208,4.7197 z M 575.62826,336.05586 c -0.39119,-1.49592 -0.16759,-3.05587 0.4969,-3.46654 0.66449,-0.41068 1.20816,-2.83855 1.20816,-5.39527 0,-8.39547 4.80543,-11.5366 16.68625,-10.90719 11.92467,0.63174 13.90333,1.79171 4.58379,2.6872 -7.79112,0.74863 -10.57829,2.95413 -15.80206,12.50422 -3.91229,7.15245 -6.12966,8.56749 -7.17304,4.57758 z m -18.46161,-5.95808 c -0.0917,-0.42044 -0.24166,-1.51444 -0.33333,-2.4311 -0.10671,-1.06707 -2.41842,-1.67991 -6.42568,-1.70346 -7.73046,-0.0454 -8.30164,-0.58284 -5.77305,-5.4315 1.42232,-2.72734 2.01805,-7.97527 2.02385,-17.82839 0.008,-13.29334 0.11259,-13.81432 2.18354,-10.85762 1.83928,2.62594 2.94848,2.98208 7.18011,2.30542 6.1833,-0.98875 6.11625,-1.20889 6.03762,19.82147 -0.0523,13.98924 -3.14012,24.16519 -4.89306,16.12518 z m 10.92358,-15.09777 c 0.0707,-11.22461 0.4012,-13.68903 1.52399,-11.36267 2.83373,5.87133 13.05243,4.78928 13.05243,-1.38211 0,-4.88709 1.49478,-5.26613 5.52826,-1.4018 5.67724,5.43913 2.21239,10.89974 -6.84851,10.79327 -7.76804,-0.0913 -9.34641,0.8542 -9.34641,5.59867 0,5.63212 -1.51321,12.08797 -2.83334,12.08797 -0.64166,0 -1.12606,-6.45 -1.07642,-14.33333 z m -82.97571,3.28164 c -3.91237,-3.29008 -9.42586,-12.93934 -8.71632,-15.25458 0.39785,-1.29822 2.57101,-6.77256 4.82925,-12.16521 2.25823,-5.39265 4.10587,-10.60724 4.10587,-11.58798 0,-2.74896 1.87468,-3.36758 12.32365,-4.06671 13.02391,-0.87142 13.33089,-1.3587 12.76827,-20.26763 l -0.44811,-15.06047 4.01143,0.3938 4.01143,0.3938 v 39.33334 39.33333 l -15.48252,0.28165 c -10.54919,0.1919 -16.09444,-0.23295 -17.40295,-1.33334 z"
       id="path4"
       sodipodi:nodetypes="sssssssssssscssssscsssssssssssssssscsssssssssssssssssscccccss" />
    <path
       style="fill:#a90f11"
       d="M 376.66666,603.19325 C 324.22856,595.16532 278.071,572.71721 240.99835,537.21281 l -13.66502,-13.08697 184.33333,-0.0629 c 107.80056,-0.0368 184.33333,0.43316 184.33333,1.13191 0,1.83551 -20.60754,20.80335 -31.91268,29.37346 -52.86896,40.07847 -123.51843,58.40798 -187.42065,48.62495 z m 69.33333,-1.79406 c 24.09017,-3.52862 25.29209,-3.86076 62.88863,-17.37893 3.78875,-1.36228 9.66004,-4.02413 13.04731,-5.91522 3.38727,-1.8911 7.03739,-3.43836 8.11137,-3.43836 1.07398,0 1.95775,-0.45 1.96394,-1 0.006,-0.55 3.90618,-3.06885 8.66666,-5.59745 4.76048,-2.5286 8.65542,-5.0786 8.65542,-5.66667 0,-0.58806 0.63518,-1.06921 1.41152,-1.06921 1.15718,0 10.79117,-6.80178 13.25515,-9.3584 0.36666,-0.38045 5.5393,-4.7177 11.49475,-9.63833 8.9243,-7.37361 15.17294,-13.94544 15.17167,-15.95636 -1.3e-4,-0.20913 -80.40019,-0.38024 -178.6668,-0.38024 -98.26662,0 -178.66651,0.45 -178.66643,1 8e-5,0.55 0.60015,1 1.33348,1 0.73333,0 1.36787,0.75 1.41008,1.66666 0.0676,1.46885 10.77744,11.20208 19.75463,17.95333 1.7406,1.309 5.3406,4.25456 8,6.54569 12.06232,10.3919 48.05705,30.10617 60.74642,33.27073 2.15112,0.53647 5.45112,1.77949 7.33333,2.76228 1.88221,0.98279 5.5222,2.15874 8.08887,2.61322 2.56667,0.45447 8.28106,1.96594 12.69866,3.35881 21.95407,6.92212 65.19531,9.34529 93.30134,5.22845 z M 573.64275,338.66668 c -0.91595,-1.46667 -2.84885,-2.66667 -4.29533,-2.66667 -1.73495,0 -2.93265,-1.20599 -3.51939,-3.54376 -0.7914,-3.15321 -1.06755,-3.30015 -2.50572,-1.33333 -1.31039,1.79206 -4.03406,2.21042 -14.39062,2.21042 -11.72058,0 -16.38913,-1.19652 -12.95345,-3.31989 0.74529,-0.46062 1.35508,-2.00604 1.35508,-3.43428 0,-1.42824 1.5,-3.90103 3.33333,-5.49509 3.28438,-2.85573 3.33334,-3.19832 3.33334,-23.32452 0,-21.05114 1.29937,-25.41399 5.09072,-17.09288 1.03706,2.27608 2.58794,3.33333 4.88967,3.33333 h 3.3709 l -0.70755,-12.33334 c -1.29686,-22.60585 -2.06027,-25.60079 -6.65348,-26.10259 -7.16118,-0.78235 -6.93108,-2.89741 0.31521,-2.89741 h 6.8388 l 1.34364,7 c 2.44938,12.7606 4.45966,34.01446 3.50249,37.03025 -0.64089,2.01924 -0.47008,2.67823 0.53342,2.05804 0.86804,-0.53648 1.49288,0.0813 1.51672,1.49969 0.0361,2.14772 0.17852,2.1759 1.29971,0.25716 0.82723,-1.41567 2.41415,-1.93408 4.62612,-1.51123 2.71801,0.51958 3.36696,0.11487 3.36696,-2.09978 0,-4.73772 1.97993,-4.29175 9.27403,2.08895 7.15856,6.26214 10.72597,12.28864 10.72597,18.11962 0,2.53985 1.18413,3.64724 5.77452,5.40033 5.69891,2.17643 11.55881,6.57342 11.55881,8.67317 0,0.59343 -3.36259,0.49964 -7.47243,-0.20843 -9.46005,-1.62985 -12.68404,0.43379 -18.93445,12.1197 -4.66152,8.71528 -7.66865,10.29363 -10.61702,5.57254 z m 9.15855,-7.1884 c 5.15516,-9.42467 7.90528,-11.60108 16.02713,-12.68369 l 7.17155,-0.95594 -5.33333,-2.33915 c -2.93333,-1.28653 -6.98333,-2.67522 -9,-3.08598 -4.15733,-0.84678 -4.34718,-1.40271 -1.6814,-4.92355 3.48031,-4.59662 -10.21402,-23.1731 -14.47561,-19.63629 -2.99523,2.48581 -2.72946,3.71841 1.00376,4.65539 2.14761,0.53902 3.38506,1.99285 3.81143,4.47788 0.34724,2.02385 1.0772,4.72139 1.62212,5.99453 2.33891,5.4645 -9.6501,6.09863 -12.39971,0.65586 -1.17995,-2.33568 -1.43446,0.426 -1.19066,12.92001 0.2346,12.02294 0.75258,16.03775 2.12814,16.49492 0.99993,0.33232 2.78697,1.73584 3.9712,3.11891 2.94804,3.44306 4.31585,2.67389 8.34538,-4.6929 z m -20.43041,-20.65199 c 0.34708,-17.91124 0.21864,-19.07541 -2,-18.12811 -5.87182,2.5071 -9.35946,2.24486 -11.53956,-0.86768 -2.05646,-2.936 -2.16509,-2.39243 -2.17289,10.87283 -0.006,9.85312 -0.60153,15.10105 -2.02385,17.82839 -2.52859,4.84866 -1.95741,5.38605 5.77305,5.4315 4.00726,0.0236 6.31897,0.63639 6.42568,1.70346 0.30268,3.02679 0.48052,3.19926 2.83333,2.74778 2.07198,-0.3976 2.37488,-2.59166 2.70424,-19.58817 z m -59.70424,11.60635 -18,-1.17754 -4.41095,-4.96088 c -9.11058,-10.24643 -8.99532,-9.62179 -3.78962,-20.53668 2.55954,-5.36664 5.30636,-12.23876 6.10405,-15.27137 1.67484,-6.36735 3.30493,-7.10735 15.71628,-7.13462 10.32596,-0.0227 11.04691,-1.09966 11.04691,-16.50198 0,-14.44761 -0.91942,-15.51623 -13.34988,-15.51623 -8.49644,0 -12.9179,-1.53132 -8.99176,-3.11419 0.92124,-0.37141 0.4361,-0.72265 -1.07808,-0.78055 -2.2849,-0.0874 -7.24695,-7.03749 -7.24695,-10.1505 0,-0.94091 36.0678,-0.74387 43.21749,0.2361 8.86664,1.21531 8.95271,8.60985 0.11585,9.95327 -2.93334,0.44593 -3.99477,0.89593 -2.35874,1 4.23506,0.26938 4.84228,4.21278 3.89855,25.31816 -0.44771,10.01241 -0.82732,27.65438 -0.84358,39.20438 -0.0163,11.55 -0.47957,20.91229 -1.02957,20.80509 -0.55,-0.1072 -9.1,-0.72481 -19,-1.37246 z m 15.68971,-3.60541 c 0.75979,-0.488 1.49757,-16.66431 1.79912,-39.44687 l 0.51117,-38.61965 -5.34512,-0.45206 -5.34512,-0.45205 0.44847,15.0717 c 0.56302,18.92154 0.25713,19.40738 -12.76791,20.27887 -10.44897,0.69913 -12.32365,1.31775 -12.32365,4.06671 0,0.98074 -1.84764,6.19533 -4.10587,11.58798 -2.25824,5.39265 -4.4314,10.86699 -4.82925,12.16521 -0.70544,2.30185 4.79092,11.94856 8.67382,15.22351 1.96559,1.65783 30.82258,2.15778 33.28434,0.57665 z m 5.37696,-84.42722 c 3.67133,-3.67133 1.54129,-4.66684 -11.4,-5.32795 -10.56914,-0.53994 -35.97446,0.6328 -30,1.38482 0.91667,0.11539 1.66667,1.05979 1.66667,2.09868 0,3.63139 36.26304,5.31474 39.73333,1.84445 z"
       id="path3"
       sodipodi:nodetypes="sscssssssssscsssssssssssssssssssssssssssscssscsssssssssssssssscssssssssssssssscsssssscsssssssssssssssssscccssssssssssss" />
    <path
       style="fill:#040303"
       d="M 383.99999,643.07583 C 313.97367,635.61173 251.51436,604.85564 202.81214,553.85566 L 187.83699,538.174 158.91849,531.16576 130,524.15753 l 36.00162,-0.0788 36.00162,-0.0788 9.24174,10.66046 c 102.2061,117.89605 286.94611,120.36799 397.17375,5.31445 l 15.34771,-16.01965 35.11677,0.3557 35.11677,0.3557 -28,6.57067 -28,6.57066 -18,18.23411 c -63.17892,64.00071 -150.38148,96.15988 -235.99999,87.0338 z M 82.666665,406.66668 v -9.33333 h 21.429655 21.42965 l -1.09632,-15.66667 c -5.73445,-81.94653 17.44349,-154.879 68.04227,-214.10408 5.85679,-6.85528 6.78936,-7.48359 7.91593,-5.33334 0.70235,1.34058 2.16569,3.14982 3.25185,4.02055 3.39227,2.71942 0.99906,16.58937 -3.9217,22.72841 -41.92403,52.30359 -63.24172,127.15349 -55.52975,194.974 l 1.52159,13.38113 48.81174,-0.0589 48.81175,-0.0589 -5.09144,-2.6865 c -2.80029,-1.47758 -6.30956,-4.75106 -7.79837,-7.27441 -2.55354,-4.32792 -3.11502,-4.5879 -9.90856,-4.5879 h -7.20163 V 372.00007 361.3334 h -4.66667 c -4.64197,0 -4.66667,-0.0317 -4.66667,-6 0,-5.96825 0.0247,-6 4.66667,-6 h 4.66667 v -10.46661 c 0,-9.51361 0.36421,-10.96939 4,-15.98846 5.15953,-7.12253 5.29498,-6.87826 -3.81391,-6.87826 -11.99115,0 -20.18609,-1.42681 -20.18609,-3.51457 0,-1.34959 2.23567,-1.81876 8.66666,-1.81876 h 8.66667 v -5.33334 c 0,-5.1723 -0.13633,-5.33333 -4.51533,-5.33333 -6.59314,0 -6.59774,-3.37035 -0.0505,-37.01055 5.27987,-27.12836 5.50054,-29.15138 3.43729,-31.51166 -2.1171,-2.42188 -2.08343,-2.4484 0.84673,-0.66666 2.04711,1.24477 2.8431,2.73328 2.41831,4.5222 -6.27144,26.4107 -10.78015,62.00472 -7.97294,62.94239 1.94534,0.64978 3.25048,-4.32834 1.57425,-6.00457 -1.80513,-1.80513 9.16795,-56.45233 11.73652,-58.44926 1.62167,-1.26077 1.38421,-1.65197 -1.43178,-2.35874 -4.94068,-1.24003 -4.11953,-3.46315 1.27918,-3.46315 3.43394,0 5.65782,-1.04929 8.47768,-4 2.10244,-2.2 5.20766,-4 6.90049,-4 1.69283,0 2.70477,-0.37311 2.24875,-0.82912 -0.45601,-0.45601 -5.65601,-0.74139 -11.55555,-0.63418 l -10.72644,0.19494 v -13.28713 c 0,-7.30793 0.45,-13.56715 1,-13.9094 0.55,-0.34224 0.80883,5.02235 0.57517,11.92131 l -0.42482,12.54358 4.42482,-0.0147 c 2.43366,-0.008 6.68015,-0.38744 9.43666,-0.84304 l 5.01184,-0.82837 -6.01184,-11.02886 c -3.30651,-6.06587 -6.01183,-11.9365 -6.01183,-13.04584 0,-1.10935 -0.72372,-2.25823 -1.60827,-2.55308 -2.18737,-0.72913 -1.44183,-12.03222 0.87931,-13.33119 0.98548,-0.55151 2.49933,-4.15698 3.36411,-8.01217 0.86478,-3.8552 1.91627,-7.90944 2.33664,-9.00944 0.42037,-1.1 0.90971,-2.67581 1.08742,-3.50181 1.22487,-5.69325 2.3436,-7.16486 5.44682,-7.16486 h 3.32633 l -4.22969,-5.88973 c -7.37223,-10.26566 17.49117,-15.38684 56.06399,-11.54767 20.14673,2.00522 20.46403,2.11726 19.50973,6.88874 -0.67232,3.3616 -0.30977,3.95983 2.86018,4.71956 1.99655,0.4785 5.23986,1.68041 7.20736,2.6709 2.12803,1.0713 14.55187,2.62314 30.66667,3.83051 43.3351,3.2468 104.0041,37.1094 123.75606,69.07484 l 4.66666,7.55227 18.66667,0.0285 c 10.26667,0.0157 21.7852,0.40318 25.59673,0.86106 6.81594,0.81881 6.94333,0.76921 7.7359,-3.01159 1.97414,-9.4173 7.69752,-16.34655 12.10489,-14.65529 2.50212,0.96015 2.46205,8.8862 -0.0618,12.22301 -2.41592,3.19414 -2.60653,7.16982 -0.37574,7.837 17.33795,5.1854 22.33805,7.77728 25.15403,13.03898 1.30833,2.44465 1.16005,2.68485 -1.26586,2.05046 -3.53328,-0.92398 -3.16205,29.83231 0.40311,33.39747 3.23177,3.23177 5.21371,-2.93581 4.85904,-15.12086 -0.37792,-12.98407 0.30366,-15.20171 4.69041,-15.26112 1.27616,-0.0173 4.25916,26.01695 3.39686,29.64625 -0.306,1.28793 1.52296,1.28793 3.19044,0 0.71208,-0.55 -0.21545,0.34017 -2.06118,1.97817 l -3.35587,2.97816 3.19086,2.23498 c 10.7906,7.55802 15.06437,13.21402 16.66369,22.05305 0.72975,4.03317 1.66791,5.16823 5.2484,6.3499 9.55473,3.15334 20.88607,18.7728 20.88607,28.78999 0,4.0423 0.39417,4.4848 4.33333,4.86461 l 4.33333,0.41781 0.39368,8.97459 0.39367,8.9746 -5.21539,0.83397 -5.2154,0.83398 -0.86775,9.52476 c -1.1485,12.60641 -4.15192,21.31608 -9.03414,26.19831 -4.83344,4.83344 -2.89987,5.3175 2.63551,0.65979 l 3.96144,-3.33333 h 30.66487 c 26.6897,0 30.76945,-0.27251 31.47153,-2.10212 2.43167,-6.33683 3.80684,-41.62574 2.31566,-59.42352 C 665.37966,143.36142 464.54101,28.451764 292.7143,113.36222 c -15.48016,7.64973 -16.55893,7.97565 -26.75575,8.08363 -5.84387,0.0619 -14.03471,0.53904 -18.20187,1.06035 -9.31559,1.16538 -9.23311,1.02873 5.2075,-8.62803 C 455.49321,-21.557494 731.43686,148.8111 699.655,389.66668 l -1.01165,7.66667 h 22.01165 22.01165 v 9.33333 9.33333 H 412.66666 82.666665 Z m 386.661075,-9.66667 c -0.003,-0.18333 -1.50307,-3.28502 -3.33333,-6.89264 -1.83027,-3.60761 -3.32775,-7.65761 -3.32775,-9 0,-2.09418 -1.13579,-2.44069 -8,-2.44069 -5.85356,0 -8,0.4862 -8,1.8121 0,0.99666 -1.70721,5.19666 -3.79379,9.33334 l -3.79379,7.52123 h 15.12712 c 8.31992,0 15.12461,-0.15 15.12154,-0.33334 z m 105.33891,-0.92131 c 0,-0.69005 -0.55384,-1.59693 -1.23075,-2.01529 -0.67691,-0.41835 -1.63603,-2.60587 -2.13137,-4.86114 l -0.90062,-4.10049 -7.53529,0.84815 c -16.20684,1.8242 -33.88935,2.22936 -35.30967,0.80905 -5.69368,-5.69368 -17.20862,-0.67835 -21.98225,9.57437 -0.25608,0.55 15.1844,1 34.31218,1 20.84215,0 34.77777,-0.50275 34.77777,-1.25465 z m 33.25897,-9.33765 c 5.46991,-5.46992 5.51041,-24.28797 0.0647,-30.08463 -3.85563,-4.10413 -5.4114,-4.15419 -9.04077,-0.29091 -10.95855,11.66485 -2.14363,41.4952 8.97604,30.37554 z m -173.5802,-3.07437 c 4.02643,-4.29827 5.65457,-9.44804 5.65457,-17.8853 0,-20.61953 -16.34,-26.85841 -22.47786,-8.5824 -5.74469,17.1053 6.92349,37.03587 16.82329,26.4677 z m -8.71441,-0.56159 c -6.16837,-2.47993 -8.94257,-20.12061 -4.47554,-28.45921 2.15124,-4.01573 7.42369,-7.52647 6.63349,-4.41701 -0.15437,0.60746 0.45352,4.46306 1.35087,8.568 1.21692,5.56682 1.26163,8.95523 0.17594,13.33334 -2.29738,9.26432 -2.25086,9.90895 0.68422,9.48087 2.19661,-0.32037 2.31412,-0.1477 0.66667,0.97958 -2.18302,1.49375 -2.51533,1.5277 -5.03565,0.51443 z m -43.09384,-0.87894 c 9.75584,-8.06924 7.93703,-32.28214 -2.87051,-38.21373 -7.29938,-4.00618 -15.70538,4.39416 -16.72719,16.71594 -1.44632,17.44067 9.70867,29.67719 19.5977,21.49779 z m -12.23772,-3.22858 c -8.77039,-9.69117 -4.93484,-33.73395 5.36721,-33.64381 1.8848,0.0165 1.97206,0.24912 0.4539,1.21019 -1.60465,1.01581 -1.61161,1.83637 -0.0476,5.61217 2.50864,6.0564 2.28419,16.88329 -0.46358,22.36208 -2.80799,5.59884 -2.86182,5.16352 0.72396,5.85417 2.72179,0.52424 2.67913,0.59466 -0.46001,0.7594 -1.90301,0.0999 -4.41125,-0.86952 -5.57386,-2.1542 z m -23.63279,-16.99756 v -19.33333 h -17.33333 -17.33334 v 19.33333 19.33333 h 17.33334 17.33333 z m -98.66667,17.83928 v -17.17261 h -15.33333 c -8.43333,0 -15.35963,0.45 -15.39178,1 -0.0322,0.55 -0.18264,4.45 -0.33443,8.66666 l -0.27598,7.66667 h 15.66776 z m 326.35207,-5.18442 c 4.25497,-8.06499 0.0383,-17.32153 -7.89051,-17.32153 -6.18332,0 -7.12333,1.60616 -5.86214,10.01638 0.91633,6.11047 2.7207,7.83703 3.81481,3.65029 0.40528,-1.55084 0.66163,-1.19313 0.76443,1.06667 0.31612,6.94908 6.02316,8.55927 9.17341,2.58819 z m 7.8297,0.32472 c 1.1114,-0.71857 7.15156,-25.35133 7.15156,-29.16524 0,-0.26455 -3.36998,-0.48101 -7.48884,-0.48101 -7.12238,0 -7.44837,0.14681 -6.66177,3 0.45489,1.65 1.54627,8.55 2.42528,15.33334 1.61696,12.47807 1.85624,13.06992 4.57377,11.31291 z m -24.15821,-13.97958 c -0.66874,-8.90492 -1.52021,-12.79663 -3.06306,-14 -1.85882,-1.44981 -1.66998,-1.66667 1.45132,-1.66667 12.80814,0 2.05703,-3.67817 -12.7444,-4.36012 -16.57869,-0.76383 -19.14371,-0.47735 -15.62881,1.74554 1.28868,0.81498 -2.49728,1.24742 -11.03861,1.26083 l -13,0.0204 v 5.80681 c 0,5.55895 0.32726,6.03557 7.66666,11.16579 19.04532,13.31263 16.53011,12.36073 32.66095,12.36073 h 14.62215 z m -22.02356,5.19559 c 0,-1.72576 -0.38233,-6.79568 -0.84963,-11.2665 l -0.84962,-8.12875 8.32637,2.52102 c 12.17703,3.68691 15.47862,17.13106 3.49576,14.23483 -1.53425,-0.37083 -4.0989,-1.08202 -5.69921,-1.58043 -2.47573,-0.77105 -2.79995,-0.48665 -2.17401,1.90694 0.74845,2.86208 2.76427,3.68851 11.08367,4.54399 2.56667,0.26394 0.61667,0.5759 -4.33333,0.69326 -8.62196,0.20442 -9,0.0816 -9,-2.92436 z m -21.74558,-8.37457 c -13.57746,-8.23632 -6.40827,-13.79203 10.74618,-8.32768 7.38734,2.35316 7.53979,12.17019 0.19825,12.76647 -1.75937,0.1429 -6.68436,-1.85456 -10.94443,-4.43879 z m -217.16994,-1.48769 0.41781,-4.33333 -32.41781,-0.10756 c -17.82979,-0.0592 -38.41781,-0.20916 -45.75114,-0.33333 l -13.33334,-0.22578 -0.4146,4.29032 -0.4146,4.29032 15.74793,0.37635 c 8.66137,0.20699 29.24794,0.37635 45.74794,0.37635 h 30 z m 190.91552,-3.57986 c 0,-9.15575 -4.66357,-13.33214 -16.43863,-14.72138 l -7.77197,-0.91695 1.69893,3.1091 c 0.93442,1.71 2.0318,5.50909 2.43864,8.44243 1.00051,7.21381 20.07303,11.09691 20.07303,4.0868 z M 229.33333,338.4592 c 0,-9.30122 0.44761,-11.47095 3.09447,-15 5.55311,-7.40395 5.54761,-7.45919 -0.7418,-7.45919 -9.4538,0 -15.68601,9.19584 -15.68601,23.14527 v 10.18806 h 6.66667 6.66667 z m 42.93032,-1.4467 c 0.33267,-5.76789 0.86846,-7.07111 3.06968,-7.46644 2.70564,-0.48593 8.66666,-5.25039 8.66666,-6.927 0,-2.99919 -45.72083,-2.82217 -48.51437,0.18783 -1.55043,1.67056 -1.83459,2.30343 -0.63148,1.40637 3.75629,-2.80073 34.98987,-1.52417 35.56072,1.45342 0.40949,2.13594 -1.19644,2.33333 -18.98377,2.33333 h -19.4311 v 8 8 h 19.93032 19.93032 z m 347.03203,1.32084 c -3.66774,-22.14102 -35.29569,-21.01034 -35.29569,1.2618 0,4.85416 7.35783,1.68406 10.67432,-4.59899 l 3.34099,-6.32947 6.65078,0.24374 c 7.77848,0.28506 12.66724,4.59365 12.66724,11.16394 0,2.15911 0.65274,3.92565 1.45053,3.92565 0.96486,0 1.13623,-1.89731 0.51183,-5.66667 z m -268.53546,0.33334 c 0.57594,-1.1 3.01357,-6.2 5.41695,-11.33334 2.40339,-5.13333 4.59673,-9.78333 4.87409,-10.33333 0.27736,-0.55 -1.06454,-1 -2.982,-1 -1.96561,0 -3.84333,-0.93043 -4.30483,-2.13307 -0.7125,-1.85675 -2.69342,-2.0106 -15.29149,-1.18761 -16.02036,1.04655 -20.64059,-1.04455 -5.47295,-2.47704 15.15487,-1.43128 21.66667,-1.115 21.66667,1.05236 0,2.97159 -0.84383,2.84551 50.48151,7.54284 26.66484,2.44039 47.81484,4.65929 47,4.9309 -2.52855,0.84286 -1.62725,2.93829 1.26384,2.93829 1.50995,0 2.37454,-0.6 1.92131,-1.33334 -0.45322,-0.73333 0.11137,-1.33333 1.25465,-1.33333 5.89609,0 2.11653,-6.41165 -4.25465,-7.21757 -30.24373,-3.8257 -93.26874,-8.98744 -108.32451,-8.87176 l -17.99118,0.13824 -9.00882,8.93978 -9.00882,8.93979 v 7.73628 7.73629 l 20.85654,-0.36719 c 16.9213,-0.29791 21.05412,-0.74456 21.90369,-2.36719 z m 233.17138,-5.19787 c 6.55619,-12.98774 11.937,-15.33777 25.81913,-11.27632 5.57006,1.62962 -1.27868,-5.12038 -8.73686,-8.61089 -6.01998,-2.81742 -7.65575,-4.23081 -7.66667,-6.62442 -0.026,-5.70059 -3.65248,-11.76757 -10.73985,-17.96743 -7.2941,-6.3807 -9.27403,-6.82667 -9.27403,-2.08895 0,2.21465 -0.64895,2.61936 -3.36696,2.09978 -2.21197,-0.42285 -3.79889,0.0956 -4.62612,1.51123 -1.12119,1.91874 -1.26361,1.89056 -1.29971,-0.25716 -0.0249,-1.48411 -0.68172,-2.08724 -1.70721,-1.56779 -0.91667,0.46433 -0.50199,-0.10026 0.92151,-1.25464 3.00649,-2.43812 4.26784,-2.61654 5.41182,-0.76554 1.76016,2.84799 3.33242,1.10785 3.31292,-3.66667 -0.0328,-8.04117 -2.12498,-9.90659 -4.56393,-4.06935 -3.43183,8.21354 -4.33559,6.92526 -6.05173,-8.62656 -0.90861,-8.23392 -2.21199,-17.62003 -2.89639,-20.85803 -0.94165,-4.45508 -0.82552,-6.15299 0.47738,-6.97958 1.08733,-0.68983 0.002,-1.10525 -2.94491,-1.12741 -2.56667,-0.0193 -7.06667,-0.32003 -10,-0.66829 -4.22866,-0.50204 -4.64291,-0.38845 -2,0.54844 1.83333,0.6499 2.58333,1.24144 1.66666,1.31454 -3.84397,0.30653 -1.26854,2.67161 3.32391,3.05242 5.71828,0.47416 6.50602,3.10418 7.28683,24.32838 0.37758,10.26373 0.28924,10.61306 -2.94407,11.6419 -3.27092,1.0408 -3.26468,1.0521 0.33333,0.60366 2.01667,-0.25135 3.66667,0.0598 3.66667,0.69144 0,3.12634 -6.7185,0.91577 -8.66667,-2.85156 -3.86853,-7.48091 -4.66666,-4.55752 -4.66666,17.09289 0,20.83731 -0.0404,21.128 -3.33334,23.99118 -1.83333,1.59406 -3.33333,4.06685 -3.33333,5.49509 0,1.42824 -0.60979,2.97366 -1.35508,3.43428 -3.43568,2.12337 1.23287,3.31989 12.95345,3.31989 10.35656,0 13.08023,-0.41836 14.39062,-2.21042 1.43817,-1.96682 1.71432,-1.81988 2.50572,1.33333 0.58674,2.33777 1.78444,3.54376 3.51939,3.54376 1.44648,0 3.37938,1.2 4.29533,2.66667 2.96369,4.74562 6.05869,3.18204 10.28885,-5.19787 z m -99.93161,-2.79839 c 0,-1.46461 -2.72971,-6.37097 -6.06602,-10.90303 -3.33631,-4.53206 -6.59519,-9.18374 -7.24196,-10.33708 -2.24611,-4.00536 -9.35869,4.60877 -9.35869,11.33443 v 5.59915 l 5.96892,0.8951 c 8.43389,1.26474 9.26896,3.67685 1.17561,3.39573 -8.42587,-0.29267 -8.78525,-0.23077 -7.81119,1.34529 1.76471,2.85536 23.33333,1.62633 23.33333,-1.32959 z m 39.14917,-46.90085 c 0.90146,-43.57283 0.78723,-44.99992 -3.62516,-45.2921 -1.57154,-0.10407 -0.45735,-0.55407 2.47599,-1 8.83686,-1.34342 8.75079,-8.73796 -0.11585,-9.95327 -7.14969,-0.97997 -43.21749,-1.17701 -43.21749,-0.2361 0,3.07703 4.96986,10.07198 7.24695,10.19991 2.24997,0.1264 2.32667,0.26609 0.41972,0.76443 -5.69907,1.48932 -1.44331,3.0809 8.2381,3.0809 14.01811,0 14.7619,0.7818 14.7619,15.51623 0,15.40232 -0.72095,16.47929 -11.04691,16.50198 -12.41135,0.0273 -14.04144,0.76727 -15.71628,7.13462 -0.79769,3.03261 -3.54451,9.90473 -6.10405,15.27137 -5.2053,10.91406 -5.32524,10.26342 3.78962,20.55732 l 4.41095,4.98152 17.71272,0.88698 c 9.74199,0.48784 18.05207,1.43607 18.46685,2.10719 1.36537,2.20922 1.44955,0.72801 2.30294,-40.52098 z M 312.00241,306.0025 c -3.4638,-3.57373 -5.54941,-4.65479 -8.61928,-4.46773 -5.94418,0.36221 -9.76719,-1.19053 -18.9554,-7.69885 l -8.23892,-5.83591 h -14.76108 c -8.11859,0 -14.76107,0.23395 -14.76107,0.51989 0,0.28595 -1.2,6.35199 -2.66667,13.48011 -1.46666,7.12812 -2.66666,13.79416 -2.66666,14.81344 0,1.52955 5.47699,1.85323 31.35873,1.85323 h 31.35874 l -0.69912,-3.66667 c -0.61774,-3.23986 -0.45468,-3.13685 1.4008,0.8849 l 2.09993,4.55157 4.85974,-4.85974 4.85973,-4.85973 z m 229.88018,-23.51758 c 1.03269,-39.17089 1.17559,-38.33298 -6.65968,-39.05107 -10.2862,-0.94271 -9.88959,-2.49125 -9.88959,38.61307 v 36.61976 h 7.79769 7.79769 z m -71.71412,17.86556 c 20.59742,-30.09851 14.54978,-69.44866 -15.04444,-97.88953 -7.46083,-7.17007 -64.98042,-44.47275 -73.03908,-47.36741 -12.67969,-4.55451 -57.48504,-6.25391 -53.66745,-2.03551 7.60105,8.39906 9.09256,31.65785 3.09573,48.27531 -1.98481,5.5 -3.87551,10.9 -4.20154,12 -0.92544,3.12226 62.70231,42.20151 65.25796,40.08051 6.52008,-5.41119 15.34518,-30.03985 16.75075,-46.74718 l 0.95346,-11.33333 0.17669,12 c 0.38188,25.93532 -8.46532,45.37107 -30.19509,66.33333 -5.13124,4.95001 -11.88554,8.89628 -11.33287,8.89628 1.85881,0 14.80283,-10.27192 15.49822,-11.13785 l 10.38355,-12.93002 30.17155,17.99197 26.35741,16.52498 2.36878,-2.83934 c 4.52341,-5.42203 12.81505,-24.2246 14.77562,-33.50602 1.48175,-7.01469 1.99854,-8.16735 2.08023,-4.63986 0.44735,19.31552 -17.65875,43.49206 -15.17086,45.03924 3.66187,2.27726 6.67972,4.74322 9.61368,6.72708 4.71252,3.18647 -1.35325,6.08626 5.1677,-3.44265 z m -113.28945,-1.16209 c -7.07677,-3.63147 -10.02773,-4.4813 -13.16681,-3.79184 -2.80146,0.6153 -3.76528,0.43467 -3.13367,-0.5873 0.50169,-0.81175 1.62675,-1.47638 2.50014,-1.47696 -2.88322,2.03162 -9.73461,-0.94002 -15.81184,-10.77319 -0.82951,-1.34218 -5.90127,4.63897 -5.92473,6.98706 -0.005,0.48372 5.8148,2.86795 11.49813,6.01549 10.21737,5.65857 15.48775,7.97564 27.15975,8.19463 l 6,0.11257 z m -45.83154,-5.5454 c 17.71039,-16.93126 18.51073,-51.36329 0.91585,-39.40181 l -3.29667,2.24117 2.54738,-2.91601 c 3.11415,-3.5648 4.72015,-2.13333 -15.88326,-14.15724 -19.3215,-11.2758 -18.84971,-11.13361 -24.15098,-7.27877 l -3.84647,2.79698 3.86232,-3.56799 c 2.34092,-2.16253 4.83568,-3.31346 6.33333,-2.92182 2.95008,0.77147 3.34144,-1.15151 0.45943,-2.25744 -4.25811,-1.63399 -11.42373,3.49804 -15.26088,10.92988 -1.48941,2.88471 -0.99778,3.65716 6.78889,10.66666 4.61702,4.15621 13.19794,11.90674 19.06871,17.22341 12.68152,11.48459 11.21843,11.20068 15.78856,3.06367 13.28599,-23.65543 25.53684,-12.53635 12.95121,11.75474 -10.0004,19.30143 -26.21546,22.34373 -21.2737,3.99141 1.82185,-6.76583 4.23676,-4.3642 -27.38454,-27.2339 -13.93333,-10.0771 -26.53333,-19.66618 -28,-21.30906 -1.46667,-1.64287 -4.16667,-3.3447 -6,-3.78184 -7.89119,-1.88155 -8.74783,-5.2628 -1.33333,-5.2628 2.2,0 4,-0.5 4,-1.11111 0,-2.23953 -9.21016,-1.16604 -10.48628,1.22222 -5.50291,10.29877 -1.62685,15.98104 26.89845,39.43299 23.27972,19.13932 21.57155,18.22704 21.65273,11.56408 0.0357,-2.92978 0.68681,-5.94878 1.44692,-6.70889 0.9538,-0.95381 1.1984,0.83217 0.78941,5.76402 l -0.5926,7.14605 9.14568,6.72097 c 13.31709,9.78644 17.56369,10.3656 24.85984,3.39043 z m -88.60972,-6.64298 c 6.05722,-28.94394 7.17716,-37.57556 5.1397,-39.61302 -1.11611,-1.1161 -2.72416,-4.13476 -3.57344,-6.70813 -1.21599,-3.68446 -6.56732,-7.16328 -6.68456,-4.34552 -0.008,0.18333 -2.3526,12.33333 -5.21104,27 -5.78002,29.65727 -5.74257,30 3.27768,30 h 5.72626 z m 20.2289,3.16884 c 0,-0.27381 1.16694,-5.16753 2.5932,-10.87495 3.04435,-12.18251 2.22808,-14.97398 -6.36997,-21.78376 l -5.19038,-4.11086 -3.5174,17.6337 c -1.93457,9.69853 -3.51696,18.0837 -3.51643,18.6337 5.4e-4,0.55 3.60098,1 8.00098,1 4.4,0 8,-0.22403 8,-0.49783 z m 80.86414,-48.50218 c -0.44756,-4.95 -1.21223,-17.1 -1.69926,-27 -0.48703,-9.9 -1.24837,-20.97451 -1.69186,-24.61003 l -0.80635,-6.61002 -10.66667,-6.34396 -10.66667,-6.34395 -12.66666,0.77742 c -9.22432,0.56615 -13.11961,1.3476 -14.33334,2.87549 -1.38873,1.74819 -1.66666,0.94384 -1.66666,-4.82344 0,-3.80683 0.6,-6.92151 1.33333,-6.92151 0.73333,0 1.33333,0.7 1.33333,1.55556 0,0.85555 0.34425,1.21131 0.76498,0.79057 0.42074,-0.42074 -0.23964,-2.70772 -1.46752,-5.08218 l -2.23252,-4.3172 -14.02213,0.79406 c -7.71217,0.43674 -14.23821,1.01015 -14.50232,1.27426 -0.88117,0.88117 -1.67437,6.91325 -1.79516,13.6516 -0.0692,3.86122 -0.56634,5.96286 -1.18135,4.9942 -2.40691,-3.79097 -17.56398,-0.47987 -17.56398,3.8369 0,4.28736 -2.86825,4.17214 25.62075,1.02921 7.85807,-0.86691 17.45807,-1.27197 21.33333,-0.90014 3.87526,0.37183 12.29592,0.30458 18.71259,-0.14945 7.89983,-0.55898 11.66667,-0.36571 11.66667,0.59858 0,0.78325 3.6,6.69975 8,13.14779 9.05801,13.27418 8.80381,12.73679 5.63253,11.90748 -2.08666,-0.54567 -2.64347,1.32736 -4.6945,15.7915 -2.91217,20.53696 -3.00728,19.29489 1.66242,21.70969 5.38622,2.78532 5.2084,2.95957 5.74756,-5.63243 l 0.48109,-7.66666 0.25212,8.29075 c 0.22972,7.55448 0.57773,8.4674 3.91878,10.27995 5.73099,3.10912 6.06296,2.66815 5.19747,-6.90404 z m -66.46339,-7.12521 c 0.47754,-5.68363 -2.52414,-9.20547 -5.6411,-6.61862 -1.52525,1.26585 -2.20193,1.03161 -3.38024,-1.17008 -1.22154,-2.28246 -1.08382,-2.75275 0.8061,-2.75275 1.92376,0 1.79146,-0.51931 -0.8481,-3.329 -2.55565,-2.72036 -3.08127,-4.60958 -2.87493,-10.33333 0.35474,-9.84014 -8.70831,-21.76314 -17.15515,-22.56867 -6.40316,-0.61064 -6.5211,-1.17549 3.21676,15.40645 3.92689,6.68684 9.69115,17.25788 12.80948,23.49121 3.11832,6.23334 6.34395,11.78259 7.16806,12.33167 3.13446,2.08841 5.4993,0.30174 5.89912,-4.45688 z m 35.25078,-24.87479 11.59594,-11.66666 -5.3511,-7 c -9.14639,-11.96479 -32.51613,-1.71368 -38.44907,16.86563 -1.86816,5.85024 -1.8826,5.78556 1.08152,4.84478 1.60471,-0.50931 5.38087,0.90129 10.33334,3.86007 4.29248,2.56447 8.11702,4.68522 8.49897,4.71277 0.38196,0.0275 5.91264,-5.19992 12.2904,-11.61659 z m 37.02365,-22.30569 c 4.18198,-20.31945 -3.94515,-38.28709 -19.47374,-43.05295 -6.52282,-2.00191 -7.17053,0.58379 -1.95111,7.78898 4.35579,6.01301 8.083,16.54706 8.083,22.84466 0,2.76403 0.85812,4.11726 3.16769,4.99536 2.82767,1.07508 3.27221,2.31973 4.14142,11.5955 1.12542,12.00988 2.96408,10.73848 6.03274,-4.17155 z m -97.34185,-15.71323 c -1.83333,-0.82781 -3.49745,-1.60132 -3.69805,-1.71892 -1.89843,-1.11295 1.9856,-4.72395 4.55319,-4.23313 3.81129,0.72858 4.24316,-1.65814 0.4782,-2.6427 -2.97152,-0.77707 -2.95552,-0.74882 -1.9332,-3.41295 0.47833,-1.2465 1.93867,-1.68099 4.19816,-1.24906 2.38431,0.45579 3.17049,0.18626 2.52118,-0.86433 C 237.60053,156.687 236.26736,156 235.15687,156 c -1.20522,0 -1.83795,-0.94052 -1.56971,-2.33333 0.45964,-2.38675 8.62503,-3.4807 9.95218,-1.33333 0.33992,0.55 6.73365,1 14.2083,1 h 13.59027 l 3.25282,6.13164 3.25283,6.13164 6.97848,-13.79831 c 6.39367,-12.64198 6.7913,-13.94861 4.74488,-15.59189 -1.91957,-1.54143 -1.39005,-1.66272 3.76641,-0.86278 8.05679,1.2499 8.33446,1.71277 5.91493,9.86019 -3.00531,10.11999 -1.62193,9.67946 2.02259,-0.64408 1.76862,-5.00984 2.58216,-9.21872 1.90689,-9.86531 -3.55551,-3.40449 -34.68203,-4.83135 -54.99832,-2.52115 -17.37825,1.97611 -17.4559,2.04378 -11.63791,10.14199 5.86798,8.1678 5.87682,7.85845 -0.20818,7.27936 l -5,-0.47584 -3.02935,11.10727 c -3.788,13.8889 -3.90722,13.12417 2.02935,13.01703 4.81422,-0.0869 4.87615,-0.14616 1.66666,-1.59535 z"
       id="path2"
       sodipodi:nodetypes="sscccccsscccccssccccsssssscccssscccssscssssscssssssssssssssscsssccscsssssssscssssssscsssssssssssssscssssscccccssscssssssssccccccccsssssscssssscssssssssssssssssssssssssssssssssssscccccccccccssscccsssssssssssssssssscssscssscsssssssssssccsscccssccsscssssssscccsssssssscccccsssscssssssssssssssssssscccccssssssssssssssssssssssssssssssssssssssssssscssssssssssssssssscsssssscssssscsscccsssscccssssssssscsssscccssssssssscscsscssscssscssssssssssssssssssscssssscsscsssscssssssscccssssssscsssssssssssssscssssssssssssssscsssssssssssssssssssssssscccssssssssscsss" />
    <text
       xml:space="preserve"
       style="font-size:120.994px;fill:#c60202;stroke-width:1.26036"
       x="192.57436"
       y="510.59537"
       id="text9"><tspan
         sodipodi:role="line"
         id="tspan9"
         x="192.57436"
         y="510.59537"
         style="font-style:normal;font-variant:normal;font-weight:normal;font-stretch:normal;font-size:120.994px;font-family:Army;-inkscape-font-specification:Army;fill:#000000;stroke-width:1.26036">SANTOS</tspan></text>
    <text
       xml:space="preserve"
       style="font-style:normal;font-variant:normal;font-weight:normal;font-stretch:normal;font-size:61.9083px;line-height:0;font-family:Army;-inkscape-font-specification:Army;letter-spacing:-5.29238px;word-spacing:-0.0783227px;fill:#000000;stroke-width:0.644878"
       x="285.66626"
       y="572.5166"
       id="text1"><tspan
         id="tspan1"
         x="285.66626"
         y="572.5166"
         sodipodi:role="line"
         style="font-style:normal;font-variant:normal;font-weight:normal;font-stretch:normal;line-height:0;font-family:CollegiateInsideFLF;-inkscape-font-specification:CollegiateInsideFLF;letter-spacing:-5.29238px;word-spacing:-0.0783227px;fill:#ffffff;stroke-width:0.644878"
         dx="0">concrete</tspan></text>
  </g>
</svg>
