<?xml version="1.0" encoding="UTF-8" standalone="no"?>
<svg
   data-v-6805eed4=""
   version="1.0"
   width="583.75366"
   height="160.1507"
   viewBox="0 0 198.47625 54.451236"
   preserveAspectRatio="xMidYMid"
   color-interpolation-filters="sRGB"
   id="svg21"
   sodipodi:docname="svgexport-15.svg"
   inkscape:export-filename="g19.svg"
   inkscape:export-xdpi="96"
   inkscape:export-ydpi="96"
   inkscape:version="1.3 (0e150ed6c4, 2023-07-21)"
   xmlns:inkscape="http://www.inkscape.org/namespaces/inkscape"
   xmlns:sodipodi="http://sodipodi.sourceforge.net/DTD/sodipodi-0.dtd"
   xmlns="http://www.w3.org/2000/svg"
   xmlns:svg="http://www.w3.org/2000/svg">
  <sodipodi:namedview
     id="namedview21"
     pagecolor="#ffffff"
     bordercolor="#000000"
     borderopacity="0.25"
     inkscape:showpageshadow="2"
     inkscape:pageopacity="0.0"
     inkscape:pagecheckerboard="0"
     inkscape:deskcolor="#d1d1d1"
     inkscape:zoom="1.10568"
     inkscape:cx="292.12793"
     inkscape:cy="80.041243"
     inkscape:window-width="1920"
     inkscape:window-height="1009"
     inkscape:window-x="-8"
     inkscape:window-y="-8"
     inkscape:window-maximized="1"
     inkscape:current-layer="g21" />
  <!---->
  <g
     data-v-6805eed4=""
     fill="#FFFFFF"
     class="iconlinesvg-g iconlinesvg"
     transform="translate(0.20598366)"
     id="g21"
     style="fill:none">
    <path
       d="m 27.59,-32.22 h -4.63 c -1.45,0 -1.91,0.5 -1.91,1.91 v 7.44 c 0,4.63 0.59,6.81 2.05,11.48 h -0.37 c -1.45,-3.45 -1.81,-5.17 -3.81,-8.3 l -7.44,-11.62 c -0.41,-0.63 -0.86,-0.91 -1.91,-0.91 H 4.22 c -1.45,0 -1.95,0.5 -1.95,1.91 v 28.4 C 2.27,-0.5 2.77,0 4.22,0 H 8.8 c 1.45,0 1.95,-0.5 1.95,-1.91 V -9.3 c 0,-5.04 -0.54,-7.35 -1.49,-11.71 h 0.36 c 1.22,4.09 2,6.22 3.99,9.35 L 20.6,-0.91 C 21.01,-0.27 21.51,0 22.46,0 h 5.13 c 1.4,0 1.9,-0.5 1.9,-1.91 v -28.4 c 0,-1.41 -0.5,-1.91 -1.9,-1.91 z"
       transform="translate(63.731283,36.255506)"
       fill="#FFFFFF"
       id="path4"
       style="fill:#ffffff" />
    <path
       d="m 1.27,-22.73 c 0,8.8 7.44,9.75 12.75,10.48 3,0.41 5.31,0.91 5.31,2.68 0,1.95 -1.82,2.58 -4.86,2.58 -2.54,0 -4.31,-0.81 -5.12,-2.4 -0.68,-1.32 -1.32,-1.45 -2.68,-1 L 2.4,-8.85 c -1.31,0.5 -1.72,1.14 -1.22,2.5 1.72,4.72 6.44,7.03 13.2,7.03 8.03,0 14.07,-3.67 14.07,-10.34 0,-8.58 -6.81,-9.85 -12.07,-10.58 -3.27,-0.41 -5.94,-0.81 -5.94,-2.76 0,-1.59 1.22,-2.36 4.31,-2.36 2.08,0 3.72,0.63 4.58,2.36 0.73,1.31 1.22,1.49 2.45,0.95 L 26.32,-24 c 1.36,-0.55 1.72,-1.23 1.09,-2.54 -2.14,-4.36 -5.95,-6.36 -12.66,-6.36 -8.67,0 -13.48,4.18 -13.48,10.17 z"
       transform="translate(-1.1797317,36.255506)"
       fill="#FFFFFF"
       id="path1"
       style="fill:#ffffff" />
    <rect
       x="0"
       height="1"
       y="3.5800004"
       width="51.338131"
       fill="#FFFFFF"
       id="rect17"
       style="fill:#ffffff"
       transform="translate(4.9999994,46.295233)" />
    <rect
       height="1"
       y="3.5800004"
       width="51.338131"
       x="137.13812"
       fill="#FFFFFF"
       id="rect18"
       style="fill:#ffffff"
       transform="translate(4.9999994,46.295233)" />
    <rect
       fill="#FFFFFF"
       fill-opacity="0"
       stroke-width="2px"
       x="0"
       y="0"
       width="40.292412"
       height="40.295235"
       class="image-rect"
       id="rect8"
       style="fill:#ffffff"
       transform="translate(127)" />
    <path
       d="M 24.91,-32.22 H 2.45 c -1.45,0 -1.91,0.5 -1.91,1.91 v 4.08 c 0,1.46 0.46,1.95 1.91,1.95 H 9.21 V -1.91 C 9.21,-0.5 9.66,0 11.12,0 h 5.12 c 1.46,0 1.96,-0.5 1.96,-1.91 v -22.37 h 6.71 c 1.45,0 1.95,-0.49 1.95,-1.95 v -4.08 c 0,-1.41 -0.5,-1.91 -1.95,-1.91 z"
       transform="translate(96.455507,36.255506)"
       fill="#FFFFFF"
       id="path6"
       style="fill:#ffffff" />
    <path
       d="M 31.04,-1.86 20.55,-30.72 c -0.45,-1.18 -1.04,-1.5 -2.35,-1.5 h -5.18 c -1.31,0 -1.9,0.28 -2.36,1.59 L 0.23,-1.86 C -0.23,-0.64 0.05,0 1.45,0 h 4.77 c 2.27,0 2.85,-0.5 3.31,-1.91 l 1.04,-3.26 h 9.8 l 1.05,3.26 C 21.78,-0.5 22.46,0 24.82,0 h 4.9 c 1.36,0 1.77,-0.64 1.32,-1.86 z m -14.39,-15.75 1.68,5.31 h -5.67 l 1.68,-5.35 c 0.91,-3.04 0.86,-6.31 0.86,-6.31 h 0.45 c 0,0 0.09,3.27 1,6.35 z"
       transform="translate(30.974762,36.255506)"
       fill="#FFFFFF"
       id="path2"
       style="fill:#ffffff" />
    <path
       fill="#333333"
       d="M 50,98.748 C 23.076,98.748 1.252,76.924 1.252,50 c 0,-8.528 2.214,-16.953 6.534,-24.378 0.883,-1.552 2.994,-2.104 4.54,-1.221 1.546,0.883 2.104,2.995 1.221,4.54 C 9.89,35.365 7.897,42.569 7.897,49.993 7.896,73.26 26.732,92.097 50,92.097 73.268,92.097 92.104,73.26 92.104,49.993 92.104,26.726 73.267,7.896 50,7.896 c -1.884,0 -3.326,-1.442 -3.326,-3.326 0,-1.884 1.442,-3.325 3.326,-3.325 26.924,0 48.748,21.824 48.748,48.748 0,26.924 -21.823,48.755 -48.748,48.755 z M 83.569,50 C 83.569,31.494 68.506,16.431 50,16.431 c -5.872,0 -11.744,1.553 -16.843,4.54 -1.552,0.884 -2.104,2.995 -1.221,4.54 0.883,1.553 2.994,2.105 4.54,1.222 4.099,-2.325 8.756,-3.657 13.517,-3.657 14.849,0 26.924,12.075 26.924,26.924 C 76.917,64.849 64.849,76.924 50,76.924 35.151,76.924 23.076,64.849 23.076,50 c 0,-1.884 -1.442,-3.326 -3.326,-3.326 -1.884,0 -3.318,1.442 -3.318,3.326 0,18.506 15.07,33.568 33.568,33.568 18.498,0 33.569,-15.061 33.569,-33.568 z M 68.506,50 C 68.506,39.809 60.198,31.494 50,31.494 c -6.534,0 -12.634,3.547 -15.953,9.198 -0.883,1.552 -0.331,3.657 1.222,4.54 1.552,0.883 3.657,0.331 4.54,-1.221 2.104,-3.657 5.982,-5.872 10.191,-5.872 6.534,0 11.854,5.32 11.854,11.854 0,6.534 -5.32,11.861 -11.854,11.861 -4.209,0 -8.087,-2.215 -10.191,-5.872 -0.883,-1.552 -2.995,-2.104 -4.54,-1.221 -1.553,0.883 -2.105,2.995 -1.222,4.54 3.32,5.658 9.419,9.205 15.953,9.205 10.191,0 18.506,-8.315 18.506,-18.506 z"
       id="path8"
       style="overflow:visible;fill:#ffffff"
       transform="matrix(0.41327176,0,0,0.41327176,126.48262,-0.51452486)" />
    <path
       d="m 1.27,-22.73 c 0,8.8 7.44,9.75 12.75,10.48 3,0.41 5.31,0.91 5.31,2.68 0,1.95 -1.82,2.58 -4.86,2.58 -2.54,0 -4.31,-0.81 -5.12,-2.4 -0.68,-1.32 -1.32,-1.45 -2.68,-1 L 2.4,-8.85 c -1.31,0.5 -1.72,1.14 -1.22,2.5 1.72,4.72 6.44,7.03 13.2,7.03 8.03,0 14.07,-3.67 14.07,-10.34 0,-8.58 -6.81,-9.85 -12.07,-10.58 -3.27,-0.41 -5.94,-0.81 -5.94,-2.76 0,-1.59 1.22,-2.36 4.31,-2.36 2.08,0 3.72,0.63 4.58,2.36 0.73,1.31 1.22,1.49 2.45,0.95 L 26.32,-24 c 1.36,-0.55 1.72,-1.23 1.09,-2.54 -2.14,-4.36 -5.95,-6.36 -12.66,-6.36 -8.67,0 -13.48,4.18 -13.48,10.17 z"
       transform="translate(169.82027,36.255506)"
       fill="#FFFFFF"
       id="path14"
       style="fill:#ffffff" />
    <path
       d="m 0.62,-3.94 c 0,0.64 0.09,1.22 0.26,1.73 0.17,0.5 0.41,0.93 0.72,1.28 0.31,0.35 0.67,0.61 1.09,0.8 0.42,0.18 0.88,0.27 1.38,0.27 0.5,0 0.95,-0.1 1.34,-0.3 C 5.8,-0.36 6.16,-0.64 6.47,-1 L 5.9,-1.61 c -0.25,0.28 -0.52,0.5 -0.81,0.65 -0.28,0.15 -0.61,0.23 -1,0.23 -0.37,0 -0.71,-0.08 -1.01,-0.23 C 2.78,-1.11 2.52,-1.33 2.32,-1.61 2.11,-1.89 1.95,-2.23 1.83,-2.62 1.71,-3.02 1.66,-3.46 1.66,-3.96 c 0,-0.49 0.06,-0.93 0.18,-1.32 0.12,-0.39 0.28,-0.73 0.5,-1 0.22,-0.28 0.48,-0.49 0.78,-0.64 0.3,-0.15 0.64,-0.22 1.02,-0.22 0.34,0 0.63,0.07 0.88,0.2 0.25,0.13 0.48,0.31 0.69,0.53 L 6.28,-7.04 C 6.04,-7.3 5.75,-7.53 5.39,-7.72 c -0.36,-0.2 -0.78,-0.3 -1.26,-0.3 -0.51,0 -0.97,0.1 -1.4,0.29 -0.43,0.18 -0.8,0.45 -1.11,0.81 -0.31,0.35 -0.56,0.78 -0.73,1.28 -0.18,0.5 -0.27,1.07 -0.27,1.7 z m 9.87,4.08 c 0.49,0 0.95,-0.09 1.36,-0.28 0.41,-0.2 0.77,-0.47 1.07,-0.83 0.3,-0.35 0.53,-0.78 0.69,-1.29 0.17,-0.51 0.25,-1.08 0.25,-1.71 0,-0.63 -0.08,-1.19 -0.25,-1.69 -0.16,-0.5 -0.39,-0.92 -0.69,-1.27 -0.3,-0.35 -0.66,-0.62 -1.07,-0.8 -0.41,-0.19 -0.87,-0.29 -1.36,-0.29 -0.5,0 -0.95,0.1 -1.36,0.28 -0.42,0.18 -0.77,0.45 -1.07,0.8 -0.29,0.35 -0.52,0.77 -0.69,1.27 -0.16,0.5 -0.24,1.07 -0.24,1.7 0,0.63 0.08,1.2 0.24,1.71 0.17,0.51 0.4,0.94 0.69,1.29 0.3,0.36 0.65,0.63 1.07,0.83 0.41,0.19 0.86,0.28 1.36,0.28 z m 0,-0.87 C 10.14,-0.73 9.82,-0.81 9.53,-0.96 9.25,-1.11 9.01,-1.33 8.8,-1.61 8.6,-1.9 8.44,-2.24 8.33,-2.63 8.22,-3.03 8.16,-3.48 8.16,-3.97 c 0,-0.49 0.06,-0.93 0.17,-1.32 0.11,-0.39 0.27,-0.73 0.47,-1 0.21,-0.27 0.45,-0.48 0.73,-0.63 0.29,-0.15 0.61,-0.22 0.96,-0.22 0.35,0 0.67,0.07 0.95,0.22 0.29,0.15 0.53,0.36 0.73,0.63 0.21,0.27 0.37,0.61 0.48,1 0.11,0.39 0.17,0.83 0.17,1.32 0,0.49 -0.06,0.94 -0.17,1.34 -0.11,0.39 -0.27,0.73 -0.48,1.02 -0.2,0.28 -0.44,0.5 -0.73,0.65 -0.28,0.15 -0.6,0.23 -0.95,0.23 z m 5.06,-7.14 V 0 h 0.95 v -4.12 c 0,-0.41 -0.01,-0.83 -0.04,-1.24 -0.03,-0.41 -0.06,-0.82 -0.09,-1.22 h 0.05 l 0.85,1.62 2.85,4.96 h 1.04 v -7.87 h -0.95 v 4.07 c 0,0.41 0.01,0.83 0.04,1.26 0.03,0.43 0.05,0.84 0.08,1.24 h -0.05 l -0.85,-1.63 -2.85,-4.94 z m 7.79,6.15 -0.6,0.7 c 0.34,0.36 0.75,0.64 1.22,0.85 0.48,0.21 0.99,0.31 1.54,0.31 0.42,0 0.79,-0.05 1.12,-0.17 0.32,-0.12 0.6,-0.28 0.84,-0.48 0.23,-0.2 0.41,-0.44 0.53,-0.71 0.12,-0.28 0.19,-0.57 0.19,-0.88 0,-0.29 -0.05,-0.54 -0.13,-0.76 -0.08,-0.22 -0.2,-0.41 -0.34,-0.58 -0.15,-0.16 -0.32,-0.31 -0.52,-0.43 -0.2,-0.12 -0.41,-0.23 -0.63,-0.33 l -1.12,-0.48 c -0.16,-0.06 -0.32,-0.13 -0.47,-0.21 -0.15,-0.08 -0.29,-0.16 -0.42,-0.26 -0.13,-0.1 -0.23,-0.22 -0.3,-0.35 -0.08,-0.13 -0.12,-0.3 -0.12,-0.49 0,-0.36 0.14,-0.64 0.4,-0.84 0.27,-0.21 0.63,-0.31 1.07,-0.31 0.36,0 0.69,0.07 0.99,0.2 0.29,0.13 0.55,0.31 0.79,0.54 l 0.54,-0.64 c -0.28,-0.29 -0.62,-0.53 -1.02,-0.71 -0.4,-0.18 -0.83,-0.27 -1.3,-0.27 -0.36,0 -0.69,0.06 -0.99,0.16 -0.3,0.1 -0.56,0.25 -0.78,0.44 -0.22,0.19 -0.4,0.41 -0.52,0.66 -0.12,0.26 -0.19,0.54 -0.19,0.83 0,0.29 0.05,0.54 0.15,0.76 0.09,0.22 0.22,0.41 0.37,0.57 0.15,0.16 0.32,0.3 0.52,0.41 0.19,0.11 0.38,0.21 0.56,0.29 l 1.13,0.49 c 0.18,0.09 0.35,0.17 0.51,0.25 0.16,0.08 0.3,0.17 0.42,0.27 0.11,0.1 0.21,0.22 0.27,0.36 0.07,0.14 0.11,0.31 0.11,0.51 0,0.39 -0.15,0.7 -0.44,0.93 -0.28,0.24 -0.69,0.36 -1.21,0.36 -0.41,0 -0.8,-0.09 -1.18,-0.27 -0.38,-0.18 -0.71,-0.42 -0.99,-0.72 z m 7.78,-5.31 V 0 h 1 v -7.03 h 2.38 v -0.84 h -5.76 v 0.84 z m 5.79,2.89 v -2.93 h 1.32 c 0.62,0 1.09,0.11 1.42,0.31 0.33,0.21 0.49,0.58 0.49,1.1 0,0.51 -0.16,0.89 -0.49,1.14 -0.33,0.25 -0.8,0.38 -1.42,0.38 z M 40.24,0 h 1.12 l -1.99,-3.43 c 0.54,-0.14 0.97,-0.39 1.29,-0.76 0.32,-0.37 0.48,-0.86 0.48,-1.47 0,-0.41 -0.07,-0.76 -0.21,-1.04 -0.13,-0.28 -0.32,-0.5 -0.57,-0.68 -0.24,-0.18 -0.53,-0.3 -0.87,-0.38 -0.34,-0.07 -0.71,-0.11 -1.11,-0.11 H 35.92 V 0 h 0.99 v -3.32 h 1.43 z m 2.61,-7.87 v 4.62 c 0,0.63 0.07,1.16 0.22,1.59 0.14,0.44 0.34,0.79 0.59,1.05 0.25,0.27 0.55,0.46 0.9,0.58 0.35,0.12 0.72,0.17 1.12,0.17 0.4,0 0.78,-0.05 1.12,-0.17 0.34,-0.12 0.64,-0.31 0.89,-0.58 0.26,-0.26 0.45,-0.61 0.6,-1.05 0.14,-0.43 0.21,-0.96 0.21,-1.59 v -4.62 h -0.96 v 4.64 c 0,0.47 -0.04,0.87 -0.14,1.19 -0.1,0.32 -0.23,0.58 -0.4,0.77 -0.16,0.19 -0.36,0.33 -0.58,0.41 -0.23,0.09 -0.47,0.13 -0.74,0.13 -0.25,0 -0.49,-0.04 -0.72,-0.13 -0.22,-0.08 -0.41,-0.22 -0.58,-0.41 -0.16,-0.19 -0.29,-0.45 -0.39,-0.77 -0.09,-0.32 -0.14,-0.72 -0.14,-1.19 v -4.64 z m 7.32,3.93 c 0,0.64 0.09,1.22 0.26,1.73 0.17,0.5 0.41,0.93 0.72,1.28 0.31,0.35 0.67,0.61 1.09,0.8 0.42,0.18 0.88,0.27 1.38,0.27 0.5,0 0.95,-0.1 1.34,-0.3 0.39,-0.2 0.74,-0.48 1.06,-0.84 l -0.57,-0.61 c -0.25,0.28 -0.52,0.5 -0.81,0.65 -0.28,0.15 -0.62,0.23 -1,0.23 -0.38,0 -0.71,-0.08 -1.01,-0.23 -0.3,-0.15 -0.56,-0.37 -0.77,-0.65 -0.2,-0.28 -0.37,-0.62 -0.48,-1.01 -0.12,-0.4 -0.18,-0.84 -0.18,-1.34 0,-0.49 0.06,-0.93 0.18,-1.32 0.12,-0.39 0.29,-0.73 0.51,-1 0.21,-0.28 0.47,-0.49 0.78,-0.64 0.3,-0.15 0.64,-0.22 1.02,-0.22 0.33,0 0.63,0.07 0.88,0.2 0.25,0.13 0.48,0.31 0.69,0.53 l 0.56,-0.63 c -0.23,-0.26 -0.52,-0.49 -0.88,-0.68 -0.36,-0.2 -0.78,-0.3 -1.26,-0.3 -0.51,0 -0.97,0.1 -1.4,0.29 -0.43,0.18 -0.8,0.45 -1.11,0.81 -0.31,0.35 -0.56,0.78 -0.73,1.28 -0.18,0.5 -0.27,1.07 -0.27,1.7 z M 58.9,-7.03 V 0 h 1 v -7.03 h 2.38 v -0.84 h -5.76 v 0.84 z m 4.8,-0.84 V 0 h 0.99 v -7.87 z m 6.06,8.01 c 0.49,0 0.95,-0.09 1.36,-0.28 0.41,-0.2 0.77,-0.47 1.07,-0.83 0.3,-0.35 0.53,-0.78 0.69,-1.29 0.17,-0.51 0.25,-1.08 0.25,-1.71 0,-0.63 -0.08,-1.19 -0.25,-1.69 -0.16,-0.5 -0.39,-0.92 -0.69,-1.27 -0.3,-0.35 -0.66,-0.62 -1.07,-0.8 -0.41,-0.19 -0.87,-0.29 -1.36,-0.29 -0.5,0 -0.95,0.1 -1.37,0.28 -0.41,0.18 -0.76,0.45 -1.06,0.8 -0.29,0.35 -0.52,0.77 -0.69,1.27 -0.16,0.5 -0.24,1.07 -0.24,1.7 0,0.63 0.08,1.2 0.24,1.71 0.17,0.51 0.4,0.94 0.69,1.29 0.3,0.36 0.65,0.63 1.06,0.83 0.42,0.19 0.87,0.28 1.37,0.28 z m 0,-0.87 c -0.36,0 -0.67,-0.08 -0.96,-0.23 -0.28,-0.15 -0.53,-0.37 -0.73,-0.65 -0.2,-0.29 -0.36,-0.63 -0.47,-1.02 -0.12,-0.4 -0.17,-0.85 -0.17,-1.34 0,-0.49 0.05,-0.93 0.17,-1.32 0.11,-0.39 0.27,-0.73 0.47,-1 0.2,-0.27 0.45,-0.48 0.73,-0.63 0.29,-0.15 0.6,-0.22 0.96,-0.22 0.35,0 0.67,0.07 0.95,0.22 0.28,0.15 0.53,0.36 0.73,0.63 0.21,0.27 0.36,0.61 0.48,1 0.11,0.39 0.16,0.83 0.16,1.32 0,0.49 -0.05,0.94 -0.16,1.34 -0.12,0.39 -0.27,0.73 -0.48,1.02 -0.2,0.28 -0.45,0.5 -0.73,0.65 -0.28,0.15 -0.6,0.23 -0.95,0.23 z m 5.06,-7.14 V 0 h 0.95 v -4.12 c 0,-0.41 -0.02,-0.83 -0.04,-1.24 -0.03,-0.41 -0.06,-0.82 -0.09,-1.22 h 0.04 l 0.86,1.62 2.85,4.96 h 1.03 v -7.87 h -0.94 v 4.07 c 0,0.41 0.01,0.83 0.04,1.26 0.03,0.43 0.05,0.84 0.08,1.24 H 79.55 L 78.7,-2.93 75.85,-7.87 Z"
       transform="translate(58.714131,54.311236)"
       fill="#FFFFFF"
       id="path18"
       style="fill:#ffffff" />
  </g>
  <defs
     v-gra="od"
     id="defs21" />
</svg>
