<svg width="157" height="55" viewBox="0 0 157 55" fill="none" xmlns="http://www.w3.org/2000/svg">
<path d="M60.7035 14.4C63.0088 14.4 65.0102 14.78 66.7075 15.54C68.4302 16.3 69.7475 17.3893 70.6595 18.808C71.5715 20.2267 72.0275 21.9113 72.0275 23.862C72.0275 25.7873 71.5715 27.472 70.6595 28.916C69.7475 30.3347 68.4302 31.424 66.7075 32.184C65.0102 32.944 63.0088 33.324 60.7035 33.324H54.6995V41H49.7595V14.4H60.7035ZM60.4755 29.144C62.6288 29.144 64.2628 28.688 65.3775 27.776C66.4922 26.864 67.0495 25.5593 67.0495 23.862C67.0495 22.1647 66.4922 20.86 65.3775 19.948C64.2628 19.036 62.6288 18.58 60.4755 18.58H54.6995V29.144H60.4755ZM79.4607 14.4H84.4007V36.82H98.3087V41H79.4607V14.4ZM122.146 34.844H108.846L106.224 41H101.132L113.102 14.4H117.966L129.974 41H124.806L122.146 34.844ZM120.512 30.968L115.496 19.34L110.518 30.968H120.512ZM145.737 31.614V41H140.797V31.69L130.347 14.4H135.629L143.419 27.358L151.285 14.4H156.149L145.737 31.614Z" fill="white"/>
<circle cx="20" cy="27" r="20" fill="white"/>
<path d="M25.9074 25.7637C26.5741 26.1486 26.5741 27.1108 25.9074 27.4957L18.3519 31.8579C17.6852 32.2428 16.8519 31.7617 16.8519 30.9919L16.8519 22.2675C16.8519 21.4977 17.6852 21.0166 18.3519 21.4015L25.9074 25.7637Z" fill="#3056D3"/>
</svg>
