<svg width="157" height="56" viewBox="0 0 157 56" fill="none" xmlns="http://www.w3.org/2000/svg">
<path d="M60.7035 14.5316C63.0088 14.5316 65.0102 14.9116 66.7075 15.6716C68.4302 16.4316 69.7475 17.5209 70.6595 18.9396C71.5715 20.3583 72.0275 22.0429 72.0275 23.9936C72.0275 25.9189 71.5715 27.6036 70.6595 29.0476C69.7475 30.4663 68.4302 31.5556 66.7075 32.3156C65.0102 33.0756 63.0088 33.4556 60.7035 33.4556H54.6995V41.1316H49.7595V14.5316H60.7035ZM60.4755 29.2756C62.6288 29.2756 64.2628 28.8196 65.3775 27.9076C66.4922 26.9956 67.0495 25.6909 67.0495 23.9936C67.0495 22.2963 66.4922 20.9916 65.3775 20.0796C64.2628 19.1676 62.6288 18.7116 60.4755 18.7116H54.6995V29.2756H60.4755ZM79.4607 14.5316H84.4007V36.9516H98.3087V41.1316H79.4607V14.5316ZM122.146 34.9756H108.846L106.224 41.1316H101.132L113.102 14.5316H117.966L129.974 41.1316H124.806L122.146 34.9756ZM120.512 31.0996L115.496 19.4716L110.518 31.0996H120.512ZM145.737 31.7456V41.1316H140.797V31.8216L130.347 14.5316H135.629L143.419 27.4896L151.285 14.5316H156.149L145.737 31.7456Z" fill="#3056D3"/>
<circle cx="20" cy="27.1316" r="20" fill="#3056D3"/>
<path d="M25.9075 25.8952C26.5741 26.2801 26.5741 27.2423 25.9075 27.6272L18.3519 31.9894C17.6852 32.3743 16.8519 31.8932 16.8519 31.1234L16.8519 22.399C16.8519 21.6292 17.6852 21.1481 18.3519 21.533L25.9075 25.8952Z" fill="white"/>
</svg>
