<?xml version="1.0" encoding="utf-8"?>
<!-- Generator: Adobe Illustrator 19.2.1, SVG Export Plug-In . SVG Version: 6.00 Build 0)  -->
<svg version="1.1" id="layer" xmlns="http://www.w3.org/2000/svg" xmlns:xlink="http://www.w3.org/1999/xlink" x="0px" y="0px"
	 viewBox="0 0 652 652" style="enable-background:new 0 0 652 652;" xml:space="preserve">
<style type="text/css">
	.st0{fill:#00703C;}
	.st1{fill:#FDBB30;}
</style>
<g>
	<path class="st0" d="M240.9,272.9l-32.2,93.1L188,331.6c5-1.7,9.1-4.6,12.1-8.7c3.7-5,5.5-11.6,5.5-19.3c0-10.3-2.9-18.4-9.1-23.6
		c-6.2-5.1-15-7.2-26.5-7.3h-46.7v99h26.2v-39.5h12l22.3,39.5h28.4l0,0h22.6l5.9-21.3h31.6l6.3,21.3h28.1L273,272.9H240.9z
		 M179.7,307.5c-0.7,1.6-1.9,2.6-4.3,3.4c-2.3,0.8-5.8,1.1-10.1,1.1h-15.7v-15.8h15.7c5.8,0,9.9,0.6,12.1,1.9
		c1.1,0.7,1.8,1.4,2.3,2.4c0.5,1,0.8,1.1,0.8,3.3C180.5,306,180.2,306.5,179.7,307.5 M245.8,332l10.9-34.2h0.2l10,34.2H245.8z
		 M398.4,371.7h26.2v-98.8h-26.2V371.7z M430.1,296.3H459v75.5h26.2v-75.5h28.9v-23.4h-84V296.3z M598.3,296.3v-23.4h-78.8v98.8
		h78.8v-21.3h-52.6V332h48.3V312h-48.3v-15.8H598.3z M376.7,272.9c-0.7-0.1-1.3-0.1-2-0.1h-67.5v99h26.2v-75.6h25.7
		c4.7,0,8.5,5.6,8.5,12.5v63.1h25.9v-75.6c0-6.1-1.8-11.7-4.8-15.8C385.7,276.1,381.4,273.4,376.7,272.9 M76.9,309.1v23h12.9v16.6
		H69.2c-8,0-12.8-2.2-16-6.3c-3-4-4.7-10.5-4.8-20c0.1-9.5,1.7-16,4.8-20c3.1-4.1,8-6.3,16-6.3l23.3,0l25.1-23.3H68.3
		c-11.6,0-21.7,0.9-31.9,9.1c-10.9,8.6-16.2,22.4-16.2,40.4h0c0,0,0,0.1,0,0.1c0,0,0,0.1,0,0.1h0c0,18,5.3,31.9,16.2,40.4
		c10.3,8.3,20.5,8.8,32.3,8.8h49.2c-0.6-19.8-5.5-33.6-13.5-43.6C97.4,319.5,88,313.6,76.9,309.1"/>
	<path class="st1" d="M107.5,325.1c4.4,5.5,7.9,12.1,10.4,20v-35.3c-0.2-3.1-1.7-5.4-3.5-5.4l-37.2,0
		C89.2,308.9,99.7,315.3,107.5,325.1"/>
</g>
<polygon class="st0" points="611.1,274.5 607.9,274.5 607.9,283.1 606.7,283.1 606.7,274.5 603.5,274.5 603.5,273.3 611.1,273.3 "/>
<polygon class="st0" points="620.2,283.1 619,283.1 619,274.7 616.5,280.4 615.8,280.4 613.4,274.7 613.4,283.1 612.3,283.1 
	612.3,273.3 613.9,273.3 616.2,278.7 618.5,273.3 620.2,273.3 "/>
</svg>
