<svg xmlns="http://www.w3.org/2000/svg" width="2500" height="2500" viewBox="0 0 192.756 192.756"><g fill-rule="evenodd" clip-rule="evenodd"><path fill="#fff" d="M0 0h192.756v192.756H0V0z"/><path d="M77.091 71.016H61.302l-9.355 51.454h18.16l9.355-51.454h-2.371zM96.138 100.673h7.915l2.191-12.048h-7.916l1.012-5.562h7.914l2.193-12.047H83.369l-9.355 51.454h26.076l2.191-12.048h-7.917l1.774-9.749zM179.646 71.016h-46.543l-1.658 9.123-1.105-9.123h-17.506l-9.355 51.454h16.361s1.152-6.33 1.959-10.775l1.307 10.775h17.006l8.635-47.5 9.35 4.639c-1.053 3.038-14.83 42.86-14.83 42.86h17.84l2.566-9.235h1.48l-.426 9.235h16.898V71.016h-1.979zM52.542 98.428a8.967 8.967 0 0 0-1.372-4.817h2.464l2.049-11.768c.199-1.184.291-2.167.291-3.105 0-2.431-.653-4.437-1.942-5.96-2.455-2.904-6.377-3.295-9.891-3.295H8.504l16.938 8.155a11.59 11.59 0 0 0-.296 1.155l-1.862 10.239a12.04 12.04 0 0 0-.202 2.142c0 1.624.393 3.072 1.126 4.337h-2.102l-2.076 11.414c-.419 2.309-.623 4.225-.623 5.859 0 2.901.667 5.112 2.042 6.758 2.443 2.928 6.274 2.928 7.533 2.928h9.987c6.304 0 9.907-2.961 11.015-9.051l2.387-13.129c.114-.627.171-1.254.171-1.862z"/><path fill="#e8c157" d="M74.72 72.995H62.953l-8.635 47.495h14.138l8.635-47.495H74.72zM144.723 72.995h-9.967l-3.701 20.359-2.469-20.359h-14.1l-8.637 47.495h12.34l4.002-22.013 2.668 22.013h13.6l8.635-47.495h-2.371zM104.703 72.995H85.021l-8.636 47.495h22.054l1.471-8.089h-7.917l2.493-13.708h7.914l1.473-8.089h-7.916l1.73-9.521h7.916l1.471-8.089h-2.371v.001zM177.666 72.995h-28.447l11.316 5.616c-1.051 3.032-14.492 41.879-14.492 41.879h13.559s1.992-7.175 2.566-9.235h5.057c-.113 2.493-.426 9.235-.426 9.235h12.848V72.995h-1.981zm-9.432 16.422c-.309 6.679-.564 12.234-.654 14.143h-3.273c.685-2.471 2.121-7.641 3.927-14.143zM25.847 71.462h-8.671s9.318 4.487 10.746 5.173a9.856 9.856 0 0 0-.829 2.512l-1.862 10.24c-.113.624-.17 1.22-.17 1.787 0 2.757 1.344 4.824 4.009 6.156l.317.159h-5.628l-1.78 9.79c-.392 2.158-.591 3.972-.591 5.505 0 2.475.52 4.216 1.582 5.489 1.658 1.987 4.227 2.217 6.014 2.217h9.987c5.337 0 8.134-2.29 9.067-7.426l2.387-13.128c.096-.525.14-1.029.14-1.509 0-3.203-1.985-5.381-4.044-6.41l-.804-.386h6.256l1.763-10.128c.138-.818.262-1.774.262-2.766 0-1.619-.331-3.331-1.474-4.683-1.933-2.285-5.321-2.593-8.38-2.593H25.847v.001z"/><path fill="#3e8978" d="M66.804 118.512l7.916-43.538H64.605l-7.916 43.538h10.115zM136.406 74.974l-5.744 31.597-3.83-31.597h-10.695l-7.914 43.538h8.314l6.045-33.25 4.031 33.25h10.194l7.916-43.538h-8.317zM103.953 79.105l.75-4.131h-18.03l-7.917 43.538h18.032l.751-4.132h-7.916l3.211-17.665h7.916l.752-4.132h-7.917l2.451-13.478h7.917zM157.656 74.974l5.316 2.639-14.15 40.899h9.275l2.564-9.235h8.637l-.428 9.235h8.795V74.974h-20.009zm4.045 30.564l7.209-25.947h1.76l-1.199 25.947h-7.77zM25.847 73.44h18.294c6.439 0 8.65 1.742 7.642 7.735-.508 3.015-1.476 8.477-1.476 8.477h-10.14l1.356-7.456c.315-1.734-.276-2.317-.929-2.317s-1.346.314-1.623 1.834l-1.088 5.989c-.278 1.526-.462 2.164 1.498 3.097 1.96.934 4.76 2.241 6.253 2.987 1.493.747 3.435 2.535 2.842 5.795l-2.387 13.129c-.743 4.086-2.679 5.801-7.12 5.801h-9.987c-4.798 0-6.651-2.109-5.058-10.878l1.485-8.166h10.334L33.846 109.9c-.285 1.565.4 2.273 1.054 2.273s1.209-.206 1.564-2.158c.355-1.953 1.35-7.424 1.612-8.873.264-1.448-.097-1.662-1.87-2.502-1.773-.841-4.387-2.146-6.254-3.08-1.867-.934-3.395-2.417-2.776-5.82l1.862-10.239c.283-1.558 1.101-3.074 1.848-3.634l-5.039-2.427z"/><path d="M73.929 75.634l-7.676 42.218h-8.774l7.676-42.218h8.774zM143.932 75.634c-.268 1.481-7.486 41.181-7.676 42.218h-9.059l-3.959-32.669-1.305-.039-5.947 32.708h-6.975l7.676-42.218h9.561l3.76 31.017 1.305.039 5.646-31.056h6.973zM103.912 75.634c-.154.859-.395 2.171-.512 2.812h-7.915l-2.69 14.797h7.916l-.512 2.812h-7.915l-3.452 18.984h7.916l-.512 2.812H79.547l7.676-42.218 16.689.001zM177.008 75.634v42.218h-7.445c.053-1.182.426-9.235.426-9.235h-9.826s-2.324 8.368-2.566 9.235h-7.846c.578-1.677 14.037-40.572 14.037-40.572l-3.318-1.646h16.538zm-6.338 3.298h-2.26l-7.576 27.266h9.268l1.26-27.266h-.692zM44.141 74.101c3.432 0 5.396.511 6.365 1.658.569.673.85 1.635.85 2.957 0 .684-.076 1.464-.225 2.351l-1.38 7.927h-8.793l1.214-6.678a5.65 5.65 0 0 0 .097-.988c0-.659-.156-1.179-.467-1.551a1.545 1.545 0 0 0-1.208-.555c-.839 0-1.914.412-2.271 2.375l-1.113 6.127c-.299 1.629-.359 2.603 1.888 3.673l1.881.891 4.361 2.09c.94.47 3.066 1.907 2.488 5.087l-2.384 13.113c-.7 3.848-2.454 5.273-6.474 5.273h-9.987c-2.025 0-3.256-.392-3.988-1.269-.646-.775-.968-2.02-.968-3.811 0-1.353.183-3.015.548-5.021l1.386-7.623h8.994l-1.755 9.654a4.567 4.567 0 0 0-.078.811c0 .812.264 1.325.52 1.632.323.387.782.608 1.261.608 1.223 0 1.864-.782 2.213-2.7l1.613-8.872c.054-.299.081-.562.081-.795 0-1.323-.847-1.726-2.318-2.422-1.777-.842-4.463-2.185-6.24-3.073-1.347-.674-2.553-1.613-2.553-3.779 0-.401.041-.843.13-1.333l1.862-10.239c.267-1.47 1.021-2.794 1.594-3.224l.869-.651-3.414-1.643h15.401z" fill="#fff"/></g></svg>