<svg xmlns="http://www.w3.org/2000/svg" width="2500" height="2500" viewBox="0 0 192.756 192.756"><path fill-rule="evenodd" clip-rule="evenodd" fill="#fff" d="M0 0h192.756v192.756H0V0z"/><path d="M15.727 44.657s6.431 1.262 7.83 2.662c1.399 1.399 5.535 3.002 4.562 5.459-.973 2.458-2.288 3.461.861 4.86s4.958 2.673 6.822 2.274c1.864-.399 4.373.524 5.947 1.049 1.574.525-.438-3.547 1.574-4.198s-2.624-4.023-2.624-4.023-17.39-12.792-19.451-11.432c-2.06 1.36-5.521 3.349-5.521 3.349z" fill-rule="evenodd" clip-rule="evenodd" fill="#dedad9"/><path d="M26.523 63.283c-.399 2.094-18.445 33.4-19.043 34.695-.598 1.297.897 4.289 3.49 5.186s3.888 1.098 5.185.398c1.296-.697 10.07-31.106 11.067-34.497.996-3.389-.699-5.782-.699-5.782z" fill-rule="evenodd" clip-rule="evenodd" fill="#93705c"/><path d="M30.013 48.228c.897.698 14.457 7.278 15.354 6.88.897-.399.656-2.575-.17-2.933-3.602-1.56-11.179-10.223-14.586-4.545-.299.498-.598.598-.598.598z" fill-rule="evenodd" clip-rule="evenodd" fill="#f2cc63"/><path d="M158.629 122.705c2.891-.1 12.258 7.48 13.059 10.67s1.1 3.289 2.295 3.189c1.197-.1 7.678-13.76 1.596-15.453-6.082-1.695-9.271-2.693-10.469-4.588-1.195-1.895-6.77 2.969-7.023 4.377-.255 1.407.542 1.805.542 1.805z" fill-rule="evenodd" clip-rule="evenodd" fill="#486a9d"/><path d="M180.264 98.777c1.895.996 6.381 1.195 6.582-1.695.199-2.891 1.396-3.705 2.193-2.393.795 1.312-6.58 18.047-11.367 20.34-4.785 2.293-2.094 3.789-1.994 4.287s-5.834.199-6.207-1.695-.473-3.191 1.223-4.088 2.492-2.592 2.592-5.684c.099-3.089 6.978-9.072 6.978-9.072z" fill-rule="evenodd" clip-rule="evenodd" fill="#c5b8a9"/><path d="M157.836 124.049s-11.652 16.738-9.908 19.242c1.744 2.506 1.264-.469 2.619-1.037s-1.438 2.486-.15 3.408 2.074-1.746 2.074-1.746-1.355 3.148 0 2.887 2.93-2.756 3.148-1.312-2.58 4.418.176 3.148c2.754-1.268 3.455 1.75 4.504 1.27 1.049-.482 6.473-3.5 8.703-7.609 2.229-4.111 2.666-5.947 1.967-7.74s-12.682-12.463-13.119-11.502c-.438.962-.014.991-.014.991z" fill-rule="evenodd" clip-rule="evenodd" fill="#edebdb"/><path d="M48.133 55.073l-2.537 2.157s-1.545 4.111-.962 5.86 0 1.836 1.049 2.682c1.05.846 1.749 1.37 2.711 1.778.962.408.729 1.545 2.361.554 1.632-.991 4.694-8.483 4.373-10.028-.32-1.545.525-2.74-.845-3.236-1.369-.496-6.15.233-6.15.233z" fill-rule="evenodd" clip-rule="evenodd" fill="#dedad9"/><path d="M27.922 41.882a2.96 2.96 0 0 0-.162-.042l-5.763-.798a4.65 4.65 0 0 1-.167-.003l-.582.27a.464.464 0 0 0-.159.039l-1.301.42c-.043.017-.11.049-.149.073l-.372.374a.107.107 0 0 0-.009.129l-.07.324a.08.08 0 0 1-.063.096l-1.464.075a7.56 7.56 0 0 1-.161.045l-1.686.526a4.957 4.957 0 0 0-.156.059l-1.644.368a.628.628 0 0 0-.135.094l-.224.154a.756.756 0 0 1-.165.015l-.378.064a.157.157 0 0 0-.085.116l-.021.498a.076.076 0 0 0 .105.042l.269.202c.044-.012.062.012.04.052l-.173.367c.002.046.015.12.029.164l.382.286c.026.037.061.032.075-.011l.643-.483a.192.192 0 0 1 .115-.096l1.995-.106c.046.005.12.016.165.024l1.646.317a.73.73 0 0 1 .15.069l.664.144.157.057 1.528.564c.044.011.115.035.157.054l4.864 2.723c.04.023.084.078.099.122l.579.667c.032.033.089.08.128.104l.392 1.156c.019.042.06.104.092.136l.48.391c.044.013.09.011.102-.003.012-.015.06-.001.08.04l.351 1.016a.223.223 0 0 1 0 .153v.648a.15.15 0 0 0 .074.122l.34.037a.114.114 0 0 0 .099-.087l.127-.627a4.194 4.194 0 0 1-.054-.158l-.583-1.193a.625.625 0 0 1-.05-.157l-.279-.857a.443.443 0 0 0-.062-.151l-1.381-1.377a1.072 1.072 0 0 0-.125-.109l-.32-.335a1.458 1.458 0 0 0-.141-.089l-4.948-2.622c-.042-.019-.08-.026-.084-.018-.004.008-.042.004-.086-.01l-4.92-1.29a.57.57 0 0 0-.165-.006l-.173.047c-.046.001-.085-.012-.087-.027-.002-.017-.042-.031-.088-.034l-.623.154a1.566 1.566 0 0 0-.164.029l-.183-.011a1.004 1.004 0 0 1-.13.104l-.312-.041c-.042.02-.064 0-.05-.044l.069-.26a.61.61 0 0 1 .108-.124l.559-.216a.212.212 0 0 1 .15.025l.83-.146a.447.447 0 0 0 .157-.043l1.915-.723a7.66 7.66 0 0 0 .162-.042l.989-.08c.045-.008.12-.013.166-.012l1.42.078a.235.235 0 0 1 .137.072l.202.248c.043.016.114.04.158.053l2.151.641a.23.23 0 0 0 .152-.023l.134-.335a.158.158 0 0 0 .002-.145l-.057-.103c-.022-.04-.005-.063.04-.052l3.988 1.205.153.066.686.768a.423.423 0 0 0 .137.088l.327-.065a.122.122 0 0 0 .118-.064l.147-.313a.112.112 0 0 0-.029-.128l-.763-.405a.435.435 0 0 1-.141-.082l-.396-.179a1.833 1.833 0 0 1-.161-.045l-2.985-1.122a.817.817 0 0 1-.153-.062l-.75-.037a1.723 1.723 0 0 0-.156-.059l-1.265-.199-.166-.021-1.068-.154a.13.13 0 0 1-.101-.093l-.003-.497a.299.299 0 0 1 .085-.133l.536-.212a.6.6 0 0 1 .156-.054l1.766-.354c.046-.002.121.001.166.007l5.215 1.018a.786.786 0 0 1 .152.066l2.384 1.35c.036.028.092.079.125.111l.832.858a.628.628 0 0 1 .094.135l.039.083c.019.042-.002.07-.047.063l-.679.037c-.045.01-.063.05-.04.09l.097.202a.276.276 0 0 0 .127.094l.923.539c.031.035.019.055-.026.046L31.344 46a.998.998 0 0 0-.163-.031l-.37.035a.603.603 0 0 0-.164-.018l-.633.016a.554.554 0 0 0-.159.04l-.137.158c-.022.041-.002.073.044.073l2.887.688c.045.01.115.036.155.057l.594.054c.045-.008.12-.015.166-.014l.748-.213c.042.02.112.046.156.059l3.546 1.249c.042.018.108.053.147.078l2.691 1.159a.435.435 0 0 1 .122.108l.002.002a.43.43 0 0 0 .123.106l4.098 2.567c.037.027.09.08.117.116l.872 1.269a.934.934 0 0 1 .073.149l.105.17a.386.386 0 0 0 .011.162l.283.816a.219.219 0 0 1-.029.15l-.736.842a.097.097 0 0 1-.111.057l-.445.207a.673.673 0 0 0-.161-.037l-.693-.211a4.78 4.78 0 0 0-.162-.04l-.354.01a.596.596 0 0 0-.149-.07l-3.72-1.116a7.248 7.248 0 0 0-.157-.056l-2.083-.78a.935.935 0 0 1-.148-.075l-.435-.204c-.044-.014-.091-.001-.104.027s.009.068.051.087l8.109 2.829a.071.071 0 0 1 .046.1l-.41.63a.824.824 0 0 0-.079.146l-1.14 2.921a.213.213 0 0 1-.1.115l-.348.263a.166.166 0 0 1-.139.045l-2.549-.535a.456.456 0 0 1-.135-.09l-.395-.182c-.04-.023-.075-.035-.079-.027-.004.008-.039-.005-.078-.03l-2.104-1.008a.553.553 0 0 1-.125-.106l-.283-.232a.379.379 0 0 1-.115-.114l-1.197-1.721a4.179 4.179 0 0 0-.085-.144l-.222-.828a.646.646 0 0 1-.02-.164l-.099-.877a.11.11 0 0 0-.056-.117l-.313-.148a.227.227 0 0 0-.154-.007l-.133.227a.164.164 0 0 0-.048.138l.445 1.418c.012.044.04.113.062.153l.815 1.475c.027.037.048.096.047.131s-.037.047-.079.028l-.876-.469a.692.692 0 0 0-.146-.08l-.439-.349a.931.931 0 0 0-.152-.066l-.142.029c-.041.022-.046.065-.012.097l.564.596c.043.015.113.041.156.059l1.665 1.007a.1.1 0 0 1 .051.115l-.271.567a.275.275 0 0 1-.12.099c-.042.015-.086-.07-.076-.09s.005-.064-.01-.096-.096-.114-.141-.12l-.405-.07-.152.067-1.412.225a.341.341 0 0 1-.158-.028l-.963-.36a.103.103 0 0 1-.053-.116l.02-.12c.026-.038.011-.077-.034-.086l-2.698-1.073a.974.974 0 0 1-.143-.084l-.897-.434a.413.413 0 0 0-.144-.075l-.249-.289a2.595 2.595 0 0 1-.14-.092l-1.082-1.069a.116.116 0 0 1 .008-.133l-.036-1.154c.014-.044-.001-.053-.034-.02l-.595.914a.216.216 0 0 0 .016.152l-.016.11a.232.232 0 0 0 .052.145l2.605 2.287c.041.021.108.054.15.072l4.342 1.926c.043.017.059.062.035.102l.007.296a.263.263 0 0 1-.1.121l-.36.209a.204.204 0 0 0-.087.124l-.038.898c-.022.04-.052.108-.066.152l-.985 1.027a.134.134 0 0 1-.139.011l-1.616-.851a.715.715 0 0 0-.131-.101l-.707-.519a.613.613 0 0 1-.143-.081l-.184-.081c-.044-.012-.056.007-.025.041l.972 1.105a2.2 2.2 0 0 0 .125.111l1.409.938a.079.079 0 0 1 .019.113l-.427.883a.562.562 0 0 0-.083.142l-.564 1.087a.205.205 0 0 1-.107.106l-.275.057a.228.228 0 0 1-.128-.084l-.232-.489a.561.561 0 0 1-.021-.163l-.057-.32a.111.111 0 0 0-.116-.062l-.287.137a.184.184 0 0 0-.075.128l-.321 1.028a.238.238 0 0 0 .028.152l.136.103a.255.255 0 0 0 .149-.046l.213-.107a.149.149 0 0 1 .142.004l.729.328a.21.21 0 0 0 .142-.053l.842-.998c.02-.042.026-.101.016-.131s-.003-.088.019-.129l.339-.442c.017-.043.037-.046.044-.008.007.038.137.087.162.048l.255-.098a.978.978 0 0 0 .056-.157l.65-.865a5.64 5.64 0 0 0 .06-.156l.027-.374a2.38 2.38 0 0 1 .033-.164l.941-2.193a.124.124 0 0 1 .104-.086l1.176-.229a.905.905 0 0 0 .161-.041l1.215-.634a.648.648 0 0 0 .116-.118l.323-.087a.127.127 0 0 1 .109.083l.214.155c.035.03.085.024.113-.013l.27-.186a.103.103 0 0 1 .125-.029l4.218 1.648a.364.364 0 0 0 .161.007l.962.08a.082.082 0 0 0 .076-.089l.371-.383a1.022 1.022 0 0 1-.011-.166l.145-1.018c.022-.04.06-.097.083-.126.024-.029-.003-.189.016-.231l.854-1.92c.019-.042.056-.107.082-.145l1.129-.922a.27.27 0 0 0 .079-.135l1.06-.82c.024-.039.067-.043.097-.008l.976.157c.04.023.067.005.06-.04l-.115-.739a.284.284 0 0 0-.146-.059l-.622-.012a.393.393 0 0 0-.157-.041l-.446.108a.098.098 0 0 1-.083-.094l-.399-.557a.456.456 0 0 0-.052-.156l-.237-.545a.604.604 0 0 1-.102-.129l-.094-.271a1.445 1.445 0 0 1-.112-.123l-1.268-1.411a2.212 2.212 0 0 0-.133-.101l-1.042-.86a.515.515 0 0 0-.147-.072l-.264-.194a.182.182 0 0 0-.137-.057l-.25-.044a.56.56 0 0 0-.139-.087l-.837-.435c-.041-.021-.078-.031-.082-.023s-.04-.004-.079-.027l-1.302-.769a4.157 4.157 0 0 0-.152-.069l-1.795-.846a1.284 1.284 0 0 1-.142-.087l-.697-.076a4.183 4.183 0 0 0-.14-.091l-1.12-.573a2.056 2.056 0 0 1-.146-.079l-.715-.151a1.525 1.525 0 0 0-.159-.048l-.465-.227a.668.668 0 0 1-.157-.05l-1.104.193c-.046 0-.115.005-.154.012a.168.168 0 0 1-.129-.046l-.556-1.048a.522.522 0 0 1-.103-.127l-.068-.254-.114-.122-2.625-2.286a1.288 1.288 0 0 0-.144-.084l-.79-.418a2.943 2.943 0 0 1-.155-.062l-1.057-.293zM52.887 54.521c.024.039.082.07.127.069l.76.375a.422.422 0 0 1 .162.018l.762.533a.138.138 0 0 1 .115.08l.343 1.022c0 .046-.001.121-.003.167l.145.772c-.008.045.004.049.026.01l.302-.375c.033-.032.205-.11.247-.125a.15.15 0 0 1 .138.029l.362.511a.25.25 0 0 1-.017.155l-.411.884a.941.941 0 0 0-.058.156l-.928 2.856a6.996 6.996 0 0 1-.068.152l-1.444 3.344a.257.257 0 0 1-.086.098.286.286 0 0 0-.09.095l-1.259 1.951a1.284 1.284 0 0 0-.087.142l-.394.327c-.025.039-.068.1-.096.137l-.883.853a1.638 1.638 0 0 1-.125.11l-.383.049a.284.284 0 0 1-.155-.024l-1.081-.727a.133.133 0 0 0-.125-.058l-.821-.282a.233.233 0 0 1-.154-.013l-1.517-1.232a1.176 1.176 0 0 1-.114-.219 1.42 1.42 0 0 0-.038-.149l-.185-.739a2.253 2.253 0 0 1-.044-.161l.021-1.058c.003-.046.03-.072.058-.059a.393.393 0 0 1 .106.088l-.106.136a.418.418 0 0 1 .083.139l.063.473c.009.045.029.117.043.161l.444 1.119a.343.343 0 0 0 .089.133l1.606.756a.1.1 0 0 0 .109-.064l.044-.461a.508.508 0 0 1 .039-.159l-.003-.39a.55.55 0 0 1 .042-.159l.133-.283c.02-.042.053-.108.075-.149l.151-.879a1.08 1.08 0 0 0 .06-.155l.594-1.478c.015-.043.042-.113.06-.156l.048-.58a.48.48 0 0 0 .051-.155l.22-.128a.278.278 0 0 0-.014-.109c-.009-.014-.002-.061.014-.104l.634-1.585a1 1 0 0 0 .041-.161l.327-.635c.02-.042.05-.11.068-.153l.141-.359a.605.605 0 0 0 .097-.133l1.145-1.912c.024-.04.067-.101.095-.137l.686-.91a.101.101 0 0 0 .012-.127l-.769-.609a1.083 1.083 0 0 1-.124-.11l-.095-.021a.351.351 0 0 1-.161.012l-.15-.112-.163.037-.531.042a.92.92 0 0 1-.166.01l-.467.138a.806.806 0 0 0-.162.035l-.56.283a1.303 1.303 0 0 0-.119.116l-.603 1.112c-.03.035-.074.095-.099.134l-.295.265a.525.525 0 0 0-.01.163l-.077.649a.125.125 0 0 1-.027.133l-1.359 1.78c-.025.039-.158.16-.153.203s-.007.111-.026.153l-.486 1.032c-.02.042-.051.041-.07 0l-.156-.221a.596.596 0 0 1 .036-.161l1.035-2.274c.021-.041.056-.107.076-.149l.749-.964c.026-.038.063-.103.083-.144l.874-1.856c.02-.042.057-.106.083-.144l.287-.214c.027-.037.042-.079.034-.093-.008-.015-.001-.061.016-.103l.249-.064a.311.311 0 0 1 .115-.11l.894-.447a.52.52 0 0 1 .162-.028l.938.009c.044-.012.118-.017.164-.012l.487.342a.45.45 0 0 1 .153.057l.194-.027zm-.522 3.099c-.027.037-.07.099-.095.138l-1.129 2.048c-.022.04-.03.077-.018.083.013.006.004.043-.019.083l-.336 1.066a.294.294 0 0 1-.103.121l-.039.091a.756.756 0 0 0-.094.137l-.202.598c-.021.042-.05.11-.063.154l-.652 1.65a7.312 7.312 0 0 0-.053.158l-.25 1.108a4.153 4.153 0 0 1-.061.155l-.2 1.134-.022.166.099.68c.016.043.038.115.049.159l.144.344c.022.041.063.103.092.14l.584.255a.219.219 0 0 0 .15.029l.524-.31a.682.682 0 0 0 .117-.117l.235-.072a.81.81 0 0 1 .089-.14l1.774-2.441c.025-.039.063-.104.086-.143l1.492-3.376a.3.3 0 0 0 .02-.157l-.174-.321a.209.209 0 0 1 .088-.123l.228-.402a.153.153 0 0 0 .073-.123l-.004-.742a.81.81 0 0 0 .037-.162l-.019-.811-.008-.167.091-.672a1.556 1.556 0 0 0-.017-.166l-.095-.987a2.43 2.43 0 0 0-.021-.166l-.53-.448A.128.128 0 0 0 54 56.04l-.755.428a1.446 1.446 0 0 0-.125.11l-.755 1.042z" fill-rule="evenodd" clip-rule="evenodd"/><path d="M32.726 47.457c-.041-.021-.07-.045-.067-.053.004-.008-.029-.026-.073-.04l-1.515-.511a1.002 1.002 0 0 0-.159-.048l-.686-.102a.904.904 0 0 0-.163-.032l-.49.14a.13.13 0 0 0-.065.121l-.021.878a.464.464 0 0 0 .102.127l.915.863c.035.029.097.073.135.098l7.693 4.176c.041.021.079.001.085-.044l.06-.252a.202.202 0 0 0-.097-.116l-.847-.419a.915.915 0 0 1-.157-.055l-5.844-3.128a.704.704 0 0 0-.153-.063l-.265-.265a.265.265 0 0 1-.142-.067l-.918-.883a.188.188 0 0 1-.019-.148l.049-.141c.015-.043.016-.089.001-.101-.014-.012.008-.073.05-.09l.229-.142c.045.005.12.004.166-.001l.204.084a.255.255 0 0 1 .157-.006l4.01 1.467a.32.32 0 0 0 .147.019.278.278 0 0 1 .145.024l1.66.746c.042.018.054.003.026-.033l-.202-.33a23.95 23.95 0 0 0-.154-.065l-3.107-1.326a2.094 2.094 0 0 0-.157-.057l-.533-.225zM41.352 51.594c-.044-.013-.052.001-.018.032l.686.885a.344.344 0 0 1 .143.074l.078.494a.15.15 0 0 0 .077.119l.104.137a.254.254 0 0 0 .149-.045l.293-.493a.155.155 0 0 0-.031-.141l-.611-.665a2.189 2.189 0 0 1-.118-.118l-.752-.279zM50.345 56.98a2.215 2.215 0 0 0-.098.135l-1.582 2.804a.162.162 0 0 0 .006.141c.023.036.154.027.192.001l.17-.193a.428.428 0 0 1 .047-.156l1.64-2.34a.424.424 0 0 1 .128-.099l.458-.326a.252.252 0 0 0 .075-.136l-.174-.223c-.001-.046-.034-.064-.073-.04l-.789.432zM53.482 61.106a.166.166 0 0 0-.071.126l-.422 1.48a.418.418 0 0 1-.048.155l-.075.439c-.018.042-.049.11-.07.151l-.872 1.326-.079.147-.354.53a.276.276 0 0 0-.052.149s.086.02.106.04c.021.02.063.009.096-.024l.944-1.078c.024-.039.059-.105.078-.147l1.376-2.827a.487.487 0 0 0 .028-.161l-.181-.322a.1.1 0 0 0-.11-.062l-.294.078zM46.612 58.335a.106.106 0 0 0-.119.05l-1.391 2.052a.82.82 0 0 0-.07.15l.071.203c.024.039.069.042.1.008l.641-.62c.032-.033.085-.086.119-.117l.544-.763a.801.801 0 0 0 .108-.125l.198-.693a.073.073 0 0 0-.057-.096l-.144-.049zM24.657 51.511a.078.078 0 0 0-.073.089l.127.57c.031.033.07.096.085.14l.188.455c.002.046.013.12.023.165l.315 1.093a.34.34 0 0 1-.021.143c-.016.033-.021.063-.013.067s.023.044.033.088l.278 1.902a.182.182 0 0 0 .068.118c.031.02.022.125.034.17l.098.658a.973.973 0 0 0 .069.15l-.06.346c.023.039.058.106.076.148l.007.35c-.003.046.021.067.056.049.034-.02.18-.067.169-.112l-.059-1.063a.705.705 0 0 0-.028-.163l-.066-1.02a1.147 1.147 0 0 1-.006-.166l-.126-.195a.36.36 0 0 0-.012-.16l.036-.633a4.31 4.31 0 0 0-.039-.154c-.011-.041-.066-.184-.075-.229l-.381-1.952a1.817 1.817 0 0 0-.039-.162l-.135-.44c.002-.045.015-.107.028-.136s-.019-.126-.061-.145l-.496.029zM48.262 63.785a.248.248 0 0 0-.085.13l-.315 1.554a.528.528 0 0 1-.094.135l-.1.306a.138.138 0 0 0 0 .139l.192.043c.042.02.092.002.111-.04l.74-1.571a5.1 5.1 0 0 0 .069-.152l-.146-.422a.139.139 0 0 0-.073-.119l-.299-.003zM43.506 63.616a1 1 0 0 0 .041.161l.013.208a.429.429 0 0 0 .044.156l.128.277c.007.046.024.118.039.162l.988 1.034c.035.03.082.021.103-.02l.174-.84c.001-.046-.025-.057-.057-.023l-.538-.062a.09.09 0 0 1-.113-.043l-.511-1.343c-.016-.043-.042-.043-.057 0l-.254.333zM26.993 60.44a.291.291 0 0 0-.077.138l.011.354a.362.362 0 0 1-.015.16l-.642 1.928a2.648 2.648 0 0 0-.06.156l-1.358 3.403-.07.152-.874 1.855c-.02.041-.049.11-.065.153l-.297.828a1.73 1.73 0 0 0-.075.149L22.301 72a10.3 10.3 0 0 0-.074.149l-1.68 3.032a4.16 4.16 0 0 1-.081.146l-2.435 4.158-.086.143-.94 1.387-.095.138-3.391 5.247c-.027.037-.069.099-.095.137l-.428.494a.991.991 0 0 1-.101.133l-.435.715c-.029.036-.016.073.029.084l.136-.035a.229.229 0 0 0 .112-.105l.351-.382a.824.824 0 0 1 .084-.143l1.466-1.946c.026-.038.072-.097.102-.132l.495-.869c.027-.037.073-.096.101-.132l.458-.554c.021-.041.059-.105.085-.143l2.03-3.088c.025-.039.062-.104.081-.146l.518-.706a2.58 2.58 0 0 1 .074-.149l2.265-3.634.084-.144 1.218-2.354a.376.376 0 0 1 .117-.111l.173-.413a.32.32 0 0 1 .108-.084.204.204 0 0 0 .09-.095l2.567-5.45c.02-.042.05-.098.068-.124.018-.027.069-.165.089-.206l1.131-2.704.059-.156.14-.465a.345.345 0 0 0 .052-.152l.259-.67c.02-.042.025-.097.012-.123s-.014-.084-.002-.128l.724-1.232c.021-.042.051-.11.068-.153l.005-.632a.123.123 0 0 0-.092-.099l-.308-.137a.266.266 0 0 0-.126.093l-.29.18zM27.958 60.962a2.557 2.557 0 0 0-.097.135l.103.268a.547.547 0 0 0-.036.16l-.24 1.249a1.082 1.082 0 0 1-.055.157l-.362 1.31a1.28 1.28 0 0 1-.079.146l-.317.948c-.015.043.003.059.042.033l.2-.083c.024-.039.06-.105.078-.147l.975-2.395c.015-.043.045-.111.067-.152l.322-1.165c.02-.041.053-.108.072-.15l-.042-.22a.333.333 0 0 0-.112-.115l-.053-.157a.243.243 0 0 0-.155.01l-.311.168z" fill-rule="evenodd" clip-rule="evenodd"/><path d="M24.263 63.69a.657.657 0 0 1-.107.036c-.016.002-.034.042-.039.087l-.123 1.209a1.12 1.12 0 0 1-.054.157l-4.28 9.089c-.021.041-.05.109-.065.153l-.24.237a.423.423 0 0 1-.06.151l-.897 1.499-.091.14-1.817 2.785-.09.141-.415.463a.86.86 0 0 1-.104.13l-.44.79a2.61 2.61 0 0 0-.112.124l-.75.84a2.654 2.654 0 0 1-.11.125l-1.173 1.342c-.034.031-.051.085-.038.122.013.036.158.056.194.028l1.242-1.22a.816.816 0 0 1 .12-.115l.557-.737c.028-.036.071-.098.095-.137l.501-.55c.021-.041.06-.105.084-.144l1.284-1.848.096-.137 2.226-3.472c.025-.038.062-.104.081-.146l1.022-1.621c.019-.042.052-.108.074-.149l3.458-7.354c.02-.041.05-.11.067-.153l.383-1.447a.463.463 0 0 0 .024-.161l.114-.154a.364.364 0 0 0-.104-.123l-.513.02zM30.255 67.016a.098.098 0 0 0-.093.084l-.325 1.656c.003.046.004.121.002.167l-.049 1.119-.041.162.092.3a.38.38 0 0 0-.023.16l-.223.58a.827.827 0 0 1-.002.165l-.033.336a2.64 2.64 0 0 1-.059.156l-.311.37a.483.483 0 0 1-.137.089l-.968.487-.165.022-.576.267a.23.23 0 0 0-.101.116l-.446 1.974a.914.914 0 0 0 .01.165l-.122 1.163c.007.045.01.12.006.166l-.009.917c-.01.045-.031.117-.046.16l-.155.256a.21.21 0 0 1-.126.084l-.224-.023a.129.129 0 0 0-.132.039l-.837 1.438-.044.161-.593 2.578c-.009.045 0 .048.019.006l.404-.375c.016-.043.041-.114.055-.158l.231-.714c.014-.043.04-.114.058-.156l.121-.912c.021-.041.05-.11.064-.154l.232-.402a1.71 1.71 0 0 0 .067-.152l.103-.34a.32.32 0 0 1 .139-.078l1.082-.848a.267.267 0 0 0 .066-.142l-.083-1.001a1.86 1.86 0 0 0-.002-.167l.135-.622a1.856 1.856 0 0 1-.02-.165l-.022-.537.021-.166.489-1.712a.202.202 0 0 1 .116-.097l2.154-1.386a.55.55 0 0 0 .104-.127l-.056-.446a.456.456 0 0 0 .041-.158l.116-.505a.446.446 0 0 1-.01-.163l.151-1.675a1.82 1.82 0 0 1 .024-.165l.439-1.459a.154.154 0 0 0-.02-.142l-.488-.196z" fill-rule="evenodd" clip-rule="evenodd"/><path d="M29.103 67.787a.13.13 0 0 0-.108.085l-.489 1.563a9.566 9.566 0 0 0-.045.16l-.124 1.922c-.007.045-.003.046.009.002l.343-1.194.037-.163.404-1.256a.297.297 0 0 1 .093-.128l-.002-.321a.342.342 0 0 0 .112-.115l-.079-.517c.004-.046-.02-.058-.053-.026l-.098-.012zM25.548 74.081a.212.212 0 0 0-.099.117l-.098.339a4.235 4.235 0 0 0-.044.161l.136.603c0 .046.008.12.018.165l-.094.245c.006.045.021.119.034.163l-.03.525a.493.493 0 0 1-.042.159l.087.259a1.262 1.262 0 0 0-.04.161l-.607 1.803a.244.244 0 0 1-.105.115l-.041.02a.311.311 0 0 0-.115.11l-.11.248a.334.334 0 0 1-.146.066l-.627.606c-.041.021-.038.028.006.017l.881-.25a.934.934 0 0 0 .122-.113l.281-.261a.46.46 0 0 0 .098-.13l.25-.305a.338.338 0 0 0 .061-.148l.032-.208c.022-.041.055-.108.072-.15l.132-.289c.006-.045.018-.12.026-.165l.109-.905a4.67 4.67 0 0 0 .023-.165l.159-.757c.005-.046.007-.12.003-.166l.067-.827c.003-.046.014-.12.024-.165l-.068-.198a.361.361 0 0 0 .057-.151l-.032-.507a.11.11 0 0 0-.09-.093l-.29.071zM18.423 73.563a.613.613 0 0 1-.047.158l-1.39 2.674a1.66 1.66 0 0 1-.101.133l-1.579 2.062c-.031.033-.038.091-.014.127.023.036.07.041.105.01l.629-.625a.86.86 0 0 1 .106-.127l.602-.637c.025-.039.07-.098.1-.133l.586-.861c.026-.038.072-.097.103-.131l.376-.558c.022-.04.054-.108.07-.151l.913-1.637a.904.904 0 0 0 .044-.16l-.092-.672c-.013-.044-.039-.046-.057-.004l-.354.532zM22.329 86.597c-.023.04-.036.075-.027.079.008.004 0 .041-.02.083l-.272 1.189a2.252 2.252 0 0 1-.04.162l-.129.714a.525.525 0 0 1-.041.159l-.035.073c-.02.042-.046.112-.06.155l.015.519a.587.587 0 0 0-.04.16l-.29.344a.395.395 0 0 0-.025.16l.202.286a.13.13 0 0 0 .137-.017l.188-.101c.022-.041.052-.109.066-.152l.086-.6a.368.368 0 0 0 .011-.162l.105-.223a.266.266 0 0 1-.02-.155l.289-1.095a1.03 1.03 0 0 1 .035-.163l-.002-.296a.479.479 0 0 0 .082-.142l.244-.58c.021-.041.045-.071.053-.067.008.003.037-.024.062-.062l.148-.59c.013-.044-.013-.074-.058-.067l-.664.389zM20.15 87.735a.39.39 0 0 0-.082.139l-.509 1.723c-.004.045-.009.12-.01.166l-.086 1.636a.768.768 0 0 0 .001.166l.075.447c.004.045.008.121.007.166l-.222.602a.45.45 0 0 0 .014.163l.167.107c.032.033.066.026.076-.015.009-.041.082-.057.062-.016l-.612 1.559c-.017.042-.038.095-.048.115-.01.021 0 .004.023-.036l.494-.297a.614.614 0 0 1 .074-.147l.758-1.473a.824.824 0 0 0 .069-.151l1.009-2.763c.017-.043.045-.083.063-.09.018-.006.044-.048.058-.091l-.057-.51a.14.14 0 0 0-.074-.119l-.029-.014c-.041-.02-.085-.015-.097.009-.011.024-.108.051-.151.067l-.108.069a1.661 1.661 0 0 0-.098.135l.023.431a7.092 7.092 0 0 0-.064.154l-.758 2.313a.819.819 0 0 1-.072.149l-.179.266c-.03.035-.067.028-.083-.015l.079-.343c.002-.046.012-.12.021-.165l.008-.292c.029-.036.041-.083.026-.105a.451.451 0 0 1-.039-.167l.011-.494a.607.607 0 0 1-.005-.165l.111-1.4c.006-.046.018-.12.026-.165l.555-1.131a.352.352 0 0 1 .108-.119l.67-1.089c.024-.039.007-.069-.039-.067l-.458.012a.512.512 0 0 0-.122.11l-.586.735zM20.033 94.621a1.458 1.458 0 0 0-.131.104l-.52.844a.784.784 0 0 0-.091.138l-.294.429a.786.786 0 0 1-.059.155l-.798 1.854a1.47 1.47 0 0 0-.054.158l-.177.082c-.022.039-.032.098-.021.127a.288.288 0 0 1-.001.137l-.269.406c-.008.045-.016.119-.017.164s-.008.119-.016.164l-2.128 2.387a.099.099 0 0 1-.125.016l-2.993-1.533c-.039-.023-.041-.02-.004.008l.585.584a.463.463 0 0 1 .144.076l2.816 1.484c.041.02.108.02.149 0l1.358-1.355c.024-.039.059-.105.077-.148l.108-.514c.023-.041.061-.105.082-.146l.786-1.805a1.17 1.17 0 0 0 .066-.154l.802-1.543a2.25 2.25 0 0 1 .062-.154l1.077-1.345a.915.915 0 0 0 .106-.127l.117-.146a.242.242 0 0 0-.001-.155l-.169-.187a.2.2 0 0 0-.127-.081l-.34.076zM9.406 90.869a2.973 2.973 0 0 1-.165.021s-.017.051-.048.076a.354.354 0 0 0-.09.123l-.421.627a.87.87 0 0 0-.095.136l-1.419 2.935a.81.81 0 0 0-.041.161l-.12.136a.32.32 0 0 1 .002.16l-.385 2.971c-.004.047.016.055.044.018l.181-.303a.554.554 0 0 1 .06-.152l-.037-.4a1.27 1.27 0 0 0 .052-.158l1.629-4.503a2.58 2.58 0 0 1 .074-.149l.464-.423c.029-.036.054-.084.056-.109s.061-.09.107-.091l.132-.051c.043-.016.06.004.036.043l-.35.459a1.479 1.479 0 0 0-.097.134l-1.358 3.349a.645.645 0 0 0-.026.163l-.044 1.041a.915.915 0 0 0 .032.164l.923 1.941c.023.041.031.068.019.062-.013-.006-.034.014-.047.041-.013.029-.015.059-.002.064.012.006.032-.002.044-.018.012-.014.068-.004.098.029l1.407 1.227a.116.116 0 0 0 .133.004l.182-.236c.025-.039.009-.08-.035-.092l-.505-.422a.066.066 0 0 1-.067-.082l.191-.426a.197.197 0 0 0-.039-.146l-.486-.343a.412.412 0 0 0-.16-.018l-.306-.041a.306.306 0 0 1-.106-.117l-.393-1.299c-.012-.045-.036-.047-.054-.004h-.27c-.016.043-.033.041-.04-.004l-.128-.467a1.89 1.89 0 0 0-.009-.168l.066-.553c.004-.045.011-.121.017-.166l.195-.992c.015-.043.022-.102.016-.13s.002-.086.021-.128l1.067-1.82a.303.303 0 0 1 .124-.1l1.076-1.082a.09.09 0 0 0 .054-.108l-.356-.243a.114.114 0 0 0-.132-.003l-.104.145c-.046-.001-.064-.027-.041-.056.024-.029.013-.182.032-.224l-.094-.314a.15.15 0 0 0-.091-.109l-.373.02z" fill-rule="evenodd" clip-rule="evenodd"/><path d="M16.551 97.143a.738.738 0 0 0-.025.164l-.352 1.139a1.38 1.38 0 0 1-.085.143l-1.283 1.254a.292.292 0 0 0-.089.131l.011.125a.082.082 0 0 0 .115.018l1.715-1.307.087-.141.268-1.713c0-.045-.034-.068-.077-.053l-.285.24zM6.092 93.631a.468.468 0 0 0-.103.127l-.559 1.037c-.01.045-.029.118-.041.162l-.037 2.407c0 .047.031.061.068.033l.206-.133.032-.164-.146-.455.061-.129a.297.297 0 0 0 .016-.135l.004-.404a.831.831 0 0 1 .016-.165l.309-.918a.618.618 0 0 1 .061-.154l.318-.591a.618.618 0 0 1 .146-.077l.484-.5a.103.103 0 0 0 .013-.127l-.138-.087a.159.159 0 0 0-.143-.023l-.567.296zM3.89 94.069c-.028.037-.069.1-.092.14l-.62 1.591a1.27 1.27 0 0 0-.049.159L2.843 97a2.36 2.36 0 0 0-.008.168l.17.338c.018.043.041.039.05-.006l.21-.646a.604.604 0 0 1 .01-.164l1.148-2.406a.355.355 0 0 1 .11-.118l.31-.435a.13.13 0 0 0-.009-.137l-.102-.154a.104.104 0 0 0-.127.008l-.715.621zM12.927 102.078a.268.268 0 0 1-.156.014l-1.627-.352a1.214 1.214 0 0 1-.151-.07l-2.637-2.025c-.032-.033-.071-.059-.086-.055-.017.002-.035-.02-.042-.049-.007-.027-.032-.027-.056.002-.024.029-.063.137-.036.172l.964 1.32c.035.029.093.078.129.105l1.852.926c.042.02.111.047.155.062l2.222.572a.173.173 0 0 0 .137-.053s.043.035.082.027a.28.28 0 0 0 .125-.074l.188-.428c.013-.043-.011-.066-.053-.049l-1.01-.045z" fill-rule="evenodd" clip-rule="evenodd"/><path d="M58.121 85.186c0 6.664-5.051 7.862-10.101 7.862-4.84 0-10.148-1.198-10.148-7.862V71.567h8.441v13.034c0 1.958.935 2.338 1.824 2.338.865 0 1.753-.38 1.753-2.338V71.567h8.23v13.619h.001zM61.576 71.567h8.464l4.84 8.709h.046v-8.709h7.927v20.867h-7.436l-5.868-9.47h-.047v9.47h-7.926V71.567zM86.031 71.567h13.608c5.822 0 8.979 2.835 8.979 10.433 0 3.945-2.666 10.434-9.398 10.434H86.031V71.567zm8.441 14.495h1.917c2.011 0 3.343-1.286 3.343-4.033 0-2.162-.701-3.302-2.969-3.302h-2.292v7.335h.001zM110.346 71.567h18.845v6.604h-10.404v1.988h10.404v4.851h-10.404v1.958h10.404v5.466h-18.845V71.567zM132.484 71.567h15.807c3.787 0 6.008 2.191 6.008 6.137 0 4.15-2.57 5.845-5.189 6.108l5.799 8.622h-9.984l-3.951-6.722h-.047v6.722h-8.441V71.567h-.002zm8.442 9.907h2.596c1.916 0 2.338-.789 2.338-2.338 0-1.315-.701-1.842-2.199-1.842h-2.734v4.18h-.001zM35.455 99.766c-.978-.365-2.362-.43-3.263-.43-1.575 0-2.425.238-2.425 1.891 0 1.492 1.016 1.635 1.981 1.635 1.206 0 2.171-.16 3.669-.525v3.795c-1.117.332-2.908.619-4.571.619-3.543 0-5.904-1.557-5.904-6.191 0-4.35 2.653-5.809 5.904-5.809 1.664 0 3.124.238 4.609.556v4.459zM36.671 100.432c0-4.444 2.959-5.682 6.26-5.682s6.26 1.238 6.26 5.682c0 2.604-.47 6.318-6.26 6.318-5.789 0-6.26-3.715-6.26-6.318zm7.81.461c0-1.445-.406-2.396-1.549-2.396-1.143 0-1.549.951-1.549 2.396 0 1.443.407 2.396 1.549 2.396 1.143 0 1.549-.953 1.549-2.396zM50.665 95.083h4.596l2.629 4.729h.025v-4.729h4.305v11.333h-4.038l-3.187-5.143h-.026v5.143h-4.304V95.083zM73.902 95.273v3.047c-.852-.096-2.769-.459-4.076-.459-1.168 0-1.511.221-1.511.586 0 .254.19.508 1.028.508H70.6c2.679 0 3.593 1.287 3.593 3.699 0 3.65-2.933 4.096-5.536 4.096-1.752 0-3.149-.064-4.673-.477v-3.334c.889.254 2.248.35 3.416.35 1.423 0 2.083-.016 2.083-.477 0-.508-.394-.539-1.067-.539h-1.257c-1.752 0-3.556-.619-3.556-3.254 0-3.667 2.819-4.27 5.6-4.27 1.334.001 3.352.238 4.699.524zM77.66 99.543h-2.692v-4.46h9.968v4.46h-2.692v6.873H77.66v-6.873zM86.05 95.083h8.584c2.057 0 3.264 1.191 3.264 3.333 0 2.254-1.398 3.174-2.82 3.318l3.148 4.682h-5.421l-2.146-3.65h-.025v3.65H86.05V95.083zm4.584 5.38h1.409c1.041 0 1.27-.428 1.27-1.27 0-.715-.381-1-1.194-1h-1.485v2.27zM110.354 102.48c0 3.619-2.744 4.27-5.486 4.27-2.629 0-5.512-.65-5.512-4.27v-7.398h4.584v7.08c0 1.062.508 1.27.992 1.27.469 0 .951-.207.951-1.27v-7.08h4.471v7.398zM122.262 99.766c-.979-.365-2.361-.43-3.264-.43-1.574 0-2.426.238-2.426 1.891 0 1.492 1.016 1.635 1.98 1.635 1.207 0 2.172-.16 3.67-.525v3.795c-1.117.332-2.908.619-4.57.619-3.543 0-5.904-1.557-5.904-6.191 0-4.35 2.652-5.809 5.904-5.809 1.662 0 3.123.238 4.609.556v4.459h.001zM126.043 99.543h-2.691v-4.46h9.966v4.46h-2.691v6.873h-4.584v-6.873zM134.586 95.083h4.584v11.333h-4.584V95.083zM140.566 100.432c0-4.444 2.959-5.682 6.26-5.682s6.26 1.238 6.26 5.682c0 2.604-.469 6.318-6.26 6.318s-6.26-3.715-6.26-6.318zm7.809.461c0-1.445-.406-2.396-1.549-2.396s-1.549.951-1.549 2.396c0 1.443.406 2.396 1.549 2.396s1.549-.953 1.549-2.396zM154.559 95.083h4.597l2.627 4.729h.026v-4.729h4.304v11.333h-4.037l-3.187-5.143h-.026v5.143h-4.304V95.083z" fill-rule="evenodd" clip-rule="evenodd" fill="#004775"/><path d="M57.546 84.899c0 6.663-5.05 7.861-10.101 7.861-4.84 0-10.147-1.198-10.147-7.861V71.28h8.44v13.034c0 1.958.936 2.338 1.824 2.338.865 0 1.753-.379 1.753-2.338V71.28h8.23v13.619h.001zM61.001 71.28h8.465l4.84 8.709h.047V71.28h7.926v20.866h-7.436l-5.868-9.469h-.047v9.469h-7.927V71.28zM85.457 71.28h13.607c5.822 0 8.979 2.835 8.979 10.434 0 3.945-2.664 10.433-9.398 10.433H85.457V71.28zm8.441 14.495h1.917c2.011 0 3.343-1.286 3.343-4.033 0-2.163-.701-3.302-2.969-3.302h-2.291v7.335zM109.771 71.28h18.846v6.605h-10.404v1.987h10.404v4.851h-10.404v1.958h10.404v5.465h-18.846V71.28zM131.91 71.28h15.807c3.787 0 6.008 2.192 6.008 6.137 0 4.15-2.57 5.845-5.189 6.108l5.799 8.622h-9.984l-3.951-6.722h-.047v6.722h-8.441V71.28h-.002zm8.442 9.907h2.596c1.916 0 2.338-.789 2.338-2.338 0-1.315-.701-1.841-2.197-1.841h-2.736v4.179h-.001zM34.88 99.479c-.978-.365-2.361-.428-3.263-.428-1.575 0-2.426.236-2.426 1.889 0 1.492 1.016 1.635 1.981 1.635 1.207 0 2.171-.16 3.67-.525v3.795c-1.118.334-2.908.619-4.572.619-3.542 0-5.904-1.557-5.904-6.191 0-4.349 2.654-5.809 5.904-5.809 1.664 0 3.124.238 4.609.556v4.459h.001zM36.098 100.145c0-4.444 2.958-5.682 6.26-5.682 3.301 0 6.26 1.238 6.26 5.682 0 2.604-.47 6.318-6.26 6.318s-6.26-3.715-6.26-6.318zm7.809.46c0-1.445-.406-2.396-1.549-2.396-1.143 0-1.549.951-1.549 2.396 0 1.443.406 2.396 1.549 2.396 1.142.001 1.549-.952 1.549-2.396zM50.09 94.796h4.597l2.629 4.729h.025v-4.729h4.305v11.333h-4.038l-3.188-5.143h-.025v5.143H50.09V94.796zM73.328 94.986v3.047c-.851-.094-2.769-.459-4.076-.459-1.168 0-1.511.221-1.511.586 0 .254.19.508 1.028.508h1.257c2.68 0 3.594 1.287 3.594 3.699 0 3.65-2.933 4.096-5.537 4.096-1.752 0-3.149-.064-4.673-.477v-3.334c.889.254 2.248.35 3.416.35 1.423 0 2.083-.016 2.083-.477 0-.508-.394-.539-1.067-.539h-1.257c-1.752 0-3.555-.619-3.555-3.254 0-3.667 2.818-4.27 5.6-4.27 1.332 0 3.351.239 4.698.524zM77.085 99.256h-2.691v-4.46h9.967v4.46h-2.692v6.873h-4.584v-6.873zM85.476 94.796h8.584c2.057 0 3.264 1.19 3.264 3.333 0 2.254-1.398 3.174-2.82 3.318l3.15 4.682h-5.423l-2.146-3.65h-.025v3.65h-4.584V94.796zm4.584 5.382h1.409c1.042 0 1.271-.43 1.271-1.271 0-.713-.381-1-1.194-1H90.06v2.271zM109.779 102.193c0 3.619-2.744 4.27-5.486 4.27-2.629 0-5.512-.65-5.512-4.27v-7.397h4.586v7.079c0 1.064.508 1.27.99 1.27.469 0 .951-.205.951-1.27v-7.079h4.471v7.397zM121.688 99.479c-.979-.365-2.361-.428-3.264-.428-1.574 0-2.426.236-2.426 1.889 0 1.492 1.016 1.635 1.98 1.635 1.207 0 2.172-.16 3.67-.525v3.795c-1.117.334-2.908.619-4.57.619-3.543 0-5.904-1.557-5.904-6.191 0-4.349 2.652-5.809 5.904-5.809 1.662 0 3.123.238 4.609.556v4.459h.001zM125.469 99.256h-2.692v-4.46h9.969v4.46h-2.693v6.873h-4.584v-6.873zM134.012 94.796h4.584v11.333h-4.584V94.796zM139.992 100.145c0-4.444 2.959-5.682 6.26-5.682s6.26 1.238 6.26 5.682c0 2.604-.469 6.318-6.26 6.318-5.789 0-6.26-3.715-6.26-6.318zm7.809.46c0-1.445-.406-2.396-1.549-2.396s-1.549.951-1.549 2.396c0 1.443.406 2.396 1.549 2.396s1.549-.952 1.549-2.396zM153.984 94.796h4.598l2.627 4.729h.027v-4.729h4.303v11.333h-4.037l-3.188-5.143h-.025v5.143h-4.305V94.796z" fill-rule="evenodd" clip-rule="evenodd" fill="#a53421"/><path d="M183.457 90.15c.008.044.012.116.012.16l-.133.17a.098.098 0 0 1-.105.061l-.729.209a.412.412 0 0 0-.156.017l-.531.245a.866.866 0 0 1-.139.08l-.846.598a.571.571 0 0 0-.117.108l-.193.028a.33.33 0 0 1-.092.123l-1.244 1.127a.716.716 0 0 1-.131.092l-.232.325c-.025.037-.07.093-.1.126l-1.777 1.811a.571.571 0 0 0-.08.137l-.248.655a.196.196 0 0 1-.107.097l-.162-.038a.335.335 0 0 1-.076-.135l.059-.424a.843.843 0 0 1 .047-.153l.393-.421a.27.27 0 0 1 .094-.12l.521-.667a.524.524 0 0 0 .121-.103l.939-.825c.033-.03.088-.076.123-.103l.088-.334c.037-.025.096-.067.129-.094l.383-.45a.63.63 0 0 1 .119-.105l.238-.204a.605.605 0 0 1 .115-.111l.473-.445c.037-.023.098-.064.131-.091l1.424-.962c.039-.022.104-.055.143-.074l1.225-.679a.11.11 0 0 1 .125.024l.296.345zM181.418 89.614a.097.097 0 0 1 .057.107l-.154.248a7.434 7.434 0 0 0-.131.095l-1.697 1.178a2.935 2.935 0 0 1-.102.125l-.436.606a.66.66 0 0 0-.078.14l-.242.108a1.36 1.36 0 0 1-.057.15l-.58.512c-.037.025-.047.016-.021-.021l1.357-1.958a.65.65 0 0 1 .121-.101l.139-.15a.25.25 0 0 1 .098-.074.647.647 0 0 0 .139-.096l.193-.234a.48.48 0 0 0 .133-.083l.791-.756a.351.351 0 0 1 .146-.052l.324.256zM186.438 91.064a.303.303 0 0 0 .143.059l.498.273a.82.82 0 0 1 .145.066l1.494 1.121c.025.036.064.097.084.136l.279 1.044a.237.237 0 0 1 0 .149l.139.298c-.01.043 0 .047.023.01l.453-.181c.043-.006.088.001.098.018s.027.021.039.01c.012-.011.012-.011 0 0s-.025.055-.029.1l.119.973a.514.514 0 0 0-.035.154l-.053.708a.335.335 0 0 1-.012.154l-1.004 3.598a2.285 2.285 0 0 0-.049.154l-.418 1.01a.709.709 0 0 0-.049.152l-.254.654a1.138 1.138 0 0 0-.066.146l-.465 1.428c-.018.041-.051.105-.07.145l-.316.639a.796.796 0 0 1-.08.139l-.354.635a1.075 1.075 0 0 1-.078.141l-.332.623a.555.555 0 0 1-.09.131l-.15.264c-.027.035-.074.09-.105.121l-.371.598a.331.331 0 0 0-.074.135l-.342.432a.363.363 0 0 1-.061.145l-.676 1.111a.622.622 0 0 0-.08.137l-.271.168a.606.606 0 0 1-.072.141l-.645.855a3.016 3.016 0 0 1-.109.117l-1.184 1.205c-.035.025-.09.072-.123.104l-.691.697a2.42 2.42 0 0 1-.137.086l-.877.594-.123.102-.494.289a.844.844 0 0 1-.117.107l-.717.352a.97.97 0 0 1-.141.078l-2.393 1.234c-.041.016-.057.061-.033.098l.633 1.635a.523.523 0 0 1-.012.158l-.463 1.512a.615.615 0 0 1-.078.137l-.295.486a.15.15 0 0 1-.115.076s.002.053-.021.078a1.54 1.54 0 0 1-.107.1l-.479.377a.716.716 0 0 1-.123.1l-.83.244c-.045.006-.07-.023-.057-.066l.148-.129a.409.409 0 0 0 .143-.064l1.311-1.219a.678.678 0 0 0 .078-.139l.041-2.578a.147.147 0 0 0-.09-.105l-.297-.098a.181.181 0 0 1-.07-.127l.008-.518a.268.268 0 0 1 .115-.098s-.006-.051.025-.08a.356.356 0 0 1 .131-.076l.51-.172c.035-.025.098-.062.137-.084l1.018-.492c.039-.02.104-.053.145-.072l2.463-1.486c.037-.023.1-.059.139-.08l.502-.311c.037-.023.096-.066.133-.092l.455-.363a.929.929 0 0 0 .125-.1l1.51-1.68c.029-.035.076-.09.105-.121l.252-.268c.02-.039.043-.07.053-.068.008.002.035-.027.059-.062l1.084-1.492c.029-.035.068-.094.092-.133l1.174-1.943c.023-.037.057-.102.076-.141l.121-.207a.389.389 0 0 1 .031-.154l.943-1.598a1.9 1.9 0 0 0 .059-.148l.156-.287a.52.52 0 0 0 .076-.139l.523-1.662c.018-.041.041-.109.053-.152l.264-.598c.006-.045.021-.115.033-.158l.756-2.516a.456.456 0 0 0 .016-.156l-.01-.078a.42.42 0 0 1 .02-.156l.299-1.748a.692.692 0 0 1 .043-.154l-.033-.294c-.004-.044-.021-.047-.039-.006l-.151.137c-.029.033-.047.024-.039-.02l-.176-.604a.28.28 0 0 0 .006-.152l-.049-.706c-.021-.039-.057-.103-.076-.142l-1.713-1.907a.958.958 0 0 0-.145-.068l-1.768.042a.167.167 0 0 0-.119.077l-.076.197a.356.356 0 0 1-.152.03l-.277-.23a.163.163 0 0 1-.025-.137s-.023.004-.035-.025c-.012-.03-.053-.041-.094-.024l-2.092.985c-.039.021-.076.064-.082.094a.212.212 0 0 1-.082.098l-2.389 1.915c-.031.031-.064.055-.072.053-.01-.002-.043.021-.074.052l-1.844 2.047c-.029.033-.074.09-.104.123l-.385.584c-.025.037-.07.094-.098.129l-.365.357-.092.133-2.033 3.408a4.865 4.865 0 0 0-.074.143l-.852 1.588a.433.433 0 0 0-.043.152l-.258.52c-.016.041-.045.107-.062.148l-.848 2.693a1.368 1.368 0 0 0-.047.154l-.57 2.395c-.01.043-.021.113-.025.158l-.086 1.916a.604.604 0 0 0 .014.158l.238 1.184a.72.72 0 0 0 .062.146l.512.621c.035.029.027.059-.018.064l-.273.004a.314.314 0 0 1-.113-.104l-.498-.67a.281.281 0 0 0-.096-.117l-.721-.021a.129.129 0 0 0-.133-.02l-3.055 3.078a.188.188 0 0 0-.016.143l.688.916c.033.029.074.033.088.01s.076-.115.102-.15l.318-.078a2.41 2.41 0 0 0 .141-.078l.486.049a.105.105 0 0 1 .115.051l.119.424a.236.236 0 0 1-.014.148l-.162.395a.156.156 0 0 0 .045.131l2.256 1.402c.043.014.074.031.072.039-.002.01.031.027.074.039l.457.021a.857.857 0 0 0 .16.023l1.795.113c.043 0 .051.021.012.045l-.436.225a.601.601 0 0 1-.158.021l-.713-.014a1.06 1.06 0 0 1-.16-.006l-3.898-1.781a.376.376 0 0 1-.102-.119l-.408-.322a.323.323 0 0 0-.113-.104l-1.053-1.105a.287.287 0 0 1-.084-.129l.082-.951c.002-.043.016-.078.027-.074.014.004.049-.021.076-.055l.244-.703c.027-.035.074-.09.105-.121l1.121-1.068c.035-.027.096-.066.135-.086l.273-.139c.039-.023.102-.057.143-.076l1.053-.523a.946.946 0 0 1 .15-.051l.227-.01a.366.366 0 0 1 .154-.023l.33-.051a.082.082 0 0 0 .076-.086l-.039-.678a1.423 1.423 0 0 1 0-.16l-.061-.645c.008-.043.02-.115.023-.158l.164-1.303.025-.158 1.006-3.531c.012-.043.037-.109.055-.15l.484-1.674a.796.796 0 0 1 .08-.139l.41-.885.068-.146.221-.232a.9.9 0 0 0 .049-.152l.322-.75c.016-.041.047-.105.07-.143l.607-1.123c.025-.037.062-.098.086-.135l.584-.814.094-.131.385-.746a.355.355 0 0 1 .113-.105l.01-.004c.039-.021.068-.064.068-.096-.002-.033.012-.117.037-.125a.362.362 0 0 0 .127-.105l.566-.658a.326.326 0 0 0 .074-.137c.012-.041.039-.084.064-.092a.926.926 0 0 0 .146-.086l.119-.393a.66.66 0 0 1 .119-.066c.031-.01.033-.098.027-.109-.008-.01.01-.047.039-.082l.463-.362a.53.53 0 0 1 .09-.13l.189-.243a.544.544 0 0 0 .145-.067l.668-.758a1.33 1.33 0 0 0 .123-.102l.32-.266a.706.706 0 0 1 .129-.093l.473-.486c.039-.022.08-.039.094-.035.014.003.053-.016.088-.042l1.527-1.053a.656.656 0 0 1 .148-.06l.18-.289a.625.625 0 0 0 .154-.041l1.824-.858c.041-.017.109-.038.152-.047l1.775-.236a.185.185 0 0 1 .139.039l.204.02z" fill-rule="evenodd" clip-rule="evenodd"/><path d="M185.756 94.046c.016.041.047.105.07.144l.535 1.383c.01.043.01.114.002.158l-.016.43a.713.713 0 0 1-.008.16l-.738 2.156a.823.823 0 0 1-.074.141l-.877.998c-.031.033-.08.088-.107.121l-.402.242a.24.24 0 0 1-.129.021c-.029-.008-.027-.037.006-.066l.504-.551a.556.556 0 0 0 .123-.1l.387-.508a.621.621 0 0 1 .125-.098l.098-.34a.21.21 0 0 0 .076-.125l.211-.268a.609.609 0 0 1 .018-.158l.318-2.424a.137.137 0 0 0-.08-.108l-.727-.779a.408.408 0 0 0-.154-.025l-.83.121a1.558 1.558 0 0 0-.137.083l-.486.469a2.867 2.867 0 0 0-.121.106l-1.398 1.668a.477.477 0 0 0-.061.146l.061 1.246a.51.51 0 0 0 .064.145l.305.277c.039.021.104.053.146.068l.314.146c.043 0 .115 0 .16-.004l.512-.08c.043-.01.105-.023.139-.029s.145.027.152.053.006.1-.035.117l-.373.262a.861.861 0 0 1-.156.031l-1.418-.395c-.039-.018-.059-.045-.041-.059.018-.016.047-.09.014-.119l-.072-.037a.12.12 0 0 1-.111-.066l-.213-.756a1.002 1.002 0 0 1-.023-.158l.084-.182a.367.367 0 0 1-.025-.154l.27-.646a1.04 1.04 0 0 1 .074-.145l.191-.391a.903.903 0 0 1 .092-.133l.361-.482a.49.49 0 0 1 .135-.081l.184-.234c.027-.034.07-.092.096-.128l.49-.329a.927.927 0 0 1 .115-.111l.209-.202a.285.285 0 0 1 .107-.108l1.076-.553a.958.958 0 0 0 .141-.076l.098-.153a.156.156 0 0 1 .113.083l.636.386z" fill-rule="evenodd" clip-rule="evenodd"/><path d="M184.797 94.983c.031.032.025.073-.016.092l-.248.356a.794.794 0 0 0-.115.11l-.625.645a3.073 3.073 0 0 1-.109.119l-.348.615a.553.553 0 0 0-.08.137l-.438.559c-.01.043-.029.113-.043.154l-.078.73c.004.043.002.072-.004.061-.006-.01-.045-.004-.084.016l-.135-.002c-.043-.01-.072-.039-.066-.064s-.043-.094-.061-.098c-.016-.004-.029-.043-.027-.088l.084-.527a.767.767 0 0 1 .072-.143l.779-1.361.086-.137.707-.701c.023-.037.059-.101.076-.141l.326-.358a.126.126 0 0 1 .121-.054l.226.08zM181.541 94.648a.19.19 0 0 1 .113.091l.055.401a.107.107 0 0 1-.064.108l-.812.504a.102.102 0 0 0-.057.11l.082.525a.778.778 0 0 1-.076.139s-.084-.136-.107-.109a.392.392 0 0 1-.119.076l-1.021.641a4.38 4.38 0 0 0-.131.094l-.176.16a.497.497 0 0 1-.08.137l-1.094 1.174c-.021.039-.061.1-.088.135l-1.311 2.08a.521.521 0 0 0-.057.146l-.266.285a.87.87 0 0 1-.066.146l-.447 1.09-.076.141-.26.371a.795.795 0 0 1-.061.148l-.424 1.129a1.031 1.031 0 0 0-.062.146l-.168.822a.309.309 0 0 1-.059.141l-.121.064a.606.606 0 0 1-.072.141l-.139.838a.312.312 0 0 0-.045.148l-.008 1.826a.583.583 0 0 0 .053.15l.031.377c.002.045-.012.049-.029.008l-.471-.762a2.1 2.1 0 0 1-.006-.16l.262-2.471a.312.312 0 0 1 .074-.133l.068-.203a2.056 2.056 0 0 1-.02-.16l.463-2.506a.678.678 0 0 1 .078-.139l.197-.518a.82.82 0 0 0 .094-.129l.746-.971c.021-.037.061-.1.084-.137l.398-.461c.025-.037.07-.094.1-.127l.797-1.168.104-.123.613-.773a.796.796 0 0 1 .08-.139l.248-.18c.016-.041.047-.105.068-.145l.297-.482.086-.137.385-.352a3.73 3.73 0 0 1 .104-.121l.074-.211c.035-.025.096-.064.135-.086l.443-.28.111-.117.611-.485a.795.795 0 0 0 .125-.1l.334-.564c.02-.04.062-.044.092-.012 0 0 .078-.161.105-.137a.32.32 0 0 0 .125.063l.158.043z" fill-rule="evenodd" clip-rule="evenodd"/><path d="M175.299 102.773c-.023.037-.053.07-.066.072a.223.223 0 0 0-.102.078l-.012.258a.281.281 0 0 0-.096.117l-.383.869c-.018.041-.021.039-.01-.004l.498-1.668c.018-.041.051-.104.074-.143l.439-.531a.638.638 0 0 0 .053-.125c.008-.029-.004-.021-.023.018l-.372 1.059zM183.494 104.279c.031.031.039.09.02.129l-.16.758c-.012.043-.029.113-.043.156l-.781 1.586a2.42 2.42 0 0 0-.07.145l-.273.373c-.025.035-.07.094-.098.127l-.789.941a1.126 1.126 0 0 1-.123.104l-.723.668a.438.438 0 0 0-.121.102l-.193-.094c-.039.021-.053.008-.027-.029l.486-.502a.658.658 0 0 0 .109-.115l1.029-1.107.094-.129.73-1.178a.97.97 0 0 0 .078-.141l.111-1.646a.554.554 0 0 1 .035-.154l.188-.277a.147.147 0 0 1 .127-.053l.394.336zM189.039 105.691a.14.14 0 0 1 .047.129l-.359 1.023a1.37 1.37 0 0 1-.082.139l-.58.789a2.02 2.02 0 0 1-.115.111l-1.023 1.16a1.992 1.992 0 0 0-.115.109l-2.152 2.09c-.029.033-.08.084-.111.115l-2.07 1.869a.246.246 0 0 0-.076.105.233.233 0 0 1-.076.104l-.291.16-.113.113-1.447.992a.796.796 0 0 1-.139.08l-.627.348a.35.35 0 0 0-.117.1l-.826.189a.087.087 0 0 1-.111-.041l-.049-.709c.004-.043.043-.066.084-.049l.686-.018a.21.21 0 0 0 .146.008l1.434-.754a.51.51 0 0 0 .131-.088l.328-.221a.914.914 0 0 1 .1-.127l.59-.348c.033-.029.092-.072.129-.094l.572-.543c.039-.023.098-.062.133-.09l.836-.773a1.01 1.01 0 0 1 .119-.107l.309-.191.119-.109.381-.449c.031-.029.088-.074.125-.098l.33-.354a.943.943 0 0 1 .125-.102l.246-.236a.848.848 0 0 1 .111-.113l.617-.629c.031-.029.082-.082.109-.117l.484-.379a1.69 1.69 0 0 1 .102-.125l.42-.547c.027-.033.08-.08.117-.104s.125-.119.113-.131c-.01-.012.008-.045.041-.074l.354-.34a.335.335 0 0 0 .076-.135l.008-.031c.01-.043.047-.1.082-.125l.258-.426c.021-.039.055-.104.074-.143l.182-.393a.14.14 0 0 0-.078-.111l-.09-.375c-.021-.039-.002-.07.043-.07l.486.136zM185.928 111.566a.754.754 0 0 1-.051.152l-.24.375a.384.384 0 0 1-.068.139l-1.637 1.732a1.517 1.517 0 0 1-.121.105l-1.182 1.012a.332.332 0 0 1-.141.062l-.176.139a1.356 1.356 0 0 1-.125.102l-.768.488a3.581 3.581 0 0 0-.129.096l-.385.334c-.029.031-.078.086-.109.117l-.529.25a.1.1 0 0 1-.123-.002l-.33-.375a.277.277 0 0 1-.023-.15l.045-.387a.174.174 0 0 1 .098-.104l.383.121a.17.17 0 0 0 .143-.01l2.4-1.354c.031-.029.084-.08.113-.111l.775-.635c.033-.031.088-.078.123-.104l.471-.557c.037-.025.098-.064.135-.09l.412-.443c.027-.035.062-.098.082-.137l.182-.143a.539.539 0 0 1 .035-.154l.504-.84c.008-.045.029-.047.047-.006l.189.378zM163.127 112.084c.023.037.008.059-.035.047l-1.18-.188a.206.206 0 0 0-.146.014l-1.578 1.309c-.023.037-.061.1-.08.139l-.207.186a.528.528 0 0 1-.092.129l-.188.262a.085.085 0 0 1-.113-.031l-.039-.182c.016-.041.045-.107.066-.146l.426-.764c.018-.039.047-.072.064-.072.02-.002.045-.055.029-.086s-.061-.076-.074-.033l-.555.236c-.037.025-.043.02-.012-.014l1.432-1.43c.037-.023.098-.062.135-.088l.387.045c.037-.023.064-.023.061-.002-.006.021.025.039.07.041l1.254.229a.71.71 0 0 1 .145.068l.23.331zM164.096 113.404a.355.355 0 0 1 .143.061l.395.201c.037.021.1.059.139.08l.668.346.141.08.398.316.127.098.512.32a.189.189 0 0 1 .031.141l-.117.295a.184.184 0 0 1-.131.061l-.07.09a.138.138 0 0 1-.129.043l-.297-.115a.559.559 0 0 1-.098-.123l-.5-.697c-.033-.029-.09-.074-.123-.104l-1.121-.629a.647.647 0 0 0-.145-.07l-2.27.059a.58.58 0 0 0-.148.057l-.365.357a.746.746 0 0 0-.119.105l-.436.207a.556.556 0 0 1-.1.123l-.238.361c-.025.035-.072.09-.104.121l-.367.367a.701.701 0 0 0-.092.129l-.16 1.674a.129.129 0 0 1-.059.119l-.148.084a.081.081 0 0 1-.109-.031l-.225-1.25a.363.363 0 0 1 .045-.15l1.215-1.674c.027-.033.078-.055.113-.047.033.008.088-.076.121-.105l.379-.34.127-.098 1.971-.816a.41.41 0 0 1 .156-.006l.99.36z" fill-rule="evenodd" clip-rule="evenodd"/><path d="M163.695 115.611a.158.158 0 0 1 .045.133l-.172.477a.11.11 0 0 1-.121.043l-.879.223a.21.21 0 0 0-.145.031l-1.652 1.375c-.031.031-.08.086-.109.119l-.311.572c-.027.033-.07.092-.094.129l-.35.666a.324.324 0 0 0-.018.154l1.055 2.508c.029.033.02.053-.023.043l-.174-.004a1.348 1.348 0 0 0-.129-.096l-1.035-1.387a.288.288 0 0 1-.043-.146l.068-1.244a.227.227 0 0 0 .002-.15l-.377-.303a.115.115 0 0 0-.125-.027l-1.525.908c-.033.029-.029.07.008.092l.441.639c.033.029.062.09.066.133l-.014.402a3.445 3.445 0 0 1-.088.135l-.883 1.143a1.21 1.21 0 0 1-.111.115l-.105.352a.379.379 0 0 1-.104.068.236.236 0 0 0-.1.117l.049.262c.018.039.07.074.113.078l3.947.727c.043.008.111.027.154.043l3.104 1.42c.039.02.104.053.141.076l1.074.678c.035.027.09.074.119.105l2.99 3.197c.027.035.062.088.078.119s.086.143.111.18l.27.312c.021.039.059.102.082.139l.787 1.184c.025.035.062.098.082.137l.336.607c.025.035.061.1.076.141l.766 1.947a.584.584 0 0 1 .031.156l.057.729a.108.108 0 0 1-.115.053l-.467-.012a.143.143 0 0 1-.051-.127l-.209-1.141a.288.288 0 0 0 0-.154l-.953-2.125a1.182 1.182 0 0 0-.082-.139l-1.998-2.871a1.506 1.506 0 0 0-.113-.113l-.818-.889a.414.414 0 0 0-.102-.119l-.875-.723a.22.22 0 0 0-.135-.064l-.035-.178a.235.235 0 0 1-.148-.016l-8.141-2.633a.074.074 0 0 0-.088.064l-.316.619a.254.254 0 0 1-.092.119l-1.309 1.111-.104.123-1.172 1.834a1.073 1.073 0 0 0-.068.145l-.164.143a.423.423 0 0 1-.053.148L152 131.074l-.068.145-.545.982c-.02.039-.049.105-.064.146l-.66 1.352-.066.145-1.359 3.203a1.902 1.902 0 0 0-.053.15l-.248.537c-.006.043-.02.115-.033.156l-1.105 4.766a.367.367 0 0 0 .018.154l.113.48c.012.043.029.113.037.158l.059.293c.01.043.043.078.076.076.031-.002.066-.037.076-.08l.463-1.941a.529.529 0 0 1 .062-.145l.096-.1c0-.045.016-.115.031-.156l.227-.742c.021-.041.053-.105.07-.146l.422-1.041c.016-.043.043-.109.061-.148l.242-.111c.033-.027.078-.018.1.02l.174.133a.419.419 0 0 1-.033.152l-.512.793a.585.585 0 0 0-.055.148l-.18.508a.789.789 0 0 0-.07.143l-.613 2.584c-.006.045.023.074.066.066l.189-.248a1.22 1.22 0 0 1 .119-.109l1.037-.92a.43.43 0 0 0 .08-.137l.66-.523a.098.098 0 0 1 .121.008l-.033.148c.037.027.047.08.025.117l-.545 1.463c-.016.041-.016.096 0 .123.018.027.023.084.016.127l-.184.818c0 .045-.01.115-.02.158l.203.883c.008.043.031.047.055.01l.434-.367c.023-.037.066-.096.096-.129l.795-.908a.663.663 0 0 0 .084-.1c.016-.023.076-.115.104-.148l.59-.436a.101.101 0 0 1 .117-.039l.156.109a.314.314 0 0 1 .059.143l.018.193a.196.196 0 0 1-.053.135l-.262.389c-.027.035-.068.094-.094.131l-.568.816a.957.957 0 0 0-.072.143l-.033.623a.099.099 0 0 0 .072.1l.092-.045c.045.01.1.043.125.07.025.029.018.188-.021.209l-.398.268a.25.25 0 0 1-.135-.066l-.367-.484a.22.22 0 0 1 .01-.148l.262-.736c.023-.039.035-.078.023-.09-.01-.012-.031.012-.045.055l-.996.877a.113.113 0 0 1-.123.037l-.398-.35a.151.151 0 0 1-.08-.113l.057-1.777c.008-.043.021-.115.033-.158l-.006-.58c.008-.043-.014-.055-.047-.025l-.529.559c-.027.035-.074.09-.102.125l-.207.109a.97.97 0 0 0-.051.152l-.508.559a.075.075 0 0 1-.107.029l-.23-.205a.433.433 0 0 0-.074-.139l-.4-1.277a.18.18 0 0 1-.045-.135l-.127-.412c.01-.043.033-.111.051-.152l-.002-.35a1.16 1.16 0 0 1 .029-.156l.922-4.064c.014-.043.041-.109.059-.15l.902-2.119c.02-.041.051-.105.072-.145l.875-2.143a.182.182 0 0 1 .074-.09c.025-.006.094-.055.109-.096l.807-1.828c.018-.041.043-.107.059-.148l.25-.621c.012-.041.035-.109.051-.152l.723-1.285c.02-.039.049-.105.064-.146l.289-.809a.63.63 0 0 1 .078-.139l.129-.045c.016-.041.045-.107.064-.146l.559-1.062c.021-.039.062-.1.09-.135l.656-1.033a.839.839 0 0 0 .086-.135l.676-.672c.023-.037.053-.104.062-.146s.049-.098.086-.119l.162-.057c.021-.039.057-.102.074-.143l.023-.939a.38.38 0 0 1 .049-.148l.543-.605a.162.162 0 0 1 .139-.016l.254.061a.119.119 0 0 0 .109-.07l.242-.746c.029-.033.08-.086.113-.115l.33-.518c.023-.039.064-.1.088-.135l.17-.363a.08.08 0 0 0-.055-.1l-.635-.662a.267.267 0 0 1-.057-.141l.064-.287a.197.197 0 0 1 .055-.137l.914-.576a1.34 1.34 0 0 1 .137-.082l1.281-.592a.256.256 0 0 1 .15.004l.385.273c.027.037.07.037.098.002l.426-.504c.021-.039.051-.07.066-.072.014-.002.062-.045.086-.084l.047-.217c.039-.021.104-.055.143-.074l.48-.59c.031-.031.086-.078.121-.105l.734-.541c.035-.027.09-.074.121-.105l.104-.021a.195.195 0 0 1 .1-.104l.566-.496a.331.331 0 0 1 .139-.066l.191-.064a.178.178 0 0 1 .143-.004l.274.2zM176.32 121.748c.035.027.088.076.117.107l1.066 1.336c.02.039.047.105.061.148l.014.352a.346.346 0 0 1 .043.15l.174 2.822c-.006.043-.016.115-.025.158l-1.594 4.367a.548.548 0 0 1-.082.135l-.432.623a.485.485 0 0 1-.105.117l-.373.102a.117.117 0 0 1-.111-.066l-.029-.57a.205.205 0 0 1 .064-.133l1.393-1.471c.02-.041.045-.109.059-.15l.348-1.141c.01-.043.02-.115.023-.158l.197-.389a.598.598 0 0 1 .016-.158l.195-1.656c.008-.043.018-.115.018-.16l-1.15-3.818a.34.34 0 0 0-.107-.113l-1.041-.299a.162.162 0 0 1-.096-.102l-.141-.344c0-.043.02-.109.047-.145l.297-.326a.192.192 0 0 1 .145-.006l1.009.788zM174.029 124.551a.184.184 0 0 1 .076.121l-.086.98c.002.045.004.117 0 .16l-.342 1.096c-.018.039-.066.059-.105.039l-.15.078a.309.309 0 0 1-.066-.139l.025-.125a.401.401 0 0 0 .068-.141l.043-1.582a.611.611 0 0 1 .002-.16l-.02-.143a.522.522 0 0 1-.051-.15l.205-.387a.072.072 0 0 1 .096-.051l.305.404z" fill-rule="evenodd" clip-rule="evenodd"/><path d="M175.117 128.52a.174.174 0 0 1 .021.139l-.328.619a.511.511 0 0 0-.027.156l.041.18a.273.273 0 0 1-.109.104l-.432.447c-.037.025-.1.062-.139.082l-.357.092c-.039.018-.078-.002-.086-.047l.018-.664a.49.49 0 0 1 .078-.137l.703-1.148a.108.108 0 0 1 .109-.064l.508.241zM158.41 125.365a.15.15 0 0 1 .004.137l-.469.773a2.385 2.385 0 0 0-.133.09l-.367.453c-.027.035-.076.09-.107.119l-.314.346-.1.125-1.693 2.174c-.025.035-.066.096-.092.131l-.201.477a2.406 2.406 0 0 1-.094.131l-.863 1.473a3.18 3.18 0 0 0-.068.146l-1.016 1.893a1.367 1.367 0 0 0-.053.152l-.949 3.494a.28.28 0 0 0 .02.152l-.219.793c-.004.045-.021.047-.037.006l-.186-.688a.706.706 0 0 0 .016-.158l.326-1.232c.004-.045.014-.115.02-.16l.881-2.52c.014-.041.043-.107.064-.146l.514-1.191a.547.547 0 0 0 .062-.145l.277-.365a.535.535 0 0 1 .076-.139l.438-.973a.678.678 0 0 0 .09-.131l.629-.998c.02-.037.059-.1.084-.135l.287-.547c.031-.031.074-.053.096-.047s.059-.021.08-.059l1.191-1.582.105-.121.783-1.143a.618.618 0 0 0 .092-.129l.371-.639a.129.129 0 0 1 .131-.02l.324.203zM153.357 125.293a.504.504 0 0 1-.062.145l-.584.73a1.933 1.933 0 0 0-.07.145l-.047.107a1.347 1.347 0 0 0-.055.15l-.146.113a.426.426 0 0 1-.055.148l-.465.84a.994.994 0 0 0-.064.146l-.34.432a1.05 1.05 0 0 1-.057.15l-.473 1.031-.072.145-.994 1.984a1.361 1.361 0 0 0-.066.146l-.039.107a3.392 3.392 0 0 0-.053.152l-.242.258a1.125 1.125 0 0 1-.072.143l-.502 1.109-.068.146-.121.156c0 .045-.016.084-.035.09-.02.004-.07.051-.09.092l-.693 1.74c-.02.039-.047.107-.062.148l-.387 1.199c-.012.041-.035.109-.049.152l-.398.619c-.021.039-.037.035-.035-.01l-.027-.482a.582.582 0 0 0 .092-.131l.424-1.326a.677.677 0 0 0 .057-.148l.301-.557a.66.66 0 0 1 .055-.148l.377-1.057a.643.643 0 0 0 .049-.152l.361-.51a.515.515 0 0 1 .057-.148l.217-.67a.465.465 0 0 0 .07-.141l.357-.494c.014-.043.043-.107.064-.146l.309-.695.094-.131.264-.727a.458.458 0 0 0 .053-.146l.223-.27a.268.268 0 0 1 .023-.15l.232-.41a.912.912 0 0 1 .072-.143l.375-.83a.788.788 0 0 0 .066-.145l.221-.379a.449.449 0 0 1 .061-.145l.506-.994a.398.398 0 0 1 .092-.125l.309-.41c.021-.039.061-.098.088-.133l.297-.502a.627.627 0 0 1 .094-.129l.26-.586a.07.07 0 0 1 .107-.008l.196.655zM151.23 125.918c.045-.002.061.025.035.062l-.809 1.676a.78.78 0 0 0-.09.131l-.213.348c-.01.043-.029.076-.043.074-.012-.004-.039.025-.061.064l-.297.795a1.913 1.913 0 0 0-.068.145l-.291.611a1.176 1.176 0 0 1-.064.146l-.326.705a1.944 1.944 0 0 1-.076.141l-.346.633a1.368 1.368 0 0 0-.047.154l-.02.078a3.46 3.46 0 0 1-.041.154l-.23.096a.35.35 0 0 1-.049.148l-.215.617a.227.227 0 0 1-.115.094l-.1.025a.09.09 0 0 1-.057-.104l.367-.977c.025-.037.066-.096.092-.131l.365-.801a.957.957 0 0 0 .072-.143l.27-.4c.018-.041.047-.107.066-.146l.326-.838c.02-.039.051-.104.068-.145l.254-.537c.014-.041.035-.111.047-.152l.594-1.15c.016-.041.045-.105.068-.145l.381-.992c.025-.037.07-.094.1-.125l.453-.111zM149.914 126.398a.166.166 0 0 1 .004.141l-.703 1.094a4.928 4.928 0 0 0-.064.146l-1.018 2.688a.294.294 0 0 1-.09.123l-.008.006c-.035.025-.061.01-.055-.033l.279-1.521a3.34 3.34 0 0 1 .059-.15l.672-1.629a.938.938 0 0 1 .078-.139l.24-.297c.01-.043.031-.111.049-.152l.221-.383a.175.175 0 0 1 .119-.076l.217.182zM175.07 133.199c.031.029.045.09.029.131l-.469.877a.36.36 0 0 0-.076.135c-.01.043-.039.084-.062.092-.025.008-.107.066-.117.105-.008.039-.023.068-.031.066-.01-.002-.033.027-.057.066l-.443.895a.45.45 0 0 1-.109.113l-.469.025c-.045.008-.076-.021-.07-.066l-.248-.84a.301.301 0 0 0-.053-.145l-.332-.666a4.16 4.16 0 0 0-.123-.102l-.752-.512a.145.145 0 0 0-.137-.008l-.01.004a.08.08 0 0 1-.109-.033l-.191-.137a.171.171 0 0 1-.035-.137l.008-.031a.073.073 0 0 1 .094-.053l1.727.926c.031.029.084.08.113.111l.238.496a.288.288 0 0 0 .104.104c.037.018.156.033.174-.008l.379-.541a.56.56 0 0 0 .047-.152l.195-.439c.025-.035.064-.098.084-.137l.285-.281a.089.089 0 0 1 .105-.055l.311.197zM159.102 130.236c.037.025.035.064-.002.088l-.146.303a.517.517 0 0 0-.131.09l-.367.365a.82.82 0 0 0-.094.129l-.217.23a.352.352 0 0 0-.086.131l-.295.33a2.391 2.391 0 0 0-.074.143l-.326.59c-.025.037-.061.1-.08.139l-.236.41a.703.703 0 0 1-.074.141l-.512.912c-.02.039-.053.104-.072.145l-.373.822a1.936 1.936 0 0 1-.051.152l-.076.811-.021.135c-.008.029-.051.051-.094.049l-.232-.182a.18.18 0 0 1-.057-.131l.457-1.432c.018-.041.049-.105.07-.145l.352-.887a1.36 1.36 0 0 0 .088-.135l.662-1.137c.02-.039.055-.102.078-.141l.324-.525a.886.886 0 0 1 .092-.131l.217-.359c.025-.037.062-.098.086-.137l.902-.742a.313.313 0 0 1 .137-.072l.151.041zM162.562 132.465a.167.167 0 0 1-.002.143l-.176.193a1.075 1.075 0 0 1-.078.141l-.389 1.006c-.02.041-.053.104-.074.143l-.506 1.074a1.35 1.35 0 0 0-.043.154l-.25.404a.786.786 0 0 1-.053.15l-.57 1.373a2.41 2.41 0 0 1-.078.141l-.371.744a.395.395 0 0 1-.088.129l-.119.135a.079.079 0 0 1-.096.059l-.031-.008c-.043-.01-.062-.049-.043-.09l.371-1.139a1.47 1.47 0 0 1 .072-.143l.496-.832.084-.137.32-.912a.789.789 0 0 0 .082-.137l.652-1.551a.97.97 0 0 0 .051-.152l.303-.676a.795.795 0 0 1 .1-.125l.023-.268a.259.259 0 0 1 .148-.018l.265.199zM172.158 135.564a.2.2 0 0 1 .055.137l-.215.414c-.018.041-.047.107-.062.148l-.652 1.186a.948.948 0 0 1-.08.139l-.234.385a.921.921 0 0 0-.061.146l-.34.465a.97.97 0 0 1-.051.152l-.418.732a2.392 2.392 0 0 0-.072.143l-.621.883c-.02.039-.051.104-.068.145l-.676 1.314c-.02.039-.059.102-.084.137l-1.156 1.309a.423.423 0 0 0-.066.143l-.008.031a.345.345 0 0 1-.074.137l-.354.367-.105.121-1.201 1.357c-.031.029-.08.084-.107.119l-.977 1.092a1.996 1.996 0 0 1-.115.111l-3.064 2.596a1.37 1.37 0 0 1-.139.082l-.777.066c-.045-.004-.045-.018-.004-.031l.406-.184a.342.342 0 0 0 .145-.055l1.32-1.109c.033-.029.09-.074.127-.1l.223-.123a.85.85 0 0 1 .109-.115l1.176-1.021c.031-.031.082-.084.111-.117l2.346-2.668c.027-.035.078-.086.111-.115l.568-.752c.031-.031.076-.088.102-.125l1.266-1.725c.021-.037.027-.09.012-.117-.018-.027-.01-.078.016-.115l.238-.295a.672.672 0 0 1 .059-.148l.654-1.238c.018-.041.039-.109.049-.152l.479-.664c.018-.041.051-.104.076-.141l.262-.492c.021-.039.061-.1.086-.137l.506-.719a.586.586 0 0 0 .072-.141l.627-1.555a.134.134 0 0 1 .1-.09s.008-.018.035-.051a.157.157 0 0 1 .127-.055l.318.293zM164.969 133.965c.029.031.035.09.014.127l-1.217 2.482a.898.898 0 0 1-.098.127l-.412.623a2.386 2.386 0 0 1-.064.146l-.281.25a1.93 1.93 0 0 1-.057.15l-.488.748a.792.792 0 0 1-.092.131l-.197.49a.237.237 0 0 0-.068.133l-.258.221a.79.79 0 0 1-.062.146l-1.502 1.904c-.027.033-.086.053-.129.043s-.07-.053-.059-.096l.006-.031c.012-.043.039-.086.064-.094.023-.008.131-.049.172-.066l.059-.316a.317.317 0 0 0 .119-.098l.902-1.186.09-.133.393-.777c.023-.037.061-.1.078-.141l.441-.494a3.17 3.17 0 0 1 .082-.139l.631-1.197c.023-.039.072-.088.109-.111s.062-.162.072-.205l.32-.354a.325.325 0 0 1 .074-.135l.154-.535a.335.335 0 0 0 .076-.135l.182-.109a.372.372 0 0 1 .033-.15l.484-1.195a.172.172 0 0 1 .107-.094l.322.07z" fill-rule="evenodd" clip-rule="evenodd"/><path d="M168.438 136.09a.174.174 0 0 1 .02.141l-.412 1.092a1.215 1.215 0 0 1-.055.15l-2.084 3.775a.71.71 0 0 1-.094.129l-.322.619c-.027.035-.07.092-.1.127l-1.615 2.078a.336.336 0 0 1-.086.08.577.577 0 0 0-.145.098l-.578.74c-.029.033-.08.084-.111.115l-.34.342c-.031.031-.086.08-.121.107l-.326.271a.468.468 0 0 0-.1.121l-.521.436a.07.07 0 0 0 .008.107l-.039.416a.093.093 0 0 1-.012.119l-.854 1.121a.527.527 0 0 0-.059.146l-.303.193a2.184 2.184 0 0 1-.035.156l-.221.547a.948.948 0 0 0-.066.145l-.361 1.9a.522.522 0 0 0-.008.158l-.121.164a.072.072 0 0 1-.107.014l-.234-.301a.264.264 0 0 1-.012-.15l.689-2.646c.014-.043 0-.051-.029-.016l-.299.131a2.071 2.071 0 0 0-.105.121l-.822.516c-.037.021-.096.016-.127-.016l-.33-.453c-.02-.039-.061-.045-.09-.012l-1.5.693c-.033.029-.066.018-.072-.027l-.025-.492a1.54 1.54 0 0 1 .061-.148l.209-.1a.25.25 0 0 0 .004-.1c-.008-.01 0-.053.018-.094l.273-.416c.016-.041-.004-.062-.045-.047l-.725.367a.443.443 0 0 0-.109.111l-1.041.404c-.035.027-.074.014-.084-.029l-.07-.621a.082.082 0 0 1 .102-.051l.723-.184c.043.01.113.008.154-.006l1.232-.734a.657.657 0 0 0 .129-.092l.361-.092a.796.796 0 0 0 .102-.121l.934-.279c.039-.018.059 0 .039.041l-.291.461c-.035.029-.094.07-.133.092l-.492.492a1.076 1.076 0 0 1-.098.127l-.258.463c-.016.041.008.078.053.084l.109-.17a.71.71 0 0 0 .125-.02.66.66 0 0 0 .143-.096l.236-.318.158-.027.447.096c.041.014.07.062.062.105l.012.475c.01.043.039.051.066.016l.529-.211a.31.31 0 0 1 .141-.062l.189-.316a.346.346 0 0 0 .133-.08l.262-.08a.548.548 0 0 1 .135-.082l.291-.463c.039-.018.105-.049.145-.07l.182-.303a.112.112 0 0 0-.012-.127l-.141-.221c0-.045.012-.098.025-.117s.072-.084.115-.086l.514-.184c.033-.029.09-.074.127-.098l.502-.551c.035-.027.094-.066.131-.09l.643-.629a.4.4 0 0 1 .135-.08l.32-.371c.039-.021.09-.045.115-.055a.421.421 0 0 0 .131-.102l.445-.619c.027-.035.074-.09.104-.121l.354-.367a.356.356 0 0 0 .072-.139.502.502 0 0 1 .07-.141l.152-.154c.018-.041.051-.105.076-.143l.852-1.145c.02-.039.057-.1.08-.137l.705-1.146c.021-.039.053-.105.072-.145l1.033-1.973c.018-.041.018-.096.002-.123-.016-.025-.021-.082-.014-.127l.406-.646.037-.156-.012-.885a.374.374 0 0 1 .025-.152l.238-.188a.122.122 0 0 1 .127-.031l.282.372zM159.756 136.143c.043.012.053.045.023.076l-.66.818a.33.33 0 0 0-.098.121l-.332.318a5.063 5.063 0 0 1-.062.148l-.09.182a.281.281 0 0 0-.084.127l-.166.703c-.012.043-.055.08-.1.08h-.039a.123.123 0 0 1-.107-.074l.014-.523.016-.137a.826.826 0 0 1 .086-.197l.764-1.291a.824.824 0 0 0 .098-.127l.52-.211a.182.182 0 0 1 .141-.031l.076.018zM155.916 145.17c.021.039.016.1-.012.135l-.49.836a.53.53 0 0 0-.049.152l-.293.359a.541.541 0 0 1-.066.145l-.203.588a4.865 4.865 0 0 0-.074.143l-.396.734a.288.288 0 0 0 0 .154l.004.328a.112.112 0 0 1-.107.068l-.186-.021a.54.54 0 0 1-.105-.119l-.094-.283a.316.316 0 0 1 .023-.152l.307-.725.068-.145.531-.871.076-.143.391-.855c.021-.037.006-.059-.037-.045l-.736.322a3.214 3.214 0 0 0-.141.08l-.684.512a.647.647 0 0 1-.145.07l-.291.311c-.037.021-.1.059-.137.084l-.391.008a.133.133 0 0 1-.098-.094l-.02-.377a.132.132 0 0 1 .096-.092l.818-.416a.328.328 0 0 0 .148-.041l1.064-.68.145-.07.391-.223c.045-.004.115-.014.16-.021l.533.344z" fill-rule="evenodd" clip-rule="evenodd"/><path fill="#004775" d="M23.133 108.492h144.369v1.555H23.133v-1.555z"/><path d="M39.674 117.992l1.846-5.561c.065-.178-.146-.348.129-.461.308-.121.794-.064 1.021.09.146.096 0 .291-.098.469l1.49 5.689c.065.211.373.574-.388.574-.81 0-.616-.322-.486-.631l-.291-1.027-2.121.211-.227.646c-.097.283.064.615-.681.615-.648.001-.47-.29-.194-.614zm3.109-1.238l-.745-3.254-1.101 3.439 1.846-.185zM48.997 117.92v-5.391c-.049-.105-.227-.299.291-.299.421 0 .777.25.583.518v2.752l2.38-.445v-2.695c0-.178-.308-.559.292-.559.308 0 .615.105.712.283.081.146-.033.316-.129.445v5.365c0 .131.227.389.081.551-.097.105-.469.17-.745.139-.518-.064-.373-.471-.21-.826v-2.299l-2.38.445v1.967c0 .211.647.705-.291.705-1.022 0-.584-.43-.584-.656zM54.048 117.992l1.846-5.561c.065-.178-.146-.348.129-.461.308-.121.794-.064 1.02.09.146.096 0 .291-.097.469l1.489 5.689c.065.211.373.574-.388.574-.81 0-.616-.322-.486-.631l-.291-1.027-2.121.211-.227.646c-.098.283.064.615-.68.615-.648.001-.47-.29-.194-.614zm3.109-1.238l-.745-3.254-1.101 3.439 1.846-.185zM59.082 117.943v-5.18c-.178-.105-.259-.258-.129-.355.227-.17 1.101-.299 1.101-.299.842-.227 2.947-.559 2.947.396 0 1.002-1.101 1.684-2.202 2.443 1.635-.412 2.429.121 2.429.713 0 1.537-3.255 3.391-3.918 3.107-.536-.225-.228-.354-.228-.825zm3.271-2.281c0-.744-1.554-.381-2.396-.098v2.559c1.246-.535 2.396-1.588 2.396-2.461zm-.227-3.223c0-.217-1.263-.234-2.169.211v2.219c1.294-.914 2.169-1.498 2.169-2.43zM63.809 118.234v-5.924c0-.129-.194-.211 0-.34.178-.121.502-.178.81-.113.551.113.065.631.065.857v5.473c0 .096.243.145.194.242-.048.129-.291.178-.55.178-.649 0-.616-.25-.519-.373zM67.531 117.977v-5.471l-.842.064c-.356.023-.405.162-1.069.033-.308-.059-.356-.373-.032-.438.308-.066.567.031.923.008l3.368-.195c.259-.072.566-.129.89-.129.421 0 .713.615.211.615s-.535-.113-.891-.09l-1.684.098v5.357c.551.453.631.898-.308.932-.988.032-.939-.509-.566-.784zM70.572 117.992l1.846-5.561c.064-.178-.146-.348.129-.461.307-.121.793-.064 1.02.09.146.096 0 .291-.097.469l1.49 5.689c.064.211.372.574-.389.574-.81 0-.615-.322-.486-.631l-.292-1.027-2.121.211-.227.646c-.097.283.064.615-.68.615-.646.001-.468-.29-.193-.614zm3.109-1.238l-.745-3.254-1.101 3.439 1.846-.185zM77.208 117.977v-5.471l-.842.064c-.356.023-.404.162-1.068.033-.308-.059-.356-.373-.032-.438.308-.066.566.031.923.008l3.368-.195c.259-.072.567-.129.891-.129.421 0 .712.615.21.615s-.534-.113-.891-.09l-1.684.098v5.357c.55.453.631.898-.308.932-.988.032-.94-.509-.567-.784zM85.608 118.041v-5.293c-.291-.186-.275-.631.389-.631.324 0 .485.137.777.098l1.846-.26c.308-.041.518-.113.777-.113.55 0 .566.551.129.551-.324 0-.421-.018-.583-.033l-2.462.389v3.367l.713-.129c.324-.057 1.328-.34 1.328.209 0 .227-.535.34-.972.34-.162 0-.21-.121-.356-.096l-.713.129v1.521c.195.234.292.533-.485.533-1.084 0-.728-.355-.388-.582z" fill-rule="evenodd" clip-rule="evenodd" fill="#a53421"/><path d="M89.299 115.24c0-1.416.437-3.383 2.85-3.383 2.072 0 2.752 1.967 2.752 3.383 0 1.482-.631 3.48-2.817 3.48-2.461.001-2.785-1.997-2.785-3.48zm4.728 0c-.017-1.189-.502-2.979-1.943-2.979-1.327 0-1.91 1.781-1.91 2.979 0 1.207.243 3.076 1.91 3.076 1.652 0 1.975-1.877 1.943-3.076zM95.594 118.188v-5.439c0-.211-.486-.299 0-.533.21-.105.485-.115.777-.098 1.457-.324 4.273-.721 4.273 1.408 0 1.117-1.975 1.846-3.561 2.566l2.979 1.512c.422.211 1.15.244 1.068.535-.064.242-.469.484-.939.404-.34-.057-.598-.283-.615-.551l-3.108-1.553v1.699c0 .186.275.34 0 .484-.292.162-.939.105-1.069-.096-.08-.13.114-.21.195-.338zm4.177-4.663c0-1.676-2.023-1.15-3.303-.875v3.109c1.764-.671 3.303-1.392 3.303-2.234zM105.678 117.92v-5.391c-.049-.105-.227-.299.291-.299.422 0 .777.25.584.518v2.752l2.379-.445v-2.695c0-.178-.307-.559.293-.559.307 0 .615.105.711.283.082.146-.031.316-.129.445v5.365c0 .131.227.389.082.551-.098.105-.471.17-.746.139-.518-.064-.373-.471-.211-.826v-2.299l-2.379.445v1.967c0 .211.646.705-.291.705-1.022 0-.584-.43-.584-.656zM110.6 112.359c0-.186-.193-.268-.016-.389.275-.193 1.117-.049 1.182.195.049.145-.146.227-.291.34 0 1.869-.309 5.803 2.072 5.803 2.379 0 2.072-3.684 2.072-5.795-.146-.211-.242-.623.453-.623.744 0 .793.314.422.566 0 2.314.371 6.256-2.947 6.256-3.32.001-2.947-3.941-2.947-6.353zM117.334 118.041v-5.633c-.178-.193-.033-.469.389-.535.486-.072 1.068.17 1.068.438s-.162.486 0 .777l2.234 4.176 2.623-4.758c.146-.268-.113-.584.324-.697.566-.145 1.49.211 1.004.648v5.342c.033.25.486.389.324.631-.162.234-.713.219-1.166.113-.422-.098-.129-.355-.033-.648v-4.773l-2.201 4.225c.031.113.08.258.031.42-.113.404-.389.857-1.197.857-.842 0-.34-.775-.582-1.277l-1.943-3.838v4.34c0 .266.615.355.098.68-.26.162-.777.193-1.07.049-.292-.148.097-.326.097-.537zM126.174 117.992l1.846-5.561c.064-.178-.145-.348.131-.461.307-.121.793-.064 1.02.09.145.096 0 .291-.098.469l1.49 5.689c.064.211.371.574-.389.574-.811 0-.615-.322-.486-.631l-.291-1.027-2.121.211-.227.646c-.098.283.064.615-.68.615-.648.001-.471-.29-.195-.614zm3.109-1.238l-.744-3.254-1.102 3.439 1.846-.185zM131.209 118.041v-5.633c-.033-.154-.244-.404.389-.438.986-.049.502.404.646.584l3.627 4.678v-4.727c-.227-.244-.049-.52.291-.584a.633.633 0 0 1 .648.26c.08.121 0 .211-.064.324v5.438c.113.188.469.332.291.535-.211.242-.971.396-1.328.193-.307-.17.146-.404-.031-.631l-3.596-4.646v4.711c.162.17.422.195.293.389-.146.211-.746.219-1.07.098-.436-.162-.096-.332-.096-.551zM137.812 118.234v-5.924c0-.129-.193-.211 0-.34.18-.121.502-.178.811-.113.551.113.064.631.064.857v5.473c0 .096.244.145.195.242-.049.129-.293.178-.551.178-.647 0-.614-.25-.519-.373zM141.535 117.977v-5.471l-.842.064c-.357.023-.406.162-1.07.033-.307-.059-.355-.373-.031-.438.307-.066.566.031.922.008l3.369-.195a3.35 3.35 0 0 1 .891-.129c.42 0 .713.615.211.615s-.535-.113-.891-.09l-1.686.098v5.357c.551.453.633.898-.307.932-.988.032-.939-.509-.566-.784zM145.145 118.414c-.113-.227.42-.309.566-.52l1.943-2.67-1.75-2.574c-.113-.17-.436-.268-.34-.436.131-.219.615-.309 1.053-.252.6.08.049.494.26.785l1.262 1.797 1.555-2.186c.146-.211.324-.438.777-.438.422 0 .746.178.777.389.033.252-.762.227-.922.461l-3.74 5.236c.096.381 0 .713-.486.77-.582.066-.875-.192-.955-.362zM46.976 126.73l-1.749-5.033c-.081-.219-.47-.332-.292-.535.178-.209.632-.291 1.068-.242.696.08.033.574.162.922l1.49 4.227 1.943-4.566c.097-.234-.227-.51.194-.631.405-.121.923 0 1.166.195.324.25-.421.436-.55.729l-2.202 4.969c.113.242.356.355.227.582-.129.219-.502.309-.939.309-.744-.002-.389-.56-.518-.926zM50.44 126.941l1.846-5.561c.065-.178-.146-.348.129-.461.308-.121.793-.064 1.02.09.146.096 0 .291-.097.469l1.49 5.689c.065.211.373.574-.389.574-.81 0-.615-.322-.486-.631l-.291-1.027-2.121.211-.227.646c-.097.283.065.615-.68.615-.647.002-.469-.289-.194-.614zm3.109-1.238l-.745-3.254-1.101 3.439 1.846-.185zM55.393 124.238c0-1.725.972-3.416 2.559-3.416 1.732 0 1.83 1.57 1.83 2.574.129.129.033.404-.292.453-.324.049-.68-.098-.81-.275-.113-.17.243-.42.227-.453.162-.314-.097-1.895-.923-1.895-.793 0-1.716 1.539-1.716 3.027 0 1.539 1.052 3.109 1.716 3.109.647 0 1.295-1.369 1.538-2.219-.129-.162-.194-.324.098-.404.372-.105.89-.041 1.003.064.194.178-.081.348-.356.438-.34 1.043-.81 2.525-2.25 2.525-1.668.002-2.624-1.756-2.624-3.528zM60.703 126.941l1.846-5.561c.065-.178-.146-.348.13-.461.308-.121.793-.064 1.02.09.146.096 0 .291-.097.469l1.489 5.689c.065.211.373.574-.389.574-.809 0-.615-.322-.485-.631l-.292-1.027-2.121.211-.227.646c-.097.283.065.615-.68.615-.647.002-.469-.289-.194-.614zm3.109-1.238l-.745-3.254-1.101 3.439 1.846-.185zM67.338 126.926v-5.471l-.842.064c-.356.023-.405.162-1.069.031-.307-.057-.356-.371-.032-.436.308-.066.566.031.923.008l3.368-.195c.259-.072.567-.129.891-.129.421 0 .712.615.21.615s-.534-.113-.891-.09l-1.684.098v5.357c.551.453.632.898-.307.932-.988.032-.939-.509-.567-.784z" fill-rule="evenodd" clip-rule="evenodd" fill="#a53421"/><path d="M71.223 127.184v-5.924c0-.129-.194-.211 0-.34.178-.121.502-.178.81-.113.551.113.065.631.065.857v5.473c0 .096.243.145.194.242-.048.129-.291.178-.55.178-.649 0-.616-.25-.519-.373zM73.001 124.189c0-1.416.438-3.383 2.85-3.383 2.073 0 2.752 1.967 2.752 3.383 0 1.48-.631 3.48-2.817 3.48-2.461.001-2.785-1.999-2.785-3.48zm4.728 0c-.016-1.189-.502-2.979-1.943-2.979-1.328 0-1.911 1.781-1.911 2.979 0 1.207.243 3.076 1.911 3.076 1.652.001 1.976-1.878 1.943-3.076zM79.134 126.99v-5.633c-.032-.154-.243-.404.389-.438.988-.049.502.404.648.582l3.626 4.68v-4.727c-.227-.244-.048-.52.292-.584a.635.635 0 0 1 .648.26c.081.121 0 .211-.064.324v5.438c.113.186.469.332.291.535-.21.242-.972.396-1.328.193-.308-.17.146-.404-.032-.631l-3.595-4.646v4.711c.162.17.421.195.292.389-.146.211-.745.219-1.069.098-.438-.162-.098-.332-.098-.551zM90.093 126.893v-5.18c-.178-.105-.259-.258-.129-.355.227-.17 1.101-.301 1.101-.301.842-.227 2.947-.557 2.947.398 0 1.002-1.101 1.682-2.202 2.443 1.635-.412 2.429.121 2.429.713 0 1.537-3.254 3.391-3.918 3.107-.536-.226-.228-.355-.228-.825zm3.27-2.282c0-.746-1.554-.381-2.396-.098v2.557c1.247-.533 2.396-1.586 2.396-2.459zm-.226-3.222c0-.219-1.263-.234-2.169.211v2.219c1.294-.917 2.169-1.499 2.169-2.43zM94.82 127.184v-5.924c0-.129-.194-.211 0-.34.178-.121.502-.178.81-.113.551.113.065.631.065.857v5.473c0 .096.243.145.194.242-.048.129-.292.178-.55.178-.649 0-.616-.25-.519-.373zM96.663 126.893v-5.18c-.178-.105-.259-.258-.129-.355.227-.17 1.102-.301 1.102-.301.842-.227 2.947-.557 2.947.398 0 1.002-1.102 1.682-2.203 2.443 1.637-.412 2.43.121 2.43.713 0 1.537-3.256 3.391-3.918 3.107-.537-.226-.229-.355-.229-.825zm3.271-2.282c0-.746-1.555-.381-2.396-.098v2.557c1.245-.533 2.396-1.586 2.396-2.459zm-.227-3.222c0-.219-1.264-.234-2.17.211v2.219c1.295-.917 2.17-1.499 2.17-2.43zM101.424 126.893v-5.391c0-.209-.52-.322.031-.502.438-.145 1.102.123 1.037.389-.033.121-.146.236-.195.309 0 0-.031 5.082 0 5.342.486-.049 1.23-.129 1.555-.195.404-.047.68-.234 1.068.066.211.16.049.273-.324.42-.227.09-.518.041-.744-.049l-1.264.178c-.355.049-.502.227-.873.195-.584-.05-.453-.495-.291-.762z" fill-rule="evenodd" clip-rule="evenodd" fill="#a53421"/><path d="M105.051 127.428c.08-.139.355-.211.355-.211l-.033-5.326c0-.129-.178-.219-.096-.34.096-.137.291-.209.582-.242.26-.033.453.033.68.098.357-.09 1.199-.268 1.555-.35.404-.186 1.264-.25 1.264.025 0 .211-.178.42-.584.42-.26 0-.453-.057-.68 0l-1.812.438v3.27l1.619-.389c.502-.121 1.359-.031 1.359.227 0 .154-.146.293-.422.293-.307 0-.518-.018-.842-.098l-1.715.438v1.439c.371-.113 1.877-.438 2.33-.438.26 0 .697.18.697.324 0 .178-.244.275-.438.275-.324.008-.422-.031-.777-.113l-1.652.355c-.242.049-.355.162-.615.162-.453.001-.873-.103-.775-.257zM114.322 126.213c-.113-.211-.469-.332-.291-.533.178-.195.566-.316.971-.244.502.09.211.445.098.68.275.592.486 1.15 1.457 1.15.922 0 1.359-.672 1.359-1.102 0-1.82-3.885-1.205-3.885-3.398 0-.947 1.441-1.959 2.688-1.959 2.039 0 2.008 1.684 2.008 2.443.064.188.113.365-.162.471-.389.145-.777.023-.875-.146-.08-.121.082-.234.227-.324 0-.582 0-2.031-1.197-2.031-.664 0-1.814.826-1.814 1.547 0 2.047 3.887 1.238 3.887 3.398 0 .689-.697 1.506-2.234 1.506-1.75-.001-2.043-.989-2.237-1.458zM119.324 124.238c0-1.725.973-3.416 2.559-3.416 1.732 0 1.83 1.57 1.83 2.574.129.129.033.404-.291.453s-.68-.098-.811-.275c-.113-.17.244-.42.227-.453.162-.314-.096-1.895-.922-1.895-.793 0-1.717 1.539-1.717 3.027 0 1.539 1.053 3.109 1.717 3.109.646 0 1.295-1.369 1.537-2.219-.129-.162-.193-.324.098-.404.373-.105.891-.041 1.004.064.195.178-.08.348-.355.438-.34 1.043-.811 2.525-2.25 2.525-1.669.002-2.626-1.756-2.626-3.528zM125.055 126.869v-5.391c-.049-.105-.227-.299.291-.299.422 0 .777.25.584.518v2.752l2.379-.445v-2.695c0-.178-.307-.559.291-.559.309 0 .615.105.713.283.082.146-.031.316-.129.445v5.365c0 .131.227.389.08.551-.096.105-.469.17-.744.139-.518-.066-.373-.471-.211-.826v-2.299l-2.379.445v1.967c0 .211.646.703-.293.703-1.02 0-.582-.427-.582-.654zM129.943 124.189c0-1.416.438-3.383 2.85-3.383 2.072 0 2.754 1.967 2.754 3.383 0 1.48-.633 3.48-2.818 3.48-2.461.001-2.786-1.999-2.786-3.48zm4.729 0c-.016-1.189-.502-2.979-1.943-2.979-1.328 0-1.91 1.781-1.91 2.979 0 1.207.242 3.076 1.91 3.076 1.652.001 1.976-1.878 1.943-3.076zM136.012 124.189c0-1.416.438-3.383 2.85-3.383 2.072 0 2.752 1.967 2.752 3.383 0 1.48-.631 3.48-2.816 3.48-2.462.001-2.786-1.999-2.786-3.48zm4.728 0c-.016-1.189-.502-2.979-1.943-2.979-1.328 0-1.91 1.781-1.91 2.979 0 1.207.242 3.076 1.91 3.076 1.652.001 1.974-1.878 1.943-3.076zM142.145 126.893v-5.391c0-.209-.518-.322.033-.502.438-.145 1.102.123 1.035.389-.031.121-.145.236-.193.309 0 0-.033 5.082 0 5.342.486-.049 1.23-.129 1.555-.195.404-.047.68-.234 1.068.066.211.16.049.273-.324.42-.227.09-.518.041-.744-.049l-1.264.178c-.355.049-.502.227-.873.195-.584-.05-.456-.495-.293-.762z" fill-rule="evenodd" clip-rule="evenodd" fill="#a53421"/><path d="M143.977 135.379c-13.449 5.535-30.057 8.973-48.081 9.336-42.055.85-77.085-15.338-82.476-37.035l.584-2.631c4.952 21.803 39.648 38.693 81.713 38.693 18.027 0 34.701-3.101 48.26-8.363z" fill-rule="evenodd" clip-rule="evenodd" fill="#004775"/><path d="M143.93 135.258l.096.24s0 .002-.002.002c-6.852 2.818-14.52 5.094-22.775 6.697-7.971 1.547-16.49 2.469-25.349 2.648-20.924.422-40.112-3.369-54.784-9.959-14.864-6.674-25.099-16.225-27.82-27.178v-.059l.584-2.629.252-.002c2.481 10.926 12.47 20.617 27.124 27.557 14.503 6.869 33.573 11.037 54.463 11.037 8.847 0 17.369-.748 25.355-2.131 8.27-1.432 15.967-3.549 22.856-6.223zm-12.123 4.168a130.462 130.462 0 0 1-10.691 2.311c-8 1.387-16.537 2.137-25.398 2.137-20.929 0-40.037-4.178-54.573-11.062-14.482-6.857-24.432-16.406-27.135-27.188l-.457 2.053c2.711 10.861 12.888 20.338 27.667 26.975 14.638 6.574 33.788 10.357 54.674 9.936 8.847-.178 17.351-1.098 25.308-2.643a131.606 131.606 0 0 0 10.605-2.519z" fill="#004775"/><path d="M58.239 60.428c11.186-3.279 23.893-5.24 37.388-5.476 39.154-.685 72.178 13.379 80.855 32.844l-.496 2.062c-8.336-19.613-41.109-34.252-80.269-34.252-13.498 0-26.237 1.74-37.478 4.822z" fill-rule="evenodd" clip-rule="evenodd" fill="#004775"/><path d="M58.273 60.553l-.07-.249h.002l.016-.004c5.677-1.663 11.745-2.988 18.106-3.919a151.733 151.733 0 0 1 19.298-1.558c19.398-.339 37.297 2.94 51.48 8.701 14.482 5.883 25.1 14.359 29.494 24.22l.008.083-.496 2.062-.244.021c-4.197-9.872-14.613-18.484-28.932-24.594-14.049-5.996-31.852-9.579-51.218-9.579-6.646 0-13.105.421-19.29 1.217-6.37.818-12.454 2.036-18.154 3.599zm14.431-3.332c1.219-.189 2.45-.364 3.691-.524 6.2-.797 12.67-1.22 19.322-1.22 19.402 0 37.24 3.591 51.32 9.6 14.207 6.062 24.594 14.589 28.912 24.376l.396-1.644c-4.379-9.78-14.936-18.194-29.338-24.045-14.152-5.749-32.016-9.021-51.378-8.683-6.643.116-13.094.651-19.265 1.555-1.232.181-2.451.376-3.66.585z" fill="#004775"/></svg>