<svg fill="none" height="102" viewBox="0 0 102 102" width="102" xmlns="http://www.w3.org/2000/svg"><g fill="#fff" fill-opacity=".08"><path d="m1.8667 33.1959c1.03095 0 1.8667.8361 1.8667 1.8676s-.83575 1.8677-1.8667 1.8677c-1.030956 0-1.86669995-.8362-1.8667-1.8677s.835744-1.8676 1.8667-1.8676z"/><path d="m18.2939 33.1959c1.031 0 1.8667.8361 1.8667 1.8676s-.8357 1.8677-1.8667 1.8677c-1.0309 0-1.8667-.8362-1.8667-1.8677s.8358-1.8676 1.8667-1.8676z"/><path d="m34.7209 33.1952c1.031 0 1.8667.8362 1.8667 1.8677 0 1.0314-.8357 1.8676-1.8667 1.8676-1.0309 0-1.8667-.8362-1.8667-1.8676 0-1.0315.8358-1.8677 1.8667-1.8677z"/><path d="m50.9341 33.1952c1.0309 0 1.8667.8362 1.8667 1.8677 0 1.0314-.8358 1.8676-1.8667 1.8676-1.031 0-1.8667-.8362-1.8667-1.8676 0-1.0315.8357-1.8677 1.8667-1.8677z"/><path d="m1.8667 16.7607c1.03095 0 1.8667.8362 1.8667 1.8676 0 1.0315-.83575 1.8677-1.8667 1.8677-1.030956 0-1.86669995-.8362-1.8667-1.8677-.00000005-1.0314.835744-1.8676 1.8667-1.8676z"/><path d="m18.2939 16.7607c1.031 0 1.8667.8362 1.8667 1.8676 0 1.0315-.8357 1.8677-1.8667 1.8677-1.0309 0-1.8667-.8362-1.8667-1.8677 0-1.0314.8358-1.8676 1.8667-1.8676z"/><path d="m34.7209 16.7607c1.031 0 1.8667.8362 1.8667 1.8676 0 1.0315-.8357 1.8677-1.8667 1.8677-1.0309 0-1.8667-.8362-1.8667-1.8677 0-1.0314.8358-1.8676 1.8667-1.8676z"/><path d="m50.9341 16.7607c1.0309 0 1.8667.8362 1.8667 1.8676 0 1.0315-.8358 1.8677-1.8667 1.8677-1.031 0-1.8667-.8362-1.8667-1.8677 0-1.0314.8357-1.8676 1.8667-1.8676z"/><path d="m1.8667.325195c1.03095 0 1.8667.836195 1.8667 1.867665 0 1.03146-.83575 1.86763-1.8667 1.86763-1.030956 0-1.86669995-.83617-1.8667-1.86763-.00000005-1.03147.835744-1.867665 1.8667-1.867665z"/><path d="m18.2939.325195c1.031 0 1.8667.836195 1.8667 1.867665 0 1.03146-.8357 1.86763-1.8667 1.86763-1.0309 0-1.8667-.83617-1.8667-1.86763 0-1.03147.8358-1.867665 1.8667-1.867665z"/><path d="m34.7209.325546c1.031 0 1.8667.836164 1.8667 1.867634 0 1.03146-.8357 1.86763-1.8667 1.86763-1.0309 0-1.8667-.83617-1.8667-1.86763 0-1.03147.8358-1.867634 1.8667-1.867634z"/><path d="m50.9341.325546c1.0309 0 1.8667.836164 1.8667 1.867634 0 1.03146-.8358 1.86763-1.8667 1.86763-1.031 0-1.8667-.83617-1.8667-1.86763 0-1.03147.8357-1.867634 1.8667-1.867634z"/><path d="m66.9037 33.1959c1.0309 0 1.8667.8361 1.8667 1.8676s-.8358 1.8677-1.8667 1.8677c-1.031 0-1.8667-.8362-1.8667-1.8677s.8357-1.8676 1.8667-1.8676z"/><path d="m83.3307 33.1959c1.0309 0 1.8667.8361 1.8667 1.8676s-.8358 1.8677-1.8667 1.8677c-1.031 0-1.8667-.8362-1.8667-1.8677s.8357-1.8676 1.8667-1.8676z"/><path d="m99.7576 33.1959c1.0314 0 1.8664.8361 1.8664 1.8676s-.835 1.8677-1.8664 1.8677c-1.031 0-1.8667-.8362-1.8667-1.8677s.8357-1.8676 1.8667-1.8676z"/><path d="m66.9037 16.7607c1.0309 0 1.8667.8362 1.8667 1.8676 0 1.0315-.8358 1.8677-1.8667 1.8677-1.031 0-1.8667-.8362-1.8667-1.8677 0-1.0314.8357-1.8676 1.8667-1.8676z"/><path d="m83.3307 16.7607c1.0309 0 1.8667.8362 1.8667 1.8676 0 1.0315-.8358 1.8677-1.8667 1.8677-1.031 0-1.8667-.8362-1.8667-1.8677 0-1.0314.8357-1.8676 1.8667-1.8676z"/><path d="m99.7576 16.7607c1.0314 0 1.8664.8362 1.8664 1.8676 0 1.0315-.835 1.8677-1.8664 1.8677-1.031 0-1.8667-.8362-1.8667-1.8677 0-1.0314.8357-1.8676 1.8667-1.8676z"/><path d="m66.9037.325211c1.0309 0 1.8667.836179 1.8667 1.867649 0 1.03146-.8358 1.86763-1.8667 1.86763-1.031 0-1.8667-.83617-1.8667-1.86763 0-1.03147.8357-1.867649 1.8667-1.867649z"/><path d="m83.3307.325195c1.0309 0 1.8667.836195 1.8667 1.867665 0 1.03146-.8358 1.86763-1.8667 1.86763-1.031 0-1.8667-.83617-1.8667-1.86763 0-1.03147.8357-1.867665 1.8667-1.867665z"/><path d="m99.7576.325195c1.0314 0 1.8664.836195 1.8664 1.867665 0 1.03146-.835 1.86763-1.8664 1.86763-1.031 0-1.8667-.83617-1.8667-1.86763 0-1.03147.8357-1.867665 1.8667-1.867665z"/><path d="m1.8667 82.2031c1.03095 0 1.8667.8362 1.8667 1.8677 0 1.0314-.83575 1.8676-1.8667 1.8676-1.030956 0-1.86669995-.8362-1.8667-1.8676-.00000005-1.0315.835744-1.8677 1.8667-1.8677z"/><path d="m18.2939 82.2031c1.031 0 1.8667.8362 1.8667 1.8677 0 1.0314-.8357 1.8676-1.8667 1.8676-1.0309 0-1.8667-.8362-1.8667-1.8676 0-1.0315.8358-1.8677 1.8667-1.8677z"/><path d="m34.7209 82.2028c1.031 0 1.8667.8362 1.8667 1.8676 0 1.0315-.8357 1.8677-1.8667 1.8677-1.0309 0-1.8667-.8362-1.8667-1.8677 0-1.0314.8358-1.8676 1.8667-1.8676z"/><path d="m50.9341 82.2028c1.0309 0 1.8667.8362 1.8667 1.8676 0 1.0315-.8358 1.8677-1.8667 1.8677-1.031 0-1.8667-.8362-1.8667-1.8677 0-1.0314.8357-1.8676 1.8667-1.8676z"/><path d="m1.8667 65.768c1.03095 0 1.8667.8361 1.8667 1.8676s-.83575 1.8676-1.8667 1.8676c-1.030956 0-1.86669995-.8361-1.8667-1.8676s.835744-1.8676 1.8667-1.8676z"/><path d="m18.2939 65.768c1.031 0 1.8667.8361 1.8667 1.8676s-.8357 1.8676-1.8667 1.8676c-1.0309 0-1.8667-.8361-1.8667-1.8676s.8358-1.8676 1.8667-1.8676z"/><path d="m34.7209 65.7676c1.031 0 1.8667.8362 1.8667 1.8677 0 1.0314-.8357 1.8676-1.8667 1.8676-1.0309 0-1.8667-.8362-1.8667-1.8676 0-1.0315.8358-1.8677 1.8667-1.8677z"/><path d="m50.9341 65.7676c1.0309 0 1.8667.8362 1.8667 1.8677 0 1.0314-.8358 1.8676-1.8667 1.8676-1.031 0-1.8667-.8362-1.8667-1.8676 0-1.0315.8357-1.8677 1.8667-1.8677z"/><path d="m1.8667 98.2646c1.03095 0 1.8667.8362 1.8667 1.8674 0 1.032-.83575 1.868-1.8667 1.868-1.030956 0-1.86669995-.836-1.8667-1.868-.00000005-1.0312.835744-1.8674 1.8667-1.8674z"/><path d="m1.8667 49.3325c1.03095 0 1.8667.8361 1.8667 1.8676 0 1.0314-.83575 1.8676-1.8667 1.8676-1.030956 0-1.86669995-.8362-1.8667-1.8676-.00000005-1.0315.835744-1.8676 1.8667-1.8676z"/><path d="m18.2939 98.2646c1.031 0 1.8667.8362 1.8667 1.8674 0 1.032-.8357 1.868-1.8667 1.868-1.0309 0-1.8667-.836-1.8667-1.868 0-1.0312.8358-1.8674 1.8667-1.8674z"/><path d="m18.2939 49.3325c1.031 0 1.8667.8361 1.8667 1.8676 0 1.0314-.8357 1.8676-1.8667 1.8676-1.0309 0-1.8667-.8362-1.8667-1.8676 0-1.0315.8358-1.8676 1.8667-1.8676z"/><path d="m34.7209 98.2649c1.031 0 1.8667.8362 1.8667 1.8681 0 1.031-.8357 1.867-1.8667 1.867-1.0309 0-1.8667-.836-1.8667-1.867 0-1.0319.8358-1.8681 1.8667-1.8681z"/><path d="m50.9341 98.2649c1.0309 0 1.8667.8362 1.8667 1.8681 0 1.031-.8358 1.867-1.8667 1.867-1.031 0-1.8667-.836-1.8667-1.867 0-1.0319.8357-1.8681 1.8667-1.8681z"/><path d="m34.7209 49.3328c1.031 0 1.8667.8362 1.8667 1.8676 0 1.0315-.8357 1.8677-1.8667 1.8677-1.0309 0-1.8667-.8362-1.8667-1.8677 0-1.0314.8358-1.8676 1.8667-1.8676z"/><path d="m50.9341 49.3328c1.0309 0 1.8667.8362 1.8667 1.8676 0 1.0315-.8358 1.8677-1.8667 1.8677-1.031 0-1.8667-.8362-1.8667-1.8677 0-1.0314.8357-1.8676 1.8667-1.8676z"/><path d="m66.9037 82.2031c1.0309 0 1.8667.8362 1.8667 1.8677 0 1.0314-.8358 1.8676-1.8667 1.8676-1.031 0-1.8667-.8362-1.8667-1.8676 0-1.0315.8357-1.8677 1.8667-1.8677z"/><path d="m83.3307 82.2031c1.0309 0 1.8667.8362 1.8667 1.8677 0 1.0314-.8358 1.8676-1.8667 1.8676-1.031 0-1.8667-.8362-1.8667-1.8676 0-1.0315.8357-1.8677 1.8667-1.8677z"/><path d="m99.7576 82.2031c1.0314 0 1.8664.8362 1.8664 1.8677 0 1.0314-.835 1.8676-1.8664 1.8676-1.031 0-1.8667-.8362-1.8667-1.8676 0-1.0315.8357-1.8677 1.8667-1.8677z"/><path d="m66.9037 65.7676c1.0309 0 1.8667.8362 1.8667 1.8677 0 1.0314-.8358 1.8676-1.8667 1.8676-1.031 0-1.8667-.8362-1.8667-1.8676 0-1.0315.8357-1.8677 1.8667-1.8677z"/><path d="m83.3307 65.768c1.0309 0 1.8667.8361 1.8667 1.8676s-.8358 1.8676-1.8667 1.8676c-1.031 0-1.8667-.8361-1.8667-1.8676s.8357-1.8676 1.8667-1.8676z"/><path d="m99.7576 65.768c1.0314 0 1.8664.8361 1.8664 1.8676s-.835 1.8676-1.8664 1.8676c-1.031 0-1.8667-.8361-1.8667-1.8676s.8357-1.8676 1.8667-1.8676z"/><path d="m66.9037 98.2646c1.0309 0 1.8667.8362 1.8667 1.8674 0 1.032-.8358 1.868-1.8667 1.868-1.031 0-1.8667-.836-1.8667-1.868 0-1.0312.8357-1.8674 1.8667-1.8674z"/><path d="m66.9037 49.3325c1.0309 0 1.8667.8361 1.8667 1.8676 0 1.0314-.8358 1.8676-1.8667 1.8676-1.031 0-1.8667-.8362-1.8667-1.8676 0-1.0315.8357-1.8676 1.8667-1.8676z"/><path d="m83.3307 98.2646c1.0309 0 1.8667.8362 1.8667 1.8674 0 1.032-.8358 1.868-1.8667 1.868-1.031 0-1.8667-.836-1.8667-1.868 0-1.0312.8357-1.8674 1.8667-1.8674z"/><path d="m83.3307 49.3325c1.0309 0 1.8667.8361 1.8667 1.8676 0 1.0314-.8358 1.8676-1.8667 1.8676-1.031 0-1.8667-.8362-1.8667-1.8676 0-1.0315.8357-1.8676 1.8667-1.8676z"/><path d="m99.7576 98.2646c1.0314 0 1.8664.8362 1.8664 1.8674 0 1.032-.835 1.868-1.8664 1.868-1.031 0-1.8667-.836-1.8667-1.868 0-1.0312.8357-1.8674 1.8667-1.8674z"/><path d="m99.7576 49.3325c1.0314 0 1.8664.8361 1.8664 1.8676 0 1.0314-.835 1.8676-1.8664 1.8676-1.031 0-1.8667-.8362-1.8667-1.8676 0-1.0315.8357-1.8676 1.8667-1.8676z"/></g></svg>