<svg fill="none" height="106" viewBox="0 0 134 106" width="134" xmlns="http://www.w3.org/2000/svg"><g fill="#fff"><circle cx="1.66667" cy="104" r="1.66667" transform="matrix(0 -1 1 0 -102.33333 105.66667)"/><circle cx="16.3334" cy="104" r="1.66667" transform="matrix(0 -1 1 0 -87.6666 120.3334)"/><circle cx="31" cy="104" r="1.66667" transform="matrix(0 -1 1 0 -73 135)"/><circle cx="45.6667" cy="104" r="1.66667" transform="matrix(0 -1 1 0 -58.3333 149.6667)"/><circle cx="60.3334" cy="104" r="1.66667" transform="matrix(0 -1 1 0 -43.6666 164.3334)"/><circle cx="88.6667" cy="104" r="1.66667" transform="matrix(0 -1 1 0 -15.3333 192.6667)"/><circle cx="117.667" cy="104" r="1.66667" transform="matrix(0 -1 1 0 13.667 221.667)"/><circle cx="74.6667" cy="104" r="1.66667" transform="matrix(0 -1 1 0 -29.3333 178.6667)"/><circle cx="103" cy="104" r="1.66667" transform="matrix(0 -1 1 0 -1 207)"/><circle cx="132" cy="104" r="1.66667" transform="matrix(0 -1 1 0 28 236)"/><circle cx="1.66667" cy="89.3335" r="1.66667" transform="matrix(0 -1 1 0 -87.66683 91.00017)"/><circle cx="16.3333" cy="89.3335" r="1.66667" transform="matrix(0 -1 1 0 -73.0002 105.6668)"/><circle cx="31" cy="89.3335" r="1.66667" transform="matrix(0 -1 1 0 -58.3335 120.3335)"/><circle cx="45.6667" cy="89.3335" r="1.66667" transform="matrix(0 -1 1 0 -43.6668 135.0002)"/><circle cx="60.3333" cy="89.3337" r="1.66667" transform="matrix(0 -1 1 0 -29.0004 149.667)"/><circle cx="88.6667" cy="89.3337" r="1.66667" transform="matrix(0 -1 1 0 -.667 178.0004)"/><circle cx="117.667" cy="89.3337" r="1.66667" transform="matrix(0 -1 1 0 28.3333 207.0007)"/><circle cx="74.6667" cy="89.3337" r="1.66667" transform="matrix(0 -1 1 0 -14.667 164.0004)"/><circle cx="103" cy="89.3337" r="1.66667" transform="matrix(0 -1 1 0 13.6663 192.3337)"/><circle cx="132" cy="89.3337" r="1.66667" transform="matrix(0 -1 1 0 42.6663 221.3337)"/><circle cx="1.66667" cy="74.667" r="1.66667" transform="matrix(0 -1 1 0 -73.00033 76.33367)"/><circle cx="1.66667" cy="31.0002" r="1.66667" transform="matrix(0 -1 1 0 -29.33353 32.66687)"/><circle cx="16.3333" cy="74.667" r="1.66667" transform="matrix(0 -1 1 0 -58.3337 91.0003)"/><circle cx="16.3333" cy="31.0002" r="1.66667" transform="matrix(0 -1 1 0 -14.6669 47.3335)"/><circle cx="31" cy="74.667" r="1.66667" transform="matrix(0 -1 1 0 -43.667 105.667)"/><circle cx="31" cy="31.0002" r="1.66667" transform="matrix(0 -1 1 0 -.0002 62.0002)"/><circle cx="45.6667" cy="74.667" r="1.66667" transform="matrix(0 -1 1 0 -29.0003 120.3337)"/><circle cx="45.6667" cy="31.0002" r="1.66667" transform="matrix(0 -1 1 0 14.6665 76.6669)"/><circle cx="60.3333" cy="74.6667" r="1.66667" transform="matrix(0 -1 1 0 -14.3334 135)"/><circle cx="60.3333" cy="31" r="1.66667" transform="matrix(0 -1 1 0 29.3333 91.3333)"/><circle cx="88.6667" cy="74.6667" r="1.66667" transform="matrix(0 -1 1 0 14 163.3334)"/><circle cx="88.6667" cy="31" r="1.66667" transform="matrix(0 -1 1 0 57.6667 119.6667)"/><circle cx="117.667" cy="74.6667" r="1.66667" transform="matrix(0 -1 1 0 43.0003 192.3337)"/><circle cx="117.667" cy="31" r="1.66667" transform="matrix(0 -1 1 0 86.667 148.667)"/><circle cx="74.6667" cy="74.6667" r="1.66667" transform="matrix(0 -1 1 0 0 149.3334)"/><circle cx="74.6667" cy="31" r="1.66667" transform="matrix(0 -1 1 0 43.6667 105.6667)"/><circle cx="103" cy="74.6667" r="1.66667" transform="matrix(0 -1 1 0 28.3333 177.6667)"/><circle cx="103" cy="31" r="1.66667" transform="matrix(0 -1 1 0 72 134)"/><circle cx="132" cy="74.6667" r="1.66667" transform="matrix(0 -1 1 0 57.3333 206.6667)"/><circle cx="132" cy="31" r="1.66667" transform="matrix(0 -1 1 0 101 163)"/><circle cx="1.66667" cy="60.0002" r="1.66667" transform="matrix(0 -1 1 0 -58.33353 61.66687)"/><circle cx="1.66667" cy="16.3335" r="1.66667" transform="matrix(0 -1 1 0 -14.66683 18.00017)"/><circle cx="16.3333" cy="60.0002" r="1.66667" transform="matrix(0 -1 1 0 -43.6669 76.3335)"/><circle cx="16.3333" cy="16.3335" r="1.66667" transform="matrix(0 -1 1 0 -.0002 32.6668)"/><circle cx="31" cy="60.0002" r="1.66667" transform="matrix(0 -1 1 0 -29.0002 91.0002)"/><circle cx="31" cy="16.3335" r="1.66667" transform="matrix(0 -1 1 0 14.6665 47.3335)"/><circle cx="45.6667" cy="60.0002" r="1.66667" transform="matrix(0 -1 1 0 -14.3335 105.6669)"/><circle cx="45.6667" cy="16.3335" r="1.66667" transform="matrix(0 -1 1 0 29.3332 62.0002)"/><circle cx="60.3333" cy="60.0002" r="1.66667" transform="matrix(0 -1 1 0 .3331 120.3335)"/><circle cx="60.3333" cy="16.3335" r="1.66667" transform="matrix(0 -1 1 0 43.9998 76.6668)"/><circle cx="88.6667" cy="60.0002" r="1.66667" transform="matrix(0 -1 1 0 28.6665 148.6669)"/><circle cx="88.6667" cy="16.3335" r="1.66667" transform="matrix(0 -1 1 0 72.3332 105.0002)"/><circle cx="117.667" cy="60.0002" r="1.66667" transform="matrix(0 -1 1 0 57.6668 177.6672)"/><circle cx="117.667" cy="16.3335" r="1.66667" transform="matrix(0 -1 1 0 101.3335 134.0005)"/><circle cx="74.6667" cy="60.0002" r="1.66667" transform="matrix(0 -1 1 0 14.6665 134.6669)"/><circle cx="74.6667" cy="16.3335" r="1.66667" transform="matrix(0 -1 1 0 58.3332 91.0002)"/><circle cx="103" cy="60.0002" r="1.66667" transform="matrix(0 -1 1 0 42.9998 163.0002)"/><circle cx="103" cy="16.3335" r="1.66667" transform="matrix(0 -1 1 0 86.6665 119.3335)"/><circle cx="132" cy="60.0002" r="1.66667" transform="matrix(0 -1 1 0 71.9998 192.0002)"/><circle cx="132" cy="16.3335" r="1.66667" transform="matrix(0 -1 1 0 115.6665 148.3335)"/><circle cx="1.66667" cy="45.3335" r="1.66667" transform="matrix(0 -1 1 0 -43.66683 47.00017)"/><circle cx="1.66667" cy="1.66671" r="1.66667" transform="matrix(0 -1 1 0 -.00004 3.33338)"/><circle cx="16.3333" cy="45.3335" r="1.66667" transform="matrix(0 -1 1 0 -29.0002 61.6668)"/><circle cx="16.3333" cy="1.66671" r="1.66667" transform="matrix(0 -1 1 0 14.66659 18.00001)"/><circle cx="31" cy="45.3335" r="1.66667" transform="matrix(0 -1 1 0 -14.3335 76.3335)"/><circle cx="31" cy="1.66671" r="1.66667" transform="matrix(0 -1 1 0 29.33329 32.66671)"/><circle cx="45.6667" cy="45.3335" r="1.66667" transform="matrix(0 -1 1 0 .3332 91.0002)"/><circle cx="45.6667" cy="1.66671" r="1.66667" transform="matrix(0 -1 1 0 43.99999 47.33341)"/><circle cx="60.3333" cy="45.3337" r="1.66667" transform="matrix(0 -1 1 0 14.9996 105.667)"/><circle cx="60.3333" cy="1.66695" r="1.66667" transform="matrix(0 -1 1 0 58.66635 62.00025)"/><circle cx="88.6667" cy="45.3337" r="1.66667" transform="matrix(0 -1 1 0 43.333 134.0004)"/><circle cx="88.6667" cy="1.66695" r="1.66667" transform="matrix(0 -1 1 0 86.99975 90.33365)"/><circle cx="117.667" cy="45.3337" r="1.66667" transform="matrix(0 -1 1 0 72.3333 163.0007)"/><circle cx="117.667" cy="1.66695" r="1.66667" transform="matrix(0 -1 1 0 116.00005 119.33395)"/><circle cx="74.6667" cy="45.3337" r="1.66667" transform="matrix(0 -1 1 0 29.333 120.0004)"/><circle cx="74.6667" cy="1.66695" r="1.66667" transform="matrix(0 -1 1 0 72.99975 76.33365)"/><circle cx="103" cy="45.3337" r="1.66667" transform="matrix(0 -1 1 0 57.6663 148.3337)"/><circle cx="103" cy="1.66695" r="1.66667" transform="matrix(0 -1 1 0 101.33305 104.66695)"/><circle cx="132" cy="45.3337" r="1.66667" transform="matrix(0 -1 1 0 86.6663 177.3337)"/><circle cx="132" cy="1.66695" r="1.66667" transform="matrix(0 -1 1 0 130.33305 133.66695)"/></g></svg>