<svg fill="none" height="40" viewBox="0 0 40 40" width="40" xmlns="http://www.w3.org/2000/svg"><path d="m20 40c11.0457 0 20-8.9543 20-20s-8.9543-20-20-20-20 8.9543-20 20 8.9543 20 20 20z" fill="#fff"/><path clip-rule="evenodd" d="m11.2311 8c-1.71175 0-2.97838 1.49826-2.92168 3.1231.05445 1.5609-.01629 3.5827-.52522 5.2314-.51076 1.6533-1.37397 2.701-2.7842 2.8355v1.5183c1.41023.1348 2.27344 1.1819 2.78414 2.8355.50899 1.6487.57967 3.6704.52522 5.2314-.0567 1.6246 1.20993 3.1231 2.92194 3.1231h17.5399c1.7118 0 2.9782-1.4983 2.9214-3.1231-.0544-1.561.0163-3.5827.5253-5.2314.5107-1.6536 1.3718-2.7012 2.7821-2.8355v-1.5183c-1.4102-.1348-2.2713-1.1819-2.7821-2.8355-.5091-1.6485-.5797-3.6705-.5253-5.2314.0568-1.62463-1.2096-3.1231-2.9214-3.1231zm14.1079 14.7109c0 2.2374-1.6688 3.5942-4.4382 3.5942h-4.7144c-.1348 0-.2641-.0536-.3595-.1489-.0954-.0954-.1489-.2247-.1489-.3596v-11.6949c0-.1348.0535-.2642.1489-.3595.0954-.0954.2247-.1489.3595-.1489h4.6875c2.3093 0 3.8248 1.2508 3.8248 3.1713 0 1.3479-1.0195 2.5547-2.3184 2.7661v.0703c1.7681.1939 2.9587 1.4185 2.9587 3.1099zm-4.9523-7.5058h-2.688v3.7969h2.264c1.7502 0 2.7152-.7048 2.7152-1.9645-.0002-1.1805-.8298-1.8324-2.2912-1.8324zm-2.688 5.3034v4.1842h2.7869c1.8223 0 2.7875-.7312 2.7875-2.1053s-.9923-2.0791-2.9047-2.0791z" fill="#3056d3" fill-rule="evenodd"/></svg>