<svg width="46" height="46" viewBox="0 0 46 46" fill="none" xmlns="http://www.w3.org/2000/svg">
<circle cx="1.39737" cy="44.6026" r="1.39737" transform="rotate(-90 1.39737 44.6026)" fill="white" fill-opacity="0.44"/>
<circle cx="1.39737" cy="7.99124" r="1.39737" transform="rotate(-90 1.39737 7.99124)" fill="white" fill-opacity="0.44"/>
<circle cx="13.6943" cy="44.6026" r="1.39737" transform="rotate(-90 13.6943 44.6026)" fill="white" fill-opacity="0.44"/>
<circle cx="13.6943" cy="7.99124" r="1.39737" transform="rotate(-90 13.6943 7.99124)" fill="white" fill-opacity="0.44"/>
<circle cx="25.9911" cy="44.6026" r="1.39737" transform="rotate(-90 25.9911 44.6026)" fill="white" fill-opacity="0.44"/>
<circle cx="25.9911" cy="7.99124" r="1.39737" transform="rotate(-90 25.9911 7.99124)" fill="white" fill-opacity="0.44"/>
<circle cx="38.288" cy="44.6026" r="1.39737" transform="rotate(-90 38.288 44.6026)" fill="white" fill-opacity="0.44"/>
<circle cx="38.288" cy="7.99124" r="1.39737" transform="rotate(-90 38.288 7.99124)" fill="white" fill-opacity="0.44"/>
<circle cx="1.39737" cy="32.3058" r="1.39737" transform="rotate(-90 1.39737 32.3058)" fill="white" fill-opacity="0.44"/>
<circle cx="13.6943" cy="32.3058" r="1.39737" transform="rotate(-90 13.6943 32.3058)" fill="white" fill-opacity="0.44"/>
<circle cx="25.9911" cy="32.3058" r="1.39737" transform="rotate(-90 25.9911 32.3058)" fill="white" fill-opacity="0.44"/>
<circle cx="38.288" cy="32.3058" r="1.39737" transform="rotate(-90 38.288 32.3058)" fill="white" fill-opacity="0.44"/>
<circle cx="1.39737" cy="20.0087" r="1.39737" transform="rotate(-90 1.39737 20.0087)" fill="white" fill-opacity="0.44"/>
<circle cx="13.6943" cy="20.0087" r="1.39737" transform="rotate(-90 13.6943 20.0087)" fill="white" fill-opacity="0.44"/>
<circle cx="25.9911" cy="20.0087" r="1.39737" transform="rotate(-90 25.9911 20.0087)" fill="white" fill-opacity="0.44"/>
<circle cx="38.288" cy="20.0087" r="1.39737" transform="rotate(-90 38.288 20.0087)" fill="white" fill-opacity="0.44"/>
</svg>
